G04*
G04 #@! TF.GenerationSoftware,Altium Limited,Altium Designer,21.9.2 (33)*
G04*
G04 Layer_Color=16711935*
%FSLAX25Y25*%
%MOIN*%
G70*
G04*
G04 #@! TF.SameCoordinates,C4A799FB-7654-48D4-A5E1-033C702218DC*
G04*
G04*
G04 #@! TF.FilePolarity,Negative*
G04*
G01*
G75*
%ADD16R,0.04340X0.04537*%
%ADD21C,0.07099*%
%ADD22R,0.07099X0.07099*%
%ADD23C,0.03556*%
%ADD24C,0.04737*%
G04:AMPARAMS|DCode=43|XSize=29.65mil|YSize=35.56mil|CornerRadius=9.41mil|HoleSize=0mil|Usage=FLASHONLY|Rotation=180.000|XOffset=0mil|YOffset=0mil|HoleType=Round|Shape=RoundedRectangle|*
%AMROUNDEDRECTD43*
21,1,0.02965,0.01673,0,0,180.0*
21,1,0.01083,0.03556,0,0,180.0*
1,1,0.01883,-0.00541,0.00837*
1,1,0.01883,0.00541,0.00837*
1,1,0.01883,0.00541,-0.00837*
1,1,0.01883,-0.00541,-0.00837*
%
%ADD43ROUNDEDRECTD43*%
%ADD44R,0.04737X0.10249*%
%ADD45R,0.13792X0.10249*%
G04:AMPARAMS|DCode=46|XSize=94.61mil|YSize=94.61mil|CornerRadius=25.65mil|HoleSize=0mil|Usage=FLASHONLY|Rotation=180.000|XOffset=0mil|YOffset=0mil|HoleType=Round|Shape=RoundedRectangle|*
%AMROUNDEDRECTD46*
21,1,0.09461,0.04331,0,0,180.0*
21,1,0.04331,0.09461,0,0,180.0*
1,1,0.05131,-0.02165,0.02165*
1,1,0.05131,0.02165,0.02165*
1,1,0.05131,0.02165,-0.02165*
1,1,0.05131,-0.02165,-0.02165*
%
%ADD46ROUNDEDRECTD46*%
%ADD47R,0.05524X0.07493*%
D16*
X107874Y72244D02*
D03*
Y78149D02*
D03*
X100787Y72244D02*
D03*
Y78149D02*
D03*
X100787Y105315D02*
D03*
Y99410D02*
D03*
X30852Y80549D02*
D03*
Y86454D02*
D03*
X25197Y80512D02*
D03*
Y86417D02*
D03*
X107874Y99409D02*
D03*
Y105315D02*
D03*
X115354Y19094D02*
D03*
Y25000D02*
D03*
X123005Y24840D02*
D03*
Y18934D02*
D03*
X85433Y22638D02*
D03*
Y28543D02*
D03*
X124895Y-28703D02*
D03*
Y-34609D02*
D03*
X105525D02*
D03*
Y-28703D02*
D03*
X95840Y-34609D02*
D03*
Y-28703D02*
D03*
X115210Y-34609D02*
D03*
Y-28703D02*
D03*
D21*
X68898Y8347D02*
D03*
Y18347D02*
D03*
Y28346D02*
D03*
D22*
Y38346D02*
D03*
D23*
X-2756Y35827D02*
D03*
X84252Y50394D02*
D03*
X-18898Y97638D02*
D03*
X-29134Y105512D02*
D03*
X76378Y92126D02*
D03*
X50394Y80709D02*
D03*
Y109843D02*
D03*
X27559Y69685D02*
D03*
X-7087Y17323D02*
D03*
X-35039Y20472D02*
D03*
X105905Y63779D02*
D03*
X-29134Y26378D02*
D03*
X8268Y62598D02*
D03*
X27559Y38976D02*
D03*
X-88976Y87402D02*
D03*
X-1969Y22047D02*
D03*
X9843Y34252D02*
D03*
X16535Y60236D02*
D03*
D24*
X120079Y78740D02*
D03*
X124409Y5906D02*
D03*
D43*
X124409Y94980D02*
D03*
X116535D02*
D03*
Y109547D02*
D03*
X124409Y109744D02*
D03*
X116535Y67815D02*
D03*
X124409Y68012D02*
D03*
Y82579D02*
D03*
X116535D02*
D03*
D44*
X121654Y-16929D02*
D03*
X112598D02*
D03*
X103543D02*
D03*
D45*
X112598Y5905D02*
D03*
D46*
X126378Y-53937D02*
D03*
X35827Y-109055D02*
D03*
Y-53937D02*
D03*
Y-63937D02*
D03*
Y-99055D02*
D03*
X126378Y-109055D02*
D03*
D47*
X100394Y57677D02*
D03*
X110236D02*
D03*
X120079D02*
D03*
X100394Y34449D02*
D03*
X110236D02*
D03*
X120079D02*
D03*
M02*
