G04*
G04 #@! TF.GenerationSoftware,Altium Limited,Altium Designer,21.9.2 (33)*
G04*
G04 Layer_Color=16711935*
%FSLAX25Y25*%
%MOIN*%
G70*
G04*
G04 #@! TF.SameCoordinates,C4A799FB-7654-48D4-A5E1-033C702218DC*
G04*
G04*
G04 #@! TF.FilePolarity,Positive*
G04*
G01*
G75*
%ADD50C,0.00394*%
D50*
X-8268Y37795D02*
X-8531Y38780D01*
X-9252Y39500D01*
X-10236Y39764D01*
X-11220Y39500D01*
X-11941Y38780D01*
X-12205Y37795D01*
X-11941Y36811D01*
X-11220Y36090D01*
X-10236Y35827D01*
X-9252Y36090D01*
X-8531Y36811D01*
X-8268Y37795D01*
X106299Y78347D02*
X109449D01*
X106299Y72047D02*
X109449D01*
X106299D02*
Y78347D01*
X109449Y72047D02*
Y78347D01*
X102362Y72047D02*
Y78347D01*
X99213Y72047D02*
Y78347D01*
Y72047D02*
X102362D01*
X99213Y78347D02*
X102362D01*
X37795Y74184D02*
X40945D01*
X37795Y67885D02*
X40945D01*
Y74184D01*
X37795Y67885D02*
Y74184D01*
X45984D02*
X49134D01*
X45984Y67885D02*
X49134D01*
Y74184D01*
X45984Y67885D02*
Y74184D01*
X99409Y-12795D02*
X125787D01*
X99409Y1772D02*
X125787D01*
Y-12795D02*
Y1772D01*
X99409Y-12795D02*
Y1772D01*
X99213Y105512D02*
X102362D01*
X99213Y99212D02*
X102362D01*
X99213D02*
Y105512D01*
X102362Y99212D02*
Y105512D01*
X102362Y32874D02*
Y39173D01*
X99213Y32874D02*
Y39173D01*
X102362D01*
X99213Y32874D02*
X102362D01*
X32427Y80352D02*
Y86651D01*
X29277Y80352D02*
Y86651D01*
Y80352D02*
X32427D01*
X29277Y86651D02*
X32427D01*
X26772Y80315D02*
Y86614D01*
X23622Y80315D02*
Y86614D01*
Y80315D02*
X26772D01*
X23622Y86614D02*
X26772D01*
X106299Y99213D02*
X109449D01*
X106299Y105512D02*
X109449D01*
Y99213D02*
Y105512D01*
X106299Y99213D02*
Y105512D01*
X3150Y62992D02*
Y66142D01*
X-3150Y62992D02*
Y66142D01*
Y62992D02*
X3150D01*
X-3150Y66142D02*
X3150D01*
X-59842Y74016D02*
X-56693D01*
X-59842Y67717D02*
X-56693D01*
Y74016D01*
X-59842Y67717D02*
Y74016D01*
X-68110D02*
X-64961D01*
X-68110Y67717D02*
X-64961D01*
Y74016D01*
X-68110Y67717D02*
Y74016D01*
X-75984Y74184D02*
X-72835D01*
X-75984Y67885D02*
X-72835D01*
Y74184D01*
X-75984Y67885D02*
Y74184D01*
X-34252Y74016D02*
X-31102D01*
X-34252Y67717D02*
X-31102D01*
Y74016D01*
X-34252Y67717D02*
Y74016D01*
X-42520D02*
X-39370D01*
X-42520Y67717D02*
X-39370D01*
Y74016D01*
X-42520Y67717D02*
Y74016D01*
X-17323Y-83268D02*
X-14173D01*
X-17323Y-76968D02*
X-14173D01*
X-17323Y-83268D02*
Y-76968D01*
X-14173Y-83268D02*
Y-76968D01*
X-6299Y-83268D02*
Y-76968D01*
X-9449Y-83268D02*
Y-76968D01*
X-6299D01*
X-9449Y-83268D02*
X-6299D01*
X9449D02*
Y-76968D01*
X6299Y-83268D02*
Y-76968D01*
X9449D01*
X6299Y-83268D02*
X9449D01*
X17323D02*
Y-76968D01*
X14173Y-83268D02*
Y-76968D01*
X17323D01*
X14173Y-83268D02*
X17323D01*
X40945Y-50590D02*
X44094D01*
X40945Y-44291D02*
X44094D01*
X40945Y-50590D02*
Y-44291D01*
X44094Y-50590D02*
Y-44291D01*
X54173Y67913D02*
Y74212D01*
X57323Y67913D02*
Y74212D01*
X54173Y67913D02*
X57323D01*
X54173Y74212D02*
X57323D01*
X62362Y67885D02*
Y74184D01*
X65512Y67885D02*
Y74184D01*
X62362Y67885D02*
X65512D01*
X62362Y74184D02*
X65512D01*
X70551Y67885D02*
Y74184D01*
X73701Y67885D02*
Y74184D01*
X70551Y67885D02*
X73701D01*
X70551Y74184D02*
X73701D01*
X78740Y67885D02*
Y74184D01*
X81890Y67885D02*
Y74184D01*
X78740Y67885D02*
X81890D01*
X78740Y74184D02*
X81890D01*
X-51181Y67717D02*
Y74016D01*
X-48031Y67717D02*
Y74016D01*
X-51181Y67717D02*
X-48031D01*
X-51181Y74016D02*
X-48031D01*
X-99212Y32874D02*
Y39173D01*
X-102362Y32874D02*
Y39173D01*
X-99212D01*
X-102362Y32874D02*
X-99212D01*
X-66929Y-20669D02*
Y-14370D01*
X-70079Y-20669D02*
Y-14370D01*
X-66929D01*
X-70079Y-20669D02*
X-66929D01*
X88189Y12402D02*
X91338D01*
X88189Y18701D02*
X91338D01*
X88189Y12402D02*
Y18701D01*
X91338Y12402D02*
Y18701D01*
X66142Y-20669D02*
X69291D01*
X66142Y-14370D02*
X69291D01*
X66142Y-20669D02*
Y-14370D01*
X69291Y-20669D02*
Y-14370D01*
X-92913Y12402D02*
X-89764D01*
X-92913Y18701D02*
X-89764D01*
X-92913Y12402D02*
Y18701D01*
X-89764Y12402D02*
Y18701D01*
X116929Y18898D02*
Y25197D01*
X113780Y18898D02*
Y25197D01*
Y18898D02*
X116929D01*
X113780Y25197D02*
X116929D01*
X121431Y18738D02*
Y25037D01*
X124580Y18738D02*
Y25037D01*
X121431D02*
X124580D01*
X121431Y18738D02*
X124580D01*
X87008Y22441D02*
Y28740D01*
X83858Y22441D02*
Y28740D01*
Y22441D02*
X87008D01*
X83858Y28740D02*
X87008D01*
X123320Y-28506D02*
X126470D01*
X123320Y-34806D02*
X126470D01*
X123320D02*
Y-28506D01*
X126470Y-34806D02*
Y-28506D01*
X107100Y-34806D02*
Y-28506D01*
X103950Y-34806D02*
Y-28506D01*
Y-34806D02*
X107100D01*
X103950Y-28506D02*
X107100D01*
X97415Y-34806D02*
Y-28506D01*
X94265Y-34806D02*
Y-28506D01*
Y-34806D02*
X97415D01*
X94265Y-28506D02*
X97415D01*
X116785Y-34806D02*
Y-28506D01*
X113635Y-34806D02*
Y-28506D01*
Y-34806D02*
X116785D01*
X113635Y-28506D02*
X116785D01*
X-42520Y-50590D02*
X-39370D01*
X-42520Y-44291D02*
X-39370D01*
X-42520Y-50590D02*
Y-44291D01*
X-39370Y-50590D02*
Y-44291D01*
X83464Y-4921D02*
Y1378D01*
X80315Y-4921D02*
Y1378D01*
X83464D01*
X80315Y-4921D02*
X83464D01*
X58268Y-36417D02*
Y-30118D01*
X55118Y-36417D02*
Y-30118D01*
X58268D01*
X55118Y-36417D02*
X58268D01*
X28346Y-66142D02*
Y-59842D01*
X25197Y-66142D02*
Y-59842D01*
X28346D01*
X25197Y-66142D02*
X28346D01*
X-25197Y-66338D02*
Y-60039D01*
X-28346Y-66338D02*
Y-60039D01*
X-25197D01*
X-28346Y-66338D02*
X-25197D01*
X-51968Y-36417D02*
Y-30118D01*
X-55118Y-36417D02*
Y-30118D01*
X-51968D01*
X-55118Y-36417D02*
X-51968D01*
X-80315Y-4921D02*
Y1378D01*
X-83464Y-4921D02*
Y1378D01*
X-80315D01*
X-83464Y-4921D02*
X-80315D01*
X-13780Y13780D02*
Y41339D01*
X13780Y13780D02*
Y41339D01*
X-13780D02*
X13780D01*
X-13780Y13780D02*
X13780D01*
M02*
