G04*
G04 #@! TF.GenerationSoftware,Altium Limited,Altium Designer,21.9.2 (33)*
G04*
G04 Layer_Physical_Order=1*
G04 Layer_Color=255*
%FSLAX25Y25*%
%MOIN*%
G70*
G04*
G04 #@! TF.SameCoordinates,C4A799FB-7654-48D4-A5E1-033C702218DC*
G04*
G04*
G04 #@! TF.FilePolarity,Positive*
G04*
G01*
G75*
%ADD14C,0.00591*%
%ADD25R,0.05000X0.05500*%
%ADD26R,0.03740X0.03937*%
%ADD27R,0.03937X0.03740*%
%ADD28R,0.05500X0.05000*%
%ADD29O,0.05709X0.01181*%
%ADD30O,0.01181X0.05709*%
%ADD31C,0.01968*%
%ADD32C,0.01181*%
%ADD33C,0.06299*%
%ADD34R,0.06299X0.06299*%
%ADD35C,0.02756*%
%ADD36C,0.03937*%
G36*
X136190Y113014D02*
X135967Y112940D01*
X135690Y112931D01*
X135387Y113384D01*
X135387Y113384D01*
X134234Y114537D01*
X133713Y114885D01*
X133099Y115007D01*
X133099Y115007D01*
X-34311D01*
X-34819Y115346D01*
X-35433Y115468D01*
X-36048Y115346D01*
X-36555Y115007D01*
X-131863D01*
X-132477Y114885D01*
X-132998Y114537D01*
X-132998Y114537D01*
X-134151Y113384D01*
X-134499Y112863D01*
X-134621Y112248D01*
X-134621Y112248D01*
Y-4724D01*
Y-19685D01*
Y-36559D01*
X-134621Y-36559D01*
X-134621Y-36559D01*
Y-50787D01*
Y-65803D01*
X-134621Y-65803D01*
X-134621Y-65803D01*
Y-110535D01*
X-134621Y-110535D01*
X-134499Y-111150D01*
X-134151Y-111670D01*
X-132537Y-113285D01*
X-132537Y-113285D01*
X-132016Y-113633D01*
X-131401Y-113755D01*
X-131401Y-113755D01*
X28008D01*
X28008Y-113755D01*
X28008Y-113755D01*
X133099D01*
X133099Y-113755D01*
X133713Y-113633D01*
X134234Y-113285D01*
X135387Y-112132D01*
X135387Y-112132D01*
X135690Y-111679D01*
X135967Y-111688D01*
X136190Y-111762D01*
Y-116505D01*
X-136190D01*
Y116505D01*
X136190D01*
Y113014D01*
D02*
G37*
G36*
X132646Y111583D02*
Y89007D01*
X110965D01*
Y90742D01*
X104783D01*
Y84061D01*
X110965D01*
Y85796D01*
X132646D01*
Y73653D01*
X123114D01*
Y75388D01*
X121629D01*
Y76680D01*
X121650Y76692D01*
X122126Y77169D01*
X122463Y77752D01*
X122638Y78403D01*
Y79077D01*
X122463Y79728D01*
X122126Y80312D01*
X121650Y80788D01*
X121066Y81125D01*
X120416Y81299D01*
X119742D01*
X119091Y81125D01*
X118507Y80788D01*
X118031Y80312D01*
X117694Y79728D01*
X117520Y79077D01*
Y78403D01*
X117694Y77752D01*
X118031Y77169D01*
X118418Y76782D01*
Y75388D01*
X116933D01*
Y68707D01*
X123114D01*
Y70442D01*
X132444D01*
X132646Y70306D01*
Y54362D01*
X129020D01*
Y56097D01*
X122839D01*
Y49415D01*
X129020D01*
Y51150D01*
X132646D01*
Y34677D01*
X128626D01*
Y36411D01*
X122445D01*
Y29730D01*
X128626D01*
Y31465D01*
X132646D01*
Y14204D01*
X117602D01*
Y15939D01*
X111421D01*
Y9258D01*
X117602D01*
Y10993D01*
X122804D01*
Y7919D01*
X122362Y7477D01*
X122025Y6893D01*
X121850Y6242D01*
Y5569D01*
X122025Y4918D01*
X122362Y4334D01*
X122838Y3858D01*
X123422Y3521D01*
X124073Y3347D01*
X124746D01*
X125397Y3521D01*
X125981Y3858D01*
X126457Y4334D01*
X126794Y4918D01*
X126969Y5569D01*
Y6242D01*
X126794Y6893D01*
X126457Y7477D01*
X126015Y7919D01*
Y10993D01*
X132646D01*
Y-3119D01*
X108153D01*
Y-1384D01*
X101972D01*
Y-8065D01*
X108153D01*
Y-6330D01*
X132646D01*
Y-19654D01*
X95216D01*
Y-17132D01*
X89035D01*
Y-23813D01*
X95216D01*
Y-22865D01*
X132646D01*
Y-34615D01*
X82957D01*
Y-32880D01*
X76775D01*
Y-39561D01*
X82957D01*
Y-37826D01*
X132646D01*
Y-48788D01*
X68783D01*
Y-47053D01*
X62602D01*
Y-53734D01*
X68783D01*
Y-51999D01*
X132646D01*
Y-64536D01*
X53484D01*
Y-62801D01*
X47303D01*
Y-69482D01*
X53484D01*
Y-67747D01*
X132406D01*
X132646Y-67988D01*
Y-110331D01*
X132434Y-110544D01*
X29952D01*
Y-92854D01*
X31687D01*
Y-86673D01*
X25006D01*
Y-92854D01*
X26741D01*
Y-110544D01*
X9480D01*
Y-105453D01*
X11215D01*
Y-99272D01*
X4534D01*
Y-105453D01*
X6268D01*
Y-110544D01*
X-6268D01*
Y-105453D01*
X-4534D01*
Y-99272D01*
X-11215D01*
Y-105453D01*
X-9480D01*
Y-110544D01*
X-26741D01*
Y-92405D01*
X-25006D01*
Y-86224D01*
X-31687D01*
Y-92405D01*
X-29952D01*
Y-110544D01*
X-130736D01*
X-131410Y-109870D01*
Y-67747D01*
X-53035D01*
Y-69482D01*
X-46854D01*
Y-62801D01*
X-53035D01*
Y-64536D01*
X-131410D01*
Y-52393D01*
X-67209D01*
Y-53734D01*
X-61027D01*
Y-47053D01*
X-67209D01*
Y-49182D01*
X-131410D01*
Y-37826D01*
X-81382D01*
Y-39561D01*
X-75201D01*
Y-32880D01*
X-81382D01*
Y-34615D01*
X-131410D01*
Y-21291D01*
X-95216D01*
Y-23813D01*
X-89035D01*
Y-17132D01*
X-95216D01*
Y-18079D01*
X-131410D01*
Y-6330D01*
X-108153D01*
Y-8065D01*
X-101972D01*
Y-1384D01*
X-108153D01*
Y-3119D01*
X-131410D01*
Y10993D01*
X-117264D01*
Y9258D01*
X-111083D01*
Y15939D01*
X-117264D01*
Y14204D01*
X-131410D01*
Y31465D01*
X-129469D01*
Y29730D01*
X-123287D01*
Y36411D01*
X-129469D01*
Y34677D01*
X-131410D01*
Y51150D01*
X-129862D01*
Y49415D01*
X-123681D01*
Y56097D01*
X-129862D01*
Y54362D01*
X-131225D01*
X-131410Y54547D01*
Y70835D01*
X-120358D01*
Y68707D01*
X-114177D01*
Y75388D01*
X-120358D01*
Y74047D01*
X-131410D01*
Y86583D01*
X-110571D01*
Y84061D01*
X-104390D01*
Y90742D01*
X-110571D01*
Y89795D01*
X-131410D01*
Y111583D01*
X-131198Y111796D01*
X-91369D01*
Y102553D01*
X-92854D01*
Y95872D01*
X-86673D01*
Y102553D01*
X-88158D01*
Y111796D01*
X-66566D01*
Y104128D01*
X-67264D01*
Y97447D01*
X-61083D01*
Y104128D01*
X-63355D01*
Y111796D01*
X-37039D01*
Y96254D01*
X-38524D01*
Y89573D01*
X-32342D01*
Y96254D01*
X-33827D01*
Y111796D01*
X-12291D01*
Y76175D01*
X-13776D01*
Y69494D01*
X-7594D01*
Y76175D01*
X-9079D01*
Y111796D01*
X8969D01*
Y76175D01*
X7594D01*
Y69494D01*
X9481D01*
Y65693D01*
X9481Y65693D01*
X9572Y65232D01*
X9833Y64841D01*
X11353Y63322D01*
X11353Y63322D01*
X11744Y63061D01*
X12205Y62969D01*
X22418D01*
Y39590D01*
X6007D01*
X6007Y39590D01*
X5546Y39498D01*
X5155Y39237D01*
X5155Y39237D01*
X4464Y38546D01*
X4202Y38155D01*
X4111Y37694D01*
X4111Y37694D01*
Y27189D01*
X-9623D01*
Y38976D01*
Y39971D01*
X-9358Y40177D01*
Y44193D01*
Y47979D01*
X-9479Y47955D01*
X-10005Y47603D01*
X-10132Y47413D01*
X-10366Y47569D01*
X-10827Y47661D01*
X-11287Y47569D01*
X-11678Y47308D01*
X-11939Y46918D01*
X-12031Y46457D01*
Y44193D01*
Y39590D01*
X-18898D01*
X-19358Y39498D01*
X-19749Y39237D01*
X-20010Y38847D01*
X-20102Y38386D01*
X-20010Y37925D01*
X-19940Y37821D01*
X-20208Y37321D01*
X-39173D01*
X-39173Y37321D01*
X-39519Y37252D01*
X-39812Y37056D01*
X-48406Y28462D01*
X-74803D01*
X-75149Y28394D01*
X-75442Y28198D01*
X-82528Y21111D01*
X-82724Y20818D01*
X-82793Y20472D01*
Y3740D01*
X-84350D01*
Y-1378D01*
X-79429D01*
Y3740D01*
X-80986D01*
Y20098D01*
X-74429Y26656D01*
X-48031D01*
X-47686Y26725D01*
X-47393Y26920D01*
X-38799Y35514D01*
X-34168D01*
X-34040Y35306D01*
X-33980Y35014D01*
X-61662Y7332D01*
X-61858Y7039D01*
X-61927Y6693D01*
Y-13405D01*
X-62185Y-13664D01*
X-66043D01*
Y-12008D01*
X-70964D01*
Y-17126D01*
X-66043D01*
Y-15470D01*
X-61811D01*
X-61465Y-15401D01*
X-61172Y-15206D01*
X-60385Y-14418D01*
X-60189Y-14125D01*
X-60120Y-13780D01*
Y6319D01*
X-54794Y11646D01*
X-54405Y11387D01*
X-54381Y11351D01*
X-54447Y11024D01*
Y-27756D01*
X-56004D01*
Y-32874D01*
X-51083D01*
Y-27756D01*
X-52640D01*
Y10650D01*
X-31712Y31577D01*
X-20208D01*
X-19940Y31077D01*
X-20010Y30973D01*
X-20102Y30512D01*
X-20010Y30051D01*
X-19904Y29893D01*
X-19791Y29528D01*
X-19904Y29163D01*
X-20010Y29004D01*
X-20102Y28543D01*
X-20010Y28082D01*
X-19904Y27924D01*
X-19884Y27860D01*
X-20113Y27380D01*
X-27418D01*
X-27465Y27493D01*
X-28019Y28047D01*
X-28742Y28346D01*
X-29525D01*
X-30249Y28047D01*
X-30803Y27493D01*
X-31102Y26770D01*
Y25986D01*
X-30803Y25263D01*
X-30249Y24709D01*
X-29525Y24409D01*
X-28742D01*
X-28019Y24709D01*
X-27465Y25263D01*
X-27336Y25573D01*
X-20720D01*
X-20446Y25106D01*
X-16634D01*
Y24106D01*
X-20420D01*
X-20396Y23986D01*
X-20044Y23460D01*
X-19854Y23332D01*
X-20010Y23099D01*
X-20102Y22638D01*
X-20010Y22177D01*
X-19904Y22018D01*
X-19884Y21954D01*
X-20113Y21474D01*
X-33324D01*
X-33371Y21587D01*
X-33924Y22141D01*
X-34648Y22441D01*
X-35431D01*
X-36154Y22141D01*
X-36708Y21587D01*
X-37008Y20864D01*
Y20081D01*
X-36708Y19357D01*
X-36154Y18804D01*
X-35431Y18504D01*
X-34648D01*
X-33924Y18804D01*
X-33371Y19357D01*
X-33242Y19668D01*
X-27592D01*
X-27385Y19168D01*
X-41583Y4969D01*
X-41779Y4676D01*
X-41848Y4331D01*
Y-41929D01*
X-43406D01*
Y-47047D01*
X-38484D01*
Y-41929D01*
X-40042D01*
Y3957D01*
X-28137Y15861D01*
X-27675Y15670D01*
Y-57677D01*
X-29232D01*
Y-62795D01*
X-24311D01*
Y-57677D01*
X-25868D01*
Y15829D01*
X-19672D01*
X-19358Y15620D01*
X-18898Y15528D01*
X-14370D01*
X-13909Y15620D01*
X-13519Y15881D01*
X-13258Y16272D01*
X-13166Y16732D01*
X-13258Y17193D01*
X-13363Y17352D01*
X-13477Y17717D01*
X-13363Y18081D01*
X-13258Y18240D01*
X-13166Y18701D01*
X-13258Y19162D01*
X-13363Y19320D01*
X-13477Y19685D01*
X-13363Y20050D01*
X-13258Y20209D01*
X-13166Y20669D01*
X-13218Y20933D01*
X-12905Y21433D01*
X-11614D01*
X-11614Y21433D01*
X-11153Y21525D01*
X-10763Y21786D01*
X-9975Y22574D01*
X-9975Y22574D01*
X-9714Y22964D01*
X-9623Y23425D01*
X-9623Y23425D01*
Y24780D01*
X4111D01*
Y22149D01*
X4111Y22149D01*
X4202Y21688D01*
X4464Y21297D01*
X5155Y20605D01*
X5155Y20605D01*
X5546Y20344D01*
X6007Y20252D01*
X6007Y20252D01*
X9541D01*
X9623Y20171D01*
Y15147D01*
X9358Y14941D01*
Y10925D01*
Y7139D01*
X9479Y7163D01*
X10005Y7515D01*
X10132Y7705D01*
X10366Y7549D01*
X10827Y7457D01*
X11287Y7549D01*
X11678Y7810D01*
X11939Y8201D01*
X12031Y8661D01*
Y13189D01*
Y20669D01*
X12031Y20669D01*
X11939Y21130D01*
X11678Y21521D01*
X11678Y21521D01*
X10891Y22308D01*
X10500Y22569D01*
X10040Y22661D01*
X10039Y22661D01*
X6519D01*
Y25984D01*
Y37182D01*
X12412D01*
X12618Y36917D01*
X16634D01*
X20650D01*
X20855Y37182D01*
X22930D01*
X22930Y37182D01*
X23391Y37273D01*
X23782Y37534D01*
X24474Y38226D01*
X24474Y38226D01*
X24735Y38617D01*
X24826Y39078D01*
X24826Y39078D01*
Y63481D01*
X24826Y63481D01*
X24735Y63942D01*
X24474Y64333D01*
X24474Y64333D01*
X23782Y65025D01*
X23391Y65286D01*
X22930Y65377D01*
X22930Y65377D01*
X12704D01*
X11889Y66192D01*
Y69494D01*
X13776D01*
Y76175D01*
X12180D01*
Y111796D01*
X31914D01*
Y96254D01*
X30429D01*
Y89573D01*
X36610D01*
Y96254D01*
X35125D01*
Y111796D01*
X48856D01*
X49063Y111296D01*
X48725Y110958D01*
X48425Y110234D01*
Y109451D01*
X48725Y108727D01*
X49279Y108174D01*
X49490Y108086D01*
Y82465D01*
X49279Y82377D01*
X49041Y82140D01*
X48541Y82347D01*
Y91146D01*
X48472Y91492D01*
X48276Y91785D01*
X48276Y91785D01*
X46510Y93552D01*
X46217Y93748D01*
X45871Y93817D01*
X45610D01*
Y96254D01*
X39429D01*
Y89573D01*
X45610D01*
Y91243D01*
X46072Y91435D01*
X46735Y90772D01*
Y76547D01*
X45099D01*
Y71429D01*
X50020D01*
Y76547D01*
X48541D01*
Y79070D01*
X49041Y79277D01*
X49279Y79040D01*
X50002Y78740D01*
X50785D01*
X51509Y79040D01*
X52062Y79594D01*
X52362Y80317D01*
Y81100D01*
X52062Y81824D01*
X51509Y82377D01*
X51297Y82465D01*
Y108086D01*
X51509Y108174D01*
X52062Y108727D01*
X52362Y109451D01*
Y110234D01*
X52062Y110958D01*
X51724Y111296D01*
X51931Y111796D01*
X63749D01*
Y104128D01*
X62264D01*
Y97447D01*
X68445D01*
Y104128D01*
X66960D01*
Y111796D01*
X86190D01*
Y102553D01*
X84705D01*
Y95872D01*
X90886D01*
Y102553D01*
X89401D01*
Y111796D01*
X132434D01*
X132646Y111583D01*
D02*
G37*
%LPC*%
G36*
X81886Y102553D02*
X75705D01*
Y100116D01*
X72835D01*
X72835Y100116D01*
X72489Y100047D01*
X72196Y99851D01*
X72196Y99851D01*
X63141Y90796D01*
X62945Y90503D01*
X62876Y90158D01*
Y76547D01*
X61476D01*
Y71429D01*
X66398D01*
Y76547D01*
X64683D01*
Y89783D01*
X73209Y98309D01*
X75705D01*
Y95872D01*
X81886D01*
Y102553D01*
D02*
G37*
G36*
X-28742Y107480D02*
X-29525D01*
X-30249Y107181D01*
X-30803Y106627D01*
X-31102Y105903D01*
Y105120D01*
X-30803Y104397D01*
X-30249Y103843D01*
X-29525Y103543D01*
X-28742D01*
X-28019Y103843D01*
X-27465Y104397D01*
X-27377Y104609D01*
X-20846D01*
X-19801Y103563D01*
Y99394D01*
X-20013Y99307D01*
X-20567Y98753D01*
X-20866Y98029D01*
Y97246D01*
X-20567Y96523D01*
X-20013Y95969D01*
X-19289Y95669D01*
X-18506D01*
X-17783Y95969D01*
X-17229Y96523D01*
X-16929Y97246D01*
Y98029D01*
X-17229Y98753D01*
X-17783Y99307D01*
X-17995Y99394D01*
Y103937D01*
X-18063Y104283D01*
X-18259Y104576D01*
X-19834Y106150D01*
X-20127Y106346D01*
X-20472Y106415D01*
X-27377D01*
X-27465Y106627D01*
X-28019Y107181D01*
X-28742Y107480D01*
D02*
G37*
G36*
X-95390Y90742D02*
X-101571D01*
Y84061D01*
X-95390D01*
Y86498D01*
X-90733D01*
X-90645Y86286D01*
X-90091Y85733D01*
X-89368Y85433D01*
X-88585D01*
X-87861Y85733D01*
X-87308Y86286D01*
X-87008Y87010D01*
Y87793D01*
X-87308Y88517D01*
X-87861Y89070D01*
X-88585Y89370D01*
X-89368D01*
X-90091Y89070D01*
X-90645Y88517D01*
X-90733Y88305D01*
X-95390D01*
Y90742D01*
D02*
G37*
G36*
X76770Y94095D02*
X75986D01*
X75263Y93795D01*
X74709Y93241D01*
X74410Y92518D01*
Y91734D01*
X74709Y91011D01*
X75263Y90457D01*
X75986Y90158D01*
X76770D01*
X77493Y90457D01*
X78047Y91011D01*
X78135Y91223D01*
X85453D01*
X89912Y86763D01*
X89912Y86763D01*
X90206Y86567D01*
X90551Y86498D01*
X95784D01*
Y84061D01*
X101965D01*
Y90742D01*
X95784D01*
Y88305D01*
X90925D01*
X86465Y92765D01*
X86172Y92960D01*
X85827Y93029D01*
X78135D01*
X78047Y93241D01*
X77493Y93795D01*
X76770Y94095D01*
D02*
G37*
G36*
X41831Y76547D02*
X36909D01*
Y73738D01*
X22776D01*
Y76175D01*
X16594D01*
Y69494D01*
X22776D01*
Y71931D01*
X26532D01*
X26631Y71431D01*
X26444Y71354D01*
X25890Y70800D01*
X25591Y70077D01*
Y69293D01*
X25890Y68570D01*
X26444Y68016D01*
X26656Y67928D01*
Y40733D01*
X26444Y40645D01*
X25890Y40091D01*
X25591Y39368D01*
Y38585D01*
X25890Y37861D01*
X26444Y37308D01*
X27167Y37008D01*
X27951D01*
X28674Y37308D01*
X29228Y37861D01*
X29528Y38585D01*
Y39368D01*
X29228Y40091D01*
X28674Y40645D01*
X28462Y40733D01*
Y67928D01*
X28674Y68016D01*
X29228Y68570D01*
X29528Y69293D01*
Y70077D01*
X29228Y70800D01*
X28674Y71354D01*
X28487Y71431D01*
X28586Y71931D01*
X36909D01*
Y71429D01*
X41831D01*
Y76547D01*
D02*
G37*
G36*
X-71949D02*
X-76870D01*
Y73422D01*
X-80237D01*
X-80237Y73422D01*
X-80582Y73353D01*
X-80875Y73158D01*
X-100124Y53909D01*
X-114681D01*
Y56097D01*
X-120862D01*
Y49415D01*
X-114681D01*
Y52103D01*
X-99750D01*
X-99404Y52171D01*
X-99111Y52367D01*
X-79863Y71616D01*
X-76870D01*
Y71429D01*
X-71949D01*
Y76547D01*
D02*
G37*
G36*
X59445Y104128D02*
X53264D01*
Y97447D01*
X54609D01*
Y76575D01*
X53288D01*
Y71457D01*
X58209D01*
Y76575D01*
X56415D01*
Y97447D01*
X59445D01*
Y104128D01*
D02*
G37*
G36*
X-23343Y96254D02*
X-29524D01*
Y89573D01*
X-27281D01*
Y87382D01*
X-35020Y79643D01*
X-40359D01*
X-40705Y79575D01*
X-40998Y79379D01*
X-41583Y78793D01*
X-41779Y78500D01*
X-41848Y78154D01*
Y76378D01*
X-43405D01*
Y71260D01*
X-38484D01*
Y76378D01*
X-40042D01*
Y77780D01*
X-39985Y77837D01*
X-34646D01*
X-34300Y77906D01*
X-34007Y78101D01*
X-25739Y86369D01*
X-25739Y86369D01*
X-25543Y86662D01*
X-25475Y87008D01*
Y89573D01*
X-23343D01*
Y96254D01*
D02*
G37*
G36*
X-52083Y104128D02*
X-58264D01*
Y97447D01*
X-56077D01*
Y91787D01*
X-56008Y91442D01*
X-55812Y91149D01*
X-50903Y86240D01*
Y76378D01*
X-52067D01*
Y71260D01*
X-47146D01*
Y76378D01*
X-49097D01*
Y86614D01*
X-49166Y86960D01*
X-49361Y87253D01*
X-54270Y92162D01*
Y97447D01*
X-52083D01*
Y104128D01*
D02*
G37*
G36*
X-77673Y102553D02*
X-83854D01*
Y95872D01*
X-77673D01*
Y98309D01*
X-76752D01*
X-60541Y82098D01*
Y76378D01*
X-60728D01*
Y71260D01*
X-55807D01*
Y76378D01*
X-58735D01*
Y82472D01*
X-58803Y82818D01*
X-58999Y83111D01*
X-75739Y99851D01*
X-76032Y100047D01*
X-76378Y100116D01*
X-77673D01*
Y102553D01*
D02*
G37*
G36*
X-70079Y86336D02*
X-81890D01*
X-82235Y86268D01*
X-82528Y86072D01*
X-95650Y72951D01*
X-105177D01*
Y75388D01*
X-111358D01*
Y68707D01*
X-105177D01*
Y71144D01*
X-95275D01*
X-94930Y71213D01*
X-94637Y71409D01*
X-81516Y84530D01*
X-70453D01*
X-68809Y82886D01*
Y76378D01*
X-68996D01*
Y71260D01*
X-64075D01*
Y76378D01*
X-67002D01*
Y83260D01*
X-67071Y83605D01*
X-67267Y83899D01*
X-69440Y86072D01*
X-69733Y86268D01*
X-70079Y86336D01*
D02*
G37*
G36*
X-30217Y76378D02*
X-35138D01*
Y71260D01*
X-30217D01*
Y71931D01*
X-22776D01*
Y69494D01*
X-16595D01*
Y76175D01*
X-22776D01*
Y73738D01*
X-30217D01*
Y76378D01*
D02*
G37*
G36*
X74410Y87911D02*
X74064Y87842D01*
X73771Y87647D01*
X71487Y85363D01*
X71292Y85070D01*
X71223Y84724D01*
Y76547D01*
X69665D01*
Y71429D01*
X74586D01*
Y76547D01*
X73029D01*
Y84350D01*
X74784Y86105D01*
X85059D01*
X100261Y70903D01*
X100554Y70707D01*
X100900Y70638D01*
X100900Y70638D01*
X107933D01*
Y68707D01*
X114114D01*
Y75388D01*
X107933D01*
Y72445D01*
X101274D01*
X86072Y87647D01*
X85779Y87842D01*
X85433Y87911D01*
X74410D01*
X74410Y87911D01*
D02*
G37*
G36*
X-3453Y67437D02*
X-5921D01*
Y65067D01*
X-3453D01*
Y67437D01*
D02*
G37*
G36*
X58209Y70669D02*
X53288D01*
Y65551D01*
X54845D01*
Y62421D01*
X54744Y62321D01*
X47769D01*
X47562Y62821D01*
X47883Y63141D01*
X48079Y63434D01*
X48147Y63779D01*
Y65523D01*
X50020D01*
Y70641D01*
X45099D01*
Y65523D01*
X46341D01*
Y64154D01*
X46083Y63895D01*
X41339D01*
X40993Y63827D01*
X40773Y63680D01*
X40273Y63824D01*
Y65523D01*
X41831D01*
Y70641D01*
X36909D01*
Y65523D01*
X38467D01*
Y44075D01*
X27775Y33384D01*
X20208D01*
X19940Y33884D01*
X20010Y33988D01*
X20102Y34449D01*
X20010Y34910D01*
X19854Y35143D01*
X20044Y35271D01*
X20396Y35797D01*
X20420Y35917D01*
X16634D01*
X12848D01*
X12872Y35797D01*
X12901Y35754D01*
X12633Y35254D01*
X11558D01*
X11511Y35367D01*
X10958Y35921D01*
X10234Y36220D01*
X9451D01*
X8727Y35921D01*
X8174Y35367D01*
X7874Y34644D01*
Y33860D01*
X8174Y33137D01*
X8727Y32583D01*
X9451Y32283D01*
X10234D01*
X10958Y32583D01*
X11511Y33137D01*
X11640Y33447D01*
X12994D01*
X13262Y32947D01*
X13258Y32941D01*
X13166Y32480D01*
X13258Y32019D01*
X13363Y31861D01*
X13477Y31496D01*
X13363Y31131D01*
X13258Y30973D01*
X13166Y30512D01*
X13258Y30051D01*
X13363Y29893D01*
X13477Y29528D01*
X13363Y29163D01*
X13258Y29004D01*
X13166Y28543D01*
X13258Y28082D01*
X13363Y27924D01*
X13477Y27559D01*
X13363Y27194D01*
X13258Y27036D01*
X13166Y26575D01*
X13258Y26114D01*
X13363Y25956D01*
X13477Y25591D01*
X13363Y25226D01*
X13258Y25067D01*
X13166Y24606D01*
X13258Y24146D01*
X13363Y23987D01*
X13477Y23622D01*
X13363Y23257D01*
X13258Y23099D01*
X13166Y22638D01*
X13258Y22177D01*
X13363Y22018D01*
X13477Y21654D01*
X13363Y21289D01*
X13258Y21130D01*
X13166Y20669D01*
X13258Y20209D01*
X13363Y20050D01*
X13477Y19685D01*
X13363Y19320D01*
X13258Y19162D01*
X13166Y18701D01*
X13258Y18240D01*
X13363Y18081D01*
X13477Y17717D01*
X13363Y17352D01*
X13258Y17193D01*
X13166Y16732D01*
X13258Y16272D01*
X13519Y15881D01*
X13909Y15620D01*
X14370Y15528D01*
X18898D01*
X19358Y15620D01*
X19672Y15829D01*
X29350D01*
X44637Y543D01*
X44930Y347D01*
X45276Y278D01*
X79429D01*
Y-1378D01*
X84350D01*
Y3740D01*
X79429D01*
Y2084D01*
X45650D01*
X30363Y17371D01*
X30070Y17567D01*
X29724Y17636D01*
X29443D01*
X29316Y17843D01*
X29255Y18135D01*
X48670Y37550D01*
X48670Y37550D01*
X48866Y37843D01*
X48935Y38189D01*
X48935Y38189D01*
Y54215D01*
X66949D01*
X88860Y32303D01*
Y21063D01*
X87303D01*
Y15945D01*
X92224D01*
Y21063D01*
X90667D01*
Y32677D01*
X90598Y33023D01*
X90402Y33316D01*
X86145Y37573D01*
X86352Y38073D01*
X98327D01*
Y36417D01*
X103248D01*
Y41535D01*
X98327D01*
Y39880D01*
X86201D01*
X69572Y56509D01*
X69763Y56971D01*
X78347D01*
X78692Y57040D01*
X78985Y57235D01*
X80954Y59204D01*
X81149Y59497D01*
X81218Y59842D01*
Y65523D01*
X82775D01*
Y70641D01*
X77854D01*
Y65523D01*
X79412D01*
Y60217D01*
X77972Y58777D01*
X72125D01*
X71934Y59239D01*
X72764Y60070D01*
X72764Y60070D01*
X72960Y60363D01*
X73029Y60709D01*
X73029Y60709D01*
Y65523D01*
X74586D01*
Y70641D01*
X69665D01*
Y65523D01*
X71223D01*
Y61083D01*
X70098Y59958D01*
X63857D01*
X63666Y60420D01*
X64575Y61330D01*
X64771Y61623D01*
X64840Y61968D01*
Y65523D01*
X66398D01*
Y70641D01*
X61476D01*
Y65523D01*
X63034D01*
Y62343D01*
X61831Y61139D01*
X56808D01*
X56541Y61639D01*
X56582Y61702D01*
X56651Y62047D01*
Y65551D01*
X58209D01*
Y70669D01*
D02*
G37*
G36*
X-71949Y70641D02*
X-76870D01*
Y65523D01*
X-75313D01*
Y62598D01*
X-75244Y62253D01*
X-75048Y61960D01*
X-67174Y54086D01*
X-67174Y54086D01*
X-66881Y53890D01*
X-66535Y53821D01*
X-66535Y53821D01*
X-33936D01*
X-33745Y53359D01*
X-47225Y39880D01*
X-98327D01*
Y41535D01*
X-103248D01*
Y36417D01*
X-98327D01*
Y38073D01*
X-46982D01*
X-46792Y37748D01*
X-46763Y37585D01*
X-52736Y31612D01*
X-86221D01*
X-86566Y31543D01*
X-86859Y31347D01*
X-91977Y26229D01*
X-92173Y25936D01*
X-92242Y25591D01*
Y21063D01*
X-93799D01*
Y15945D01*
X-88878D01*
Y21063D01*
X-90435D01*
Y25216D01*
X-85846Y29805D01*
X-52362D01*
X-52017Y29874D01*
X-51724Y30070D01*
X-30335Y51459D01*
X-7793D01*
Y48188D01*
X-8139Y48003D01*
X-8293Y47966D01*
X-8358Y47979D01*
Y44193D01*
Y40407D01*
X-8238Y40431D01*
X-7712Y40782D01*
X-7584Y40973D01*
X-7350Y40817D01*
X-6890Y40725D01*
X-6429Y40817D01*
X-6271Y40922D01*
X-5906Y41036D01*
X-5540Y40922D01*
X-5382Y40817D01*
X-4921Y40725D01*
X-4461Y40817D01*
X-4258Y40952D01*
X-3757Y40714D01*
Y37543D01*
X-3871Y37496D01*
X-4425Y36942D01*
X-4724Y36218D01*
Y35435D01*
X-4425Y34712D01*
X-3871Y34158D01*
X-3148Y33858D01*
X-2364D01*
X-1641Y34158D01*
X-1087Y34712D01*
X-787Y35435D01*
Y36218D01*
X-1087Y36942D01*
X-1641Y37496D01*
X-1951Y37624D01*
Y40553D01*
X-1451Y40821D01*
X-1445Y40817D01*
X-984Y40725D01*
X-524Y40817D01*
X-365Y40922D01*
X0Y41036D01*
X365Y40922D01*
X524Y40817D01*
X984Y40725D01*
X1445Y40817D01*
X1603Y40922D01*
X1969Y41036D01*
X2334Y40922D01*
X2492Y40817D01*
X2953Y40725D01*
X3413Y40817D01*
X3804Y41078D01*
X4070D01*
X4461Y40817D01*
X4921Y40725D01*
X5382Y40817D01*
X5540Y40922D01*
X5906Y41036D01*
X6271Y40922D01*
X6429Y40817D01*
X6890Y40725D01*
X7350Y40817D01*
X7509Y40922D01*
X7874Y41036D01*
X8239Y40922D01*
X8398Y40817D01*
X8858Y40725D01*
X9319Y40817D01*
X9477Y40922D01*
X9843Y41036D01*
X10208Y40922D01*
X10366Y40817D01*
X10827Y40725D01*
X11287Y40817D01*
X11678Y41078D01*
X11939Y41468D01*
X12031Y41929D01*
Y46457D01*
X11939Y46918D01*
X11730Y47231D01*
Y54153D01*
X15932Y58355D01*
X16144Y58268D01*
X16927D01*
X17650Y58567D01*
X18204Y59121D01*
X18504Y59845D01*
Y60628D01*
X18204Y61351D01*
X17650Y61905D01*
X16927Y62205D01*
X16144D01*
X15420Y61905D01*
X14867Y61351D01*
X14567Y60628D01*
Y59845D01*
X14655Y59633D01*
X10261Y55239D01*
X9969Y55300D01*
X9762Y55428D01*
Y56496D01*
X9693Y56842D01*
X9497Y57135D01*
X5363Y61269D01*
X5070Y61464D01*
X4724Y61533D01*
X472D01*
X444Y61563D01*
X439Y61606D01*
X446Y61651D01*
X881Y62106D01*
X5512D01*
Y63455D01*
X6012Y63577D01*
X6387Y63202D01*
X6299Y62990D01*
Y62207D01*
X6599Y61483D01*
X7153Y60930D01*
X7876Y60630D01*
X8659D01*
X9383Y60930D01*
X9937Y61483D01*
X10236Y62207D01*
Y62990D01*
X9937Y63714D01*
X9383Y64267D01*
X8659Y64567D01*
X7876D01*
X7664Y64479D01*
X6938Y65206D01*
X6645Y65401D01*
X6299Y65470D01*
X5512D01*
Y67027D01*
X516D01*
X394Y67027D01*
X16Y67322D01*
Y67437D01*
X-2453D01*
Y64567D01*
X-2953D01*
Y64067D01*
X-5921D01*
Y62033D01*
X-5921Y61697D01*
X-6353Y61533D01*
X-29153D01*
X-31774Y64154D01*
Y65354D01*
X-30217D01*
Y70473D01*
X-35138D01*
Y65354D01*
X-33580D01*
Y63779D01*
X-33512Y63434D01*
X-33316Y63141D01*
X-30989Y60814D01*
X-31180Y60352D01*
X-38996D01*
X-40042Y61398D01*
Y65354D01*
X-38484D01*
Y70473D01*
X-43405D01*
Y65354D01*
X-41848D01*
Y61024D01*
X-41779Y60678D01*
X-41583Y60385D01*
X-40831Y59633D01*
X-41023Y59171D01*
X-47657D01*
X-48703Y60217D01*
Y65354D01*
X-47146D01*
Y70473D01*
X-52067D01*
Y65354D01*
X-50510D01*
Y59842D01*
X-50441Y59497D01*
X-50245Y59204D01*
X-49493Y58452D01*
X-49684Y57990D01*
X-53169D01*
X-57364Y62185D01*
Y65354D01*
X-55807D01*
Y70473D01*
X-60728D01*
Y65354D01*
X-59171D01*
Y61811D01*
X-59102Y61465D01*
X-58906Y61172D01*
X-55005Y57271D01*
X-55196Y56809D01*
X-59468D01*
X-64254Y61595D01*
Y65354D01*
X-64075D01*
Y70473D01*
X-68996D01*
Y65354D01*
X-66061D01*
Y61221D01*
X-65992Y60875D01*
X-65796Y60582D01*
X-61304Y56090D01*
X-61495Y55628D01*
X-66161D01*
X-73506Y62972D01*
Y65523D01*
X-71949D01*
Y70641D01*
D02*
G37*
G36*
X82775Y76547D02*
X77854D01*
Y71429D01*
X82775D01*
Y73084D01*
X87843D01*
X95424Y65503D01*
X95717Y65307D01*
X96063Y65239D01*
X103400D01*
X103678Y64739D01*
X103643Y64683D01*
X91732D01*
X91387Y64614D01*
X91094Y64418D01*
X83613Y56938D01*
X83418Y56645D01*
X83349Y56299D01*
Y52150D01*
X83137Y52062D01*
X82583Y51509D01*
X82284Y50785D01*
Y50002D01*
X82583Y49279D01*
X83137Y48725D01*
X83860Y48425D01*
X84644D01*
X85367Y48725D01*
X85921Y49279D01*
X86221Y50002D01*
Y50785D01*
X85921Y51509D01*
X85367Y52062D01*
X85155Y52150D01*
Y55925D01*
X92106Y62876D01*
X104149D01*
X104237Y62665D01*
X104790Y62111D01*
X105514Y61811D01*
X106297D01*
X107021Y62111D01*
X107574Y62665D01*
X107874Y63388D01*
Y64171D01*
X107639Y64739D01*
X107884Y65239D01*
X111831D01*
X116420Y60650D01*
Y56097D01*
X113839D01*
Y49415D01*
X120020D01*
Y56097D01*
X118226D01*
Y61024D01*
X118157Y61369D01*
X117962Y61662D01*
X112843Y66780D01*
X112550Y66976D01*
X112205Y67045D01*
X96437D01*
X88856Y74626D01*
X88563Y74822D01*
X88217Y74891D01*
X82775D01*
Y76547D01*
D02*
G37*
G36*
X72638Y42087D02*
X65158D01*
Y34606D01*
X72638D01*
Y42087D01*
D02*
G37*
G36*
X119626Y36411D02*
X113445D01*
Y33974D01*
X103248D01*
Y35630D01*
X98327D01*
Y30512D01*
X103248D01*
Y32168D01*
X113445D01*
Y29730D01*
X119626D01*
Y36411D01*
D02*
G37*
G36*
X-114287D02*
X-120468D01*
Y29730D01*
X-114287D01*
Y32168D01*
X-103248D01*
Y30512D01*
X-98327D01*
Y35630D01*
X-103248D01*
Y33974D01*
X-114287D01*
Y36411D01*
D02*
G37*
G36*
X69390Y32087D02*
X68405D01*
X67454Y31832D01*
X66601Y31339D01*
X65905Y30643D01*
X65412Y29790D01*
X65158Y28839D01*
Y27854D01*
X65412Y26903D01*
X65905Y26050D01*
X66601Y25354D01*
X67454Y24861D01*
X68405Y24606D01*
X69390D01*
X70341Y24861D01*
X71194Y25354D01*
X71890Y26050D01*
X72383Y26903D01*
X72638Y27854D01*
Y28839D01*
X72383Y29790D01*
X71890Y30643D01*
X71194Y31339D01*
X70341Y31832D01*
X69390Y32087D01*
D02*
G37*
G36*
X-1577Y24016D02*
X-2360D01*
X-3084Y23716D01*
X-3637Y23162D01*
X-3725Y22950D01*
X-7874D01*
X-8220Y22882D01*
X-8513Y22686D01*
X-11465Y19733D01*
X-11661Y19440D01*
X-11730Y19095D01*
Y13963D01*
X-11939Y13650D01*
X-12031Y13189D01*
Y8661D01*
X-11939Y8201D01*
X-11678Y7810D01*
X-11287Y7549D01*
X-10827Y7457D01*
X-10366Y7549D01*
X-10261Y7619D01*
X-9762Y7351D01*
Y-51791D01*
X-16387Y-58416D01*
X-16582Y-58710D01*
X-16651Y-59055D01*
Y-74606D01*
X-18209D01*
Y-79724D01*
X-13287D01*
Y-74606D01*
X-14845D01*
Y-59429D01*
X-9239Y-53824D01*
X-8777Y-54015D01*
Y-74606D01*
X-10335D01*
Y-79724D01*
X-5413D01*
Y-74606D01*
X-6971D01*
Y-53524D01*
X-4356Y-50909D01*
X-4064Y-50969D01*
X-3856Y-51097D01*
Y-72638D01*
X-3787Y-72983D01*
X-3591Y-73277D01*
X936Y-77804D01*
X1229Y-78000D01*
X1575Y-78069D01*
X5413D01*
Y-79724D01*
X10335D01*
Y-74606D01*
X5413D01*
Y-76262D01*
X1949D01*
X-2049Y-72264D01*
Y-51884D01*
X-1842Y-51757D01*
X-1550Y-51696D01*
X14845Y-68091D01*
Y-74606D01*
X13287D01*
Y-79724D01*
X18209D01*
Y-74606D01*
X16651D01*
Y-67717D01*
X16651Y-67717D01*
X16582Y-67371D01*
X16387Y-67078D01*
X9053Y-59745D01*
X9245Y-59283D01*
X24311D01*
Y-62598D01*
X29232D01*
Y-57480D01*
X25216D01*
X25197Y-57476D01*
X8754D01*
X1887Y-50610D01*
Y-40073D01*
X2095Y-39946D01*
X2387Y-39885D01*
X5956Y-43453D01*
X6249Y-43649D01*
X6594Y-43718D01*
X6594Y-43718D01*
X40059D01*
Y-47047D01*
X44980D01*
Y-41929D01*
X41032D01*
X40945Y-41912D01*
X6968D01*
X3856Y-38799D01*
Y-28262D01*
X4064Y-28134D01*
X4356Y-28074D01*
X7235Y-30954D01*
X7528Y-31149D01*
X7874Y-31218D01*
X54232D01*
Y-32874D01*
X59153D01*
Y-27756D01*
X54232D01*
Y-29412D01*
X8248D01*
X5824Y-26988D01*
Y-12908D01*
X6032Y-12780D01*
X6324Y-12720D01*
X8810Y-15205D01*
X8810Y-15205D01*
X9103Y-15401D01*
X9449Y-15470D01*
X9449Y-15470D01*
X65256D01*
Y-17126D01*
X70177D01*
Y-12008D01*
X65256D01*
Y-13664D01*
X9823D01*
X7793Y-11634D01*
Y6930D01*
X8139Y7115D01*
X8293Y7152D01*
X8358Y7139D01*
Y10925D01*
Y14711D01*
X8238Y14687D01*
X7712Y14336D01*
X7584Y14145D01*
X7350Y14301D01*
X6890Y14393D01*
X6429Y14301D01*
X6271Y14196D01*
X5906Y14082D01*
X5540Y14196D01*
X5382Y14301D01*
X4921Y14393D01*
X4461Y14301D01*
X4302Y14196D01*
X3937Y14082D01*
X3572Y14196D01*
X3413Y14301D01*
X2953Y14393D01*
X2492Y14301D01*
X2334Y14196D01*
X1969Y14082D01*
X1603Y14196D01*
X1445Y14301D01*
X984Y14393D01*
X524Y14301D01*
X365Y14196D01*
X0Y14082D01*
X-365Y14196D01*
X-524Y14301D01*
X-984Y14393D01*
X-1445Y14301D01*
X-1603Y14196D01*
X-1969Y14082D01*
X-2334Y14196D01*
X-2492Y14301D01*
X-2953Y14393D01*
X-3413Y14301D01*
X-3572Y14196D01*
X-3937Y14082D01*
X-4302Y14196D01*
X-4461Y14301D01*
X-4921Y14393D01*
X-5382Y14301D01*
X-5486Y14232D01*
X-5987Y14499D01*
Y15648D01*
X-5971Y15654D01*
X-5418Y16208D01*
X-5118Y16931D01*
Y17714D01*
X-5418Y18438D01*
X-5971Y18992D01*
X-6695Y19291D01*
X-7478D01*
X-8202Y18992D01*
X-8755Y18438D01*
X-9055Y17714D01*
Y16931D01*
X-8755Y16208D01*
X-8202Y15654D01*
X-7793Y15485D01*
Y14499D01*
X-8293Y14232D01*
X-8398Y14301D01*
X-8858Y14393D01*
X-9319Y14301D01*
X-9424Y14232D01*
X-9923Y14499D01*
Y18720D01*
X-7500Y21144D01*
X-3725D01*
X-3637Y20932D01*
X-3084Y20378D01*
X-2360Y20079D01*
X-1577D01*
X-853Y20378D01*
X-300Y20932D01*
X0Y21656D01*
Y22439D01*
X-300Y23162D01*
X-853Y23716D01*
X-1577Y24016D01*
D02*
G37*
G36*
X69444Y22496D02*
X69398D01*
Y18846D01*
X73047D01*
Y18893D01*
X72764Y19948D01*
X72218Y20894D01*
X71446Y21667D01*
X70499Y22213D01*
X69444Y22496D01*
D02*
G37*
G36*
X68398D02*
X68351D01*
X67296Y22213D01*
X66350Y21667D01*
X65577Y20894D01*
X65031Y19948D01*
X64748Y18893D01*
Y18846D01*
X68398D01*
Y22496D01*
D02*
G37*
G36*
X73047Y17846D02*
X69398D01*
Y14197D01*
X69444D01*
X70499Y14480D01*
X71446Y15026D01*
X72218Y15799D01*
X72764Y16745D01*
X73047Y17800D01*
Y17846D01*
D02*
G37*
G36*
X68398D02*
X64748D01*
Y17800D01*
X65031Y16745D01*
X65577Y15799D01*
X66350Y15026D01*
X67296Y14480D01*
X68351Y14197D01*
X68398D01*
Y17846D01*
D02*
G37*
G36*
X108602Y15939D02*
X102421D01*
Y13502D01*
X92224D01*
Y15158D01*
X87303D01*
Y10040D01*
X92224D01*
Y11695D01*
X102421D01*
Y9258D01*
X108602D01*
Y15939D01*
D02*
G37*
G36*
X-102083D02*
X-108264D01*
Y9258D01*
X-102083D01*
Y11695D01*
X-93799D01*
Y10040D01*
X-88878D01*
Y15158D01*
X-93799D01*
Y13502D01*
X-102083D01*
Y15939D01*
D02*
G37*
G36*
X69390Y12087D02*
X68405D01*
X67454Y11832D01*
X66601Y11339D01*
X65905Y10643D01*
X65412Y9790D01*
X65158Y8839D01*
Y7854D01*
X65412Y6903D01*
X65905Y6050D01*
X66601Y5354D01*
X67454Y4861D01*
X68405Y4606D01*
X69390D01*
X70341Y4861D01*
X71194Y5354D01*
X71890Y6050D01*
X72383Y6903D01*
X72638Y7854D01*
Y8839D01*
X72383Y9790D01*
X71890Y10643D01*
X71194Y11339D01*
X70341Y11832D01*
X69390Y12087D01*
D02*
G37*
G36*
X99153Y-1384D02*
X92972D01*
Y-3821D01*
X84350D01*
Y-2165D01*
X79429D01*
Y-7283D01*
X84350D01*
Y-5628D01*
X92972D01*
Y-8065D01*
X99153D01*
Y-1384D01*
D02*
G37*
G36*
X-92972D02*
X-99153D01*
Y-8065D01*
X-92972D01*
Y-5628D01*
X-84350D01*
Y-7283D01*
X-79429D01*
Y-2165D01*
X-84350D01*
Y-3821D01*
X-92972D01*
Y-1384D01*
D02*
G37*
G36*
X86216Y-17132D02*
X80035D01*
Y-19176D01*
X70177D01*
Y-17913D01*
X65256D01*
Y-23031D01*
X70177D01*
Y-20982D01*
X80035D01*
Y-23813D01*
X86216D01*
Y-17132D01*
D02*
G37*
G36*
X-80035D02*
X-86216D01*
Y-23813D01*
X-80035D01*
Y-21376D01*
X-70964D01*
Y-23031D01*
X-66043D01*
Y-17913D01*
X-70964D01*
Y-19569D01*
X-80035D01*
Y-17132D01*
D02*
G37*
G36*
X73957Y-32880D02*
X67775D01*
Y-35317D01*
X59153D01*
Y-33661D01*
X54232D01*
Y-38780D01*
X59153D01*
Y-37124D01*
X67775D01*
Y-39561D01*
X73957D01*
Y-32880D01*
D02*
G37*
G36*
X-66201D02*
X-72382D01*
Y-39561D01*
X-66201D01*
Y-37124D01*
X-56004D01*
Y-38780D01*
X-51083D01*
Y-33661D01*
X-56004D01*
Y-35317D01*
X-66201D01*
Y-32880D01*
D02*
G37*
G36*
X59784Y-47053D02*
X53602D01*
Y-49490D01*
X44980D01*
Y-47835D01*
X40059D01*
Y-52953D01*
X44980D01*
Y-51297D01*
X53602D01*
Y-53734D01*
X59784D01*
Y-47053D01*
D02*
G37*
G36*
X-52027D02*
X-58209D01*
Y-53734D01*
X-52027D01*
Y-51297D01*
X-43406D01*
Y-52953D01*
X-38484D01*
Y-47835D01*
X-43406D01*
Y-49490D01*
X-52027D01*
Y-47053D01*
D02*
G37*
G36*
X44484Y-62801D02*
X38303D01*
Y-65042D01*
X29232D01*
Y-63386D01*
X24311D01*
Y-68504D01*
X29232D01*
Y-66848D01*
X38303D01*
Y-69482D01*
X44484D01*
Y-62801D01*
D02*
G37*
G36*
X-37854D02*
X-44035D01*
Y-69482D01*
X-37854D01*
Y-67045D01*
X-29232D01*
Y-68701D01*
X-24311D01*
Y-63583D01*
X-29232D01*
Y-65239D01*
X-37854D01*
Y-62801D01*
D02*
G37*
G36*
X31687Y-77673D02*
X25006D01*
Y-80987D01*
X18209D01*
Y-80512D01*
X13287D01*
Y-85630D01*
X18209D01*
Y-82793D01*
X25006D01*
Y-83854D01*
X31687D01*
Y-77673D01*
D02*
G37*
G36*
X-25006Y-77224D02*
X-31687D01*
Y-83405D01*
X-25006D01*
Y-83226D01*
X-18209D01*
Y-85630D01*
X-13287D01*
Y-80512D01*
X-18209D01*
Y-81420D01*
X-25006D01*
Y-77224D01*
D02*
G37*
G36*
X10335Y-80512D02*
X5413D01*
Y-85630D01*
X6971D01*
Y-90272D01*
X4534D01*
Y-96453D01*
X11215D01*
Y-90272D01*
X8777D01*
Y-85630D01*
X10335D01*
Y-80512D01*
D02*
G37*
G36*
X-5413D02*
X-10335D01*
Y-85630D01*
X-8777D01*
Y-90272D01*
X-11215D01*
Y-96453D01*
X-4534D01*
Y-90272D01*
X-6971D01*
Y-85630D01*
X-5413D01*
Y-80512D01*
D02*
G37*
%LPD*%
G36*
X-7350Y7549D02*
X-6890Y7457D01*
X-6429Y7549D01*
X-6324Y7619D01*
X-5824Y7351D01*
Y-49823D01*
X-7493Y-51491D01*
X-7955Y-51300D01*
Y7351D01*
X-7455Y7619D01*
X-7350Y7549D01*
D02*
G37*
D14*
X-2854Y35925D02*
Y44094D01*
Y35925D02*
X-2756Y35827D01*
X-2953Y44193D02*
X-2854Y44094D01*
X63779Y90158D02*
X72835Y99212D01*
X78795D01*
X47638Y73228D02*
Y91146D01*
X45871Y92913D02*
X47638Y91146D01*
X-55173Y91787D02*
X-50000Y86614D01*
Y74016D02*
Y86614D01*
X-55173Y91787D02*
Y100787D01*
X-80764Y99212D02*
X-76378D01*
X-59638Y82472D01*
X-117522Y53006D02*
X-99750D01*
X-80237Y72519D01*
X-117772Y52756D02*
X-117522Y53006D01*
X-86221Y30709D02*
X-52362D01*
X-91338Y25591D02*
X-86221Y30709D01*
X-91338Y18504D02*
Y25591D01*
X-26575Y18701D02*
X-16732D01*
X-40945Y4331D02*
X-26575Y18701D01*
X-40945Y-44488D02*
Y4331D01*
X-26772Y-60236D02*
Y16386D01*
X-26426Y16732D02*
X-16634D01*
X-26772Y16386D02*
X-26426Y16732D01*
X6890Y-12008D02*
X9449Y-14567D01*
X6890Y-12008D02*
Y10827D01*
X9449Y-14567D02*
X67716D01*
X7874Y-30315D02*
X57087D01*
X4921Y-27362D02*
Y10925D01*
Y-27362D02*
X7874Y-30315D01*
X2953Y-39173D02*
Y10827D01*
X6594Y-42815D02*
X40945D01*
X2953Y-39173D02*
X6594Y-42815D01*
X984Y-50984D02*
Y10925D01*
X8380Y-58380D02*
X25197D01*
X984Y-50984D02*
X8380Y-58380D01*
X25197D02*
X26772Y-59954D01*
Y-60630D02*
Y-59954D01*
X15748Y-77165D02*
Y-67717D01*
X-984Y-50984D02*
X15748Y-67717D01*
X-984Y-50984D02*
Y10827D01*
X-7874Y-77165D02*
Y-53150D01*
X-4921Y-50197D02*
Y10925D01*
X-7874Y-53150D02*
X-4921Y-50197D01*
X40945Y-42815D02*
X42520Y-44390D01*
Y-44488D02*
Y-44390D01*
X16732Y18701D02*
X28543D01*
X48031Y38189D02*
Y54772D01*
X28543Y18701D02*
X48031Y38189D01*
X28543Y20669D02*
X46457Y38583D01*
X16732Y20669D02*
X28543D01*
X46457Y38583D02*
Y56347D01*
X16732Y22638D02*
X28150D01*
X45276Y39764D01*
Y57528D01*
X44094Y40551D02*
Y58709D01*
X28150Y24606D02*
X44094Y40551D01*
X16732Y24606D02*
X28150D01*
X28150Y26575D02*
X42913Y41339D01*
X16732Y26575D02*
X28150D01*
X42913Y41339D02*
Y59890D01*
X16634Y28543D02*
X28150D01*
X41732Y42126D02*
Y61071D01*
X28150Y28543D02*
X41732Y42126D01*
X67323Y55118D02*
X89764Y32677D01*
X48031Y54772D02*
X48377Y55118D01*
X67323D01*
X46803Y56693D02*
X68110D01*
X85827Y38976D01*
X46457Y56347D02*
X46803Y56693D01*
X78347Y57874D02*
X80315Y59842D01*
X45276Y57528D02*
X45621Y57874D01*
X78347D01*
X70472Y59055D02*
X72126Y60709D01*
X44440Y59055D02*
X70472D01*
X44094Y58709D02*
X44440Y59055D01*
X62205Y60236D02*
X63937Y61968D01*
X42913Y59890D02*
X43259Y60236D01*
X62205D01*
X55748Y62047D02*
Y68110D01*
X42078Y61417D02*
X55118D01*
X55748Y62047D01*
X41732Y61071D02*
X42078Y61417D01*
X40551Y62205D02*
X41339Y62992D01*
X40551Y42913D02*
Y62205D01*
X41339Y62992D02*
X46457D01*
X63937Y61968D02*
Y68082D01*
X72126Y60709D02*
Y68082D01*
X80315Y59842D02*
Y68082D01*
X84252Y50394D02*
Y56299D01*
X91732Y63779D01*
X105905D01*
X28150Y30512D02*
X40551Y42913D01*
X47244Y63779D02*
Y68110D01*
X46457Y62992D02*
X47244Y63779D01*
X28150Y32480D02*
X39370Y43701D01*
Y68082D01*
X-29134Y105512D02*
X-20472D01*
X-18898Y97638D02*
Y103937D01*
X-20472Y105512D02*
X-18898Y103937D01*
X76378Y92126D02*
X85827D01*
X90551Y87402D01*
X100000D01*
X50394Y80709D02*
Y109843D01*
X27559Y38976D02*
Y69685D01*
X-7087Y17323D02*
X-6890Y17126D01*
Y10925D02*
Y17126D01*
X-34941Y20571D02*
X-16732D01*
X-16634Y20669D01*
X-35039Y20472D02*
X-34941Y20571D01*
X-15945Y20669D02*
X-15748Y20866D01*
X-29134Y26378D02*
X-29035Y26476D01*
X-16732D02*
X-16634Y26575D01*
X-29035Y26476D02*
X-16732D01*
X8268Y62598D02*
X8268D01*
X6299Y64567D02*
X8268Y62598D01*
X2953Y64567D02*
X6299D01*
X-98480Y87401D02*
X-98480Y87402D01*
X-88976D01*
X-7874Y22047D02*
X-1969D01*
X-10827Y19095D02*
X-7874Y22047D01*
X-10827Y10925D02*
Y19095D01*
X16240Y34350D02*
X16535Y34646D01*
X9941Y34350D02*
X16240D01*
X9843Y34252D02*
X9941Y34350D01*
X10827Y44193D02*
Y54527D01*
X16535Y60236D01*
X100787Y33071D02*
X116535D01*
X116535Y33071D01*
X105118Y12598D02*
X105512Y12205D01*
X89764Y12598D02*
X105118D01*
X81890Y-4724D02*
X95282D01*
X67716Y-20472D02*
X68110Y-20079D01*
X81292D01*
X70866Y-36220D02*
X70866Y-36220D01*
X56693Y-36220D02*
X70866D01*
X42520Y-50394D02*
X56693D01*
X42520Y-50394D02*
X42520Y-50394D01*
X26772Y-65945D02*
X41142D01*
X41339Y-66142D01*
X16929Y-81890D02*
X27953D01*
X15748Y-83071D02*
X16929Y-81890D01*
X89764Y18504D02*
Y32677D01*
X85827Y38976D02*
X100787D01*
X16535Y16929D02*
X16732Y16732D01*
X29724D01*
X45276Y1181D01*
X81890D01*
X-2953Y-72638D02*
X1575Y-77165D01*
X7874D01*
X-2953Y-72638D02*
Y10925D01*
X-15748Y-77165D02*
Y-59055D01*
X-8858Y-52165D01*
Y10925D01*
X7874Y-93362D02*
Y-83071D01*
X7480Y-82677D02*
X7874Y-83071D01*
X-7874Y-83465D02*
X-7874Y-83465D01*
X-7874Y-93362D02*
Y-83465D01*
X-26089Y-82323D02*
X-15709D01*
X-15354Y-82677D01*
X-27953Y-80458D02*
Y-79921D01*
Y-80458D02*
X-26089Y-82323D01*
X-28346Y-80315D02*
X-27953Y-79921D01*
X-40945Y-66142D02*
X-26772D01*
X-40945Y-66142D02*
X-40945Y-66142D01*
X-40945Y-50394D02*
X-40551Y-50787D01*
X-55118Y-50394D02*
X-40945D01*
X-53543Y-36220D02*
X-52756D01*
X-69291D02*
X-53543D01*
X-52756D02*
X-52756Y-36220D01*
X-68504Y-20472D02*
X-68110D01*
X-83126D02*
X-68504D01*
X-68110D02*
X-68110Y-20472D01*
X-53543Y-30315D02*
Y11024D01*
X-32087Y32480D01*
X-17126D01*
X-16929Y32677D01*
X-68898Y-14567D02*
X-61811D01*
X-61024Y-13780D01*
Y6693D01*
X-33268Y34449D01*
X-16634D01*
X-96063Y-4724D02*
X-82284D01*
X-96063Y-4724D02*
X-96063Y-4724D01*
X-16732Y36417D02*
X-16535Y36614D01*
X-39173Y36417D02*
X-16732D01*
X-48031Y27559D02*
X-39173Y36417D01*
X-74803Y27559D02*
X-48031D01*
X-81890Y20472D02*
X-74803Y27559D01*
X-81890Y1181D02*
Y20472D01*
X-52362Y30709D02*
X-30709Y52362D01*
X-7236D02*
X-6890Y52016D01*
Y44193D02*
Y52016D01*
X-30709Y52362D02*
X-7236D01*
X-5267Y53543D02*
X-4921Y53197D01*
Y44193D02*
Y53197D01*
X-32283Y53543D02*
X-5267D01*
X-46850Y38976D02*
X-32283Y53543D01*
X-66535Y54724D02*
X-1330D01*
X-984Y44193D02*
Y54378D01*
X-1330Y54724D02*
X-984Y54378D01*
X-74409Y62598D02*
X-66535Y54724D01*
X-134Y55905D02*
X947Y54825D01*
X-59842Y55905D02*
X-134D01*
X947Y44148D02*
Y54825D01*
X-65158Y61221D02*
X-59842Y55905D01*
X2915Y44231D02*
Y55746D01*
X-53543Y57087D02*
X1575D01*
X2915Y55746D01*
X-58268Y61811D02*
X-53543Y57087D01*
X2362Y58268D02*
X4921Y55709D01*
Y44193D02*
Y55709D01*
X-48031Y58268D02*
X2362D01*
X-49606Y59842D02*
X-48031Y58268D01*
X-40945Y61024D02*
X-39370Y59449D01*
X3937D01*
X6890Y56496D01*
Y44193D02*
Y56496D01*
X2915Y44231D02*
X2953Y44193D01*
X-66536Y67913D02*
X-65158Y66536D01*
Y61221D02*
Y66536D01*
X-58268Y61811D02*
Y67323D01*
X-40945Y61024D02*
Y68110D01*
X-49606Y59842D02*
Y67323D01*
X-32677Y63779D02*
Y67913D01*
X8858Y44193D02*
Y56496D01*
X4724Y60630D02*
X8858Y56496D01*
X-32677Y67913D02*
Y68110D01*
X-32283Y72835D02*
X-32283Y72835D01*
X-40945Y78154D02*
X-40359Y78740D01*
X-40945Y73819D02*
Y78154D01*
X-40359Y78740D02*
X-34646D01*
X-26378Y87008D02*
Y92913D01*
X-32283Y72835D02*
X-19685D01*
X-34646Y78740D02*
X-26378Y87008D01*
X-29528Y60630D02*
X4724D01*
X-32677Y63779D02*
X-29528Y60630D01*
X16732Y30512D02*
X28150D01*
X16535Y30709D02*
X16732Y30512D01*
X17323Y32283D02*
X17520Y32480D01*
X28150D01*
X82677Y-20024D02*
X83126Y-20472D01*
X96653Y-4527D02*
X96850Y-4724D01*
X19685Y72835D02*
X38583D01*
X39370Y73622D01*
X42520Y92913D02*
X45871D01*
X55512Y73622D02*
Y99945D01*
X56354Y100787D01*
X63779Y74016D02*
Y90158D01*
X117323Y52756D02*
Y61024D01*
X112205Y66142D02*
X117323Y61024D01*
X96063Y66142D02*
X112205D01*
X72126Y73988D02*
Y84724D01*
X74410Y87008D01*
X85433D01*
X80315Y73988D02*
X88217D01*
X96063Y66142D01*
X85433Y87008D02*
X100900Y71541D01*
X111923D01*
X-100787Y38976D02*
X-46850D01*
X-108268Y72047D02*
X-95275D01*
X-59638Y75287D02*
Y82472D01*
Y75287D02*
X-59153Y74803D01*
X-57874D01*
X-81890Y85433D02*
X-70079D01*
X-67906Y74992D02*
X-66929Y74016D01*
X-70079Y85433D02*
X-67906Y83260D01*
Y74992D02*
Y83260D01*
X-95275Y72047D02*
X-81890Y85433D01*
X-75779Y72519D02*
X-74410Y73889D01*
X-80237Y72519D02*
X-75779D01*
X-74410Y73889D02*
Y74410D01*
X-74409Y62598D02*
Y68082D01*
X-100787Y33071D02*
X-100787Y33071D01*
X-105173Y12598D02*
X-91732D01*
X-117378Y33071D02*
X-100787D01*
X-91732Y12598D02*
X-91732Y12598D01*
D25*
X116535Y33071D02*
D03*
X125536D02*
D03*
X120024Y72047D02*
D03*
X111024D02*
D03*
X98874Y87401D02*
D03*
X107874D02*
D03*
X56354Y100787D02*
D03*
X65354D02*
D03*
X19685Y72835D02*
D03*
X10685D02*
D03*
X83126Y-20472D02*
D03*
X92126D02*
D03*
X96063Y-4724D02*
D03*
X105063D02*
D03*
X114512Y12598D02*
D03*
X105512D02*
D03*
X41394Y-66142D02*
D03*
X50394D02*
D03*
X-126772Y52756D02*
D03*
X-117772D02*
D03*
X87795Y99212D02*
D03*
X78795D02*
D03*
X-89764D02*
D03*
X-80764D02*
D03*
X-98480Y87401D02*
D03*
X-107480D02*
D03*
X-40945Y-66142D02*
D03*
X-49945D02*
D03*
X-26433Y92913D02*
D03*
X-35433D02*
D03*
X79866Y-36220D02*
D03*
X70866D02*
D03*
X33520Y92913D02*
D03*
X42520D02*
D03*
X125929Y52756D02*
D03*
X116929D02*
D03*
X56693Y-50394D02*
D03*
X65693D02*
D03*
X-55118D02*
D03*
X-64118D02*
D03*
X-69291Y-36220D02*
D03*
X-78291D02*
D03*
X-92126Y-20472D02*
D03*
X-83126D02*
D03*
X-105063Y-4724D02*
D03*
X-96063D02*
D03*
X-105173Y12598D02*
D03*
X-114173D02*
D03*
X-117378Y33071D02*
D03*
X-126378D02*
D03*
X-117268Y72047D02*
D03*
X-108268D02*
D03*
X-55173Y100787D02*
D03*
X-64173D02*
D03*
X-10685Y72835D02*
D03*
X-19685D02*
D03*
D26*
X39370Y73988D02*
D03*
Y68082D02*
D03*
X47559Y73988D02*
D03*
Y68082D02*
D03*
X100787Y38976D02*
D03*
Y33071D02*
D03*
X-58268Y73819D02*
D03*
Y67913D02*
D03*
X-66536Y73819D02*
D03*
Y67913D02*
D03*
X-74409Y73988D02*
D03*
Y68082D02*
D03*
X-32677Y73819D02*
D03*
Y67913D02*
D03*
X-40945Y73819D02*
D03*
Y67913D02*
D03*
X-15748Y-83071D02*
D03*
Y-77165D02*
D03*
X-7874D02*
D03*
Y-83071D02*
D03*
X7874Y-77165D02*
D03*
Y-83071D02*
D03*
X15748D02*
D03*
Y-77165D02*
D03*
X42520Y-44488D02*
D03*
Y-50394D02*
D03*
X55748Y68110D02*
D03*
Y74016D02*
D03*
X63937Y68082D02*
D03*
Y73988D02*
D03*
X72126Y68082D02*
D03*
Y73988D02*
D03*
X80315Y68082D02*
D03*
Y73988D02*
D03*
X-49606Y67913D02*
D03*
Y73819D02*
D03*
X-100787Y38976D02*
D03*
Y33071D02*
D03*
X-68504Y-14567D02*
D03*
Y-20472D02*
D03*
X89764Y12598D02*
D03*
Y18504D02*
D03*
X67716Y-20472D02*
D03*
Y-14567D02*
D03*
X-91338Y12598D02*
D03*
Y18504D02*
D03*
X81890Y-4724D02*
D03*
X56693Y-36220D02*
D03*
X26772Y-65945D02*
D03*
X-26772Y-66142D02*
D03*
X-53543Y-36220D02*
D03*
X-40945Y-50394D02*
D03*
X-81890Y-4724D02*
D03*
X-40945Y-44488D02*
D03*
X81890Y1181D02*
D03*
X56693Y-30315D02*
D03*
X26772Y-60039D02*
D03*
X-26772Y-60236D02*
D03*
X-53543Y-30315D02*
D03*
X-81890Y1181D02*
D03*
D27*
X2953Y64567D02*
D03*
X-2953D02*
D03*
D28*
X7874Y-93362D02*
D03*
Y-102362D02*
D03*
X-7874Y-93362D02*
D03*
Y-102362D02*
D03*
X-28346Y-89315D02*
D03*
Y-80315D02*
D03*
X28346Y-80764D02*
D03*
Y-89764D02*
D03*
D29*
X-16634Y38386D02*
D03*
Y22638D02*
D03*
X16634Y38386D02*
D03*
X-16634Y26575D02*
D03*
Y24606D02*
D03*
X16634Y36417D02*
D03*
X-16634D02*
D03*
Y34449D02*
D03*
Y32480D02*
D03*
Y30512D02*
D03*
Y28543D02*
D03*
Y20669D02*
D03*
Y18701D02*
D03*
Y16732D02*
D03*
X16634D02*
D03*
Y18701D02*
D03*
Y20669D02*
D03*
Y22638D02*
D03*
Y24606D02*
D03*
Y26575D02*
D03*
Y28543D02*
D03*
Y30512D02*
D03*
Y32480D02*
D03*
Y34449D02*
D03*
D30*
X10827Y10925D02*
D03*
X-10827Y44193D02*
D03*
X8858Y10925D02*
D03*
X-8858Y44193D02*
D03*
X-10827Y10925D02*
D03*
X-8858D02*
D03*
X-6890D02*
D03*
X-4921D02*
D03*
X-2953D02*
D03*
X-984D02*
D03*
X984D02*
D03*
X2953D02*
D03*
X4921D02*
D03*
X6890D02*
D03*
X10827Y44193D02*
D03*
X8858D02*
D03*
X6890D02*
D03*
X4921D02*
D03*
X2953D02*
D03*
X984D02*
D03*
X-984D02*
D03*
X-2953D02*
D03*
X-4921D02*
D03*
X-6890D02*
D03*
D31*
X-133016Y-4724D02*
Y112248D01*
X-64961Y113401D02*
X10575D01*
X33520D02*
X87795D01*
X114512Y12598D02*
X134252D01*
X134252Y-110996D02*
Y-36220D01*
Y12598D01*
Y52756D02*
Y87402D01*
X28008Y-112150D02*
X133099D01*
X134252Y-110996D01*
X105063Y-4724D02*
X105063Y-4724D01*
X133465D01*
X134252Y87402D02*
Y112248D01*
X134252Y87401D02*
X134252Y87402D01*
X107874Y87401D02*
X134252D01*
X133071Y-66142D02*
X133858Y-66929D01*
X65693Y-50394D02*
X134646D01*
X50394Y-66142D02*
X133071D01*
X87795Y113401D02*
X133099D01*
X134252Y112248D01*
Y33071D02*
Y52756D01*
X125536Y33071D02*
X134252D01*
Y12598D02*
Y33071D01*
X-10685Y113331D02*
X-10630Y113386D01*
X-10685Y72835D02*
Y113331D01*
X-35433Y92913D02*
Y113863D01*
X-133016Y112248D02*
X-131863Y113401D01*
X-89764Y99212D02*
Y113401D01*
X-64961Y101575D02*
Y113401D01*
X-131863D02*
X-89764D01*
X-64961D01*
X87795Y99212D02*
Y113401D01*
X33520Y92913D02*
Y113401D01*
X10575D02*
X33520D01*
X120024Y72047D02*
Y78685D01*
X120079Y78740D01*
X124409Y5906D02*
Y12598D01*
X10236Y72835D02*
X10575Y73173D01*
X-132677Y88189D02*
X-108268D01*
X-107480Y87401D01*
X-117661Y72441D02*
X-117268Y72047D01*
X-132283Y72441D02*
X-117661D01*
X65354Y100787D02*
Y113346D01*
X-133016Y-65803D02*
X-132677Y-66142D01*
X-133016Y-65803D02*
Y-50787D01*
Y-110535D02*
Y-65803D01*
X-132677Y-66142D02*
X-49945D01*
X-133016Y-50787D02*
Y-36559D01*
Y-50787D02*
X-64512D01*
X-64118Y-50394D01*
X-133016Y-36559D02*
X-132677Y-36220D01*
X-133016Y-36559D02*
Y-19685D01*
X-132677Y-36220D02*
X-78291D01*
X-133016Y-19685D02*
Y-4724D01*
Y-19685D02*
X-92913D01*
X-92126Y-20472D01*
X-133016Y-4724D02*
X-105063D01*
X-132677Y12598D02*
X-132677Y12598D01*
X-114173D01*
X-132283Y33071D02*
X-126378D01*
X-132283Y33071D02*
X-132283Y33071D01*
X-131890Y52756D02*
X-126772D01*
X-132677Y53543D02*
X-131890Y52756D01*
X-64961Y101575D02*
X-64173Y100787D01*
X-28346Y-112150D02*
X-7874D01*
X-131401D02*
X-28346D01*
Y-89315D01*
X-7874Y-112150D02*
X7874D01*
X-7874D02*
Y-102362D01*
X-7874Y-102362D02*
X-7874Y-102362D01*
X7874Y-112150D02*
X28008D01*
X7874D02*
Y-102362D01*
X28008Y-112150D02*
X28346Y-111811D01*
Y-89764D01*
X79866Y-36220D02*
X134252D01*
X134252Y-36220D01*
X92126Y-20472D02*
X92913Y-21260D01*
X133858D01*
X134252Y12598D02*
X134252Y12598D01*
X120024Y72047D02*
X133071D01*
X133465Y71653D01*
X125929Y52756D02*
X134252D01*
X107874Y87401D02*
X108268Y87795D01*
X10575Y73173D02*
Y113401D01*
X-133016Y-110535D02*
X-131401Y-112150D01*
D32*
X-10827Y23425D02*
Y38976D01*
X-11614Y22638D02*
X-10827Y23425D01*
Y38976D02*
Y44193D01*
X-11271Y38335D02*
X-11103Y38229D01*
X5315Y22149D02*
Y25984D01*
X-10630D02*
X5315D01*
Y37694D01*
X6007Y38386D02*
X16634D01*
X12205Y64173D02*
X22930D01*
X23622Y39078D02*
Y63481D01*
X16634Y38386D02*
X22930D01*
X23622Y39078D01*
X22930Y64173D02*
X23622Y63481D01*
X10685Y65693D02*
X12205Y64173D01*
X10685Y65693D02*
Y72835D01*
X-16634Y38386D02*
X-11322D01*
X-16634Y22638D02*
X-11614D01*
X10827Y10925D02*
Y20669D01*
X10040Y21457D02*
X10827Y20669D01*
X6007Y21457D02*
X10040D01*
X5315Y22149D02*
X6007Y21457D01*
X5315Y37694D02*
X6007Y38386D01*
D33*
X68898Y8347D02*
D03*
Y18347D02*
D03*
Y28346D02*
D03*
D34*
Y38346D02*
D03*
D35*
X-2756Y35827D02*
D03*
X84252Y50394D02*
D03*
X-18898Y97638D02*
D03*
X-29134Y105512D02*
D03*
X76378Y92126D02*
D03*
X50394Y80709D02*
D03*
Y109843D02*
D03*
X27559Y69685D02*
D03*
X-7087Y17323D02*
D03*
X-35039Y20472D02*
D03*
X105905Y63779D02*
D03*
X-29134Y26378D02*
D03*
X8268Y62598D02*
D03*
X27559Y38976D02*
D03*
X-88976Y87402D02*
D03*
X-1969Y22047D02*
D03*
X9843Y34252D02*
D03*
X16535Y60236D02*
D03*
D36*
X120079Y78740D02*
D03*
X124409Y5906D02*
D03*
M02*
