M48
;Layer_Color=9474304
;FILE_FORMAT=2:4
INCH,TZ
;TYPE=PLATED
T1F00S00C0.0118
T2F00S00C0.0157
T3F00S00C0.0276
T4F00S00C0.0315
%
T01
X-3504Y2047
X-2913Y2638
Y10551
X-1890Y9764
X827Y6260
X1654Y6024
X2756Y6969
X5039Y8071
Y10984
X7638Y9213
X8425Y5039
X10591Y6378
X984Y3425
X-276Y3583
X-709Y1732
T02
X-8898Y8740
X-197Y2205
X2756Y3898
T03
X12441Y591
X12008Y7874
T04
X6890Y835
Y1835
Y2835
Y3835
M30
