G04*
G04 #@! TF.GenerationSoftware,Altium Limited,Altium Designer,21.9.2 (33)*
G04*
G04 Layer_Color=16711935*
%FSLAX25Y25*%
%MOIN*%
G70*
G04*
G04 #@! TF.SameCoordinates,16876C39-77F7-4B8B-AB46-175668DC8D83*
G04*
G04*
G04 #@! TF.FilePolarity,Positive*
G04*
G01*
G75*
%ADD96C,0.00394*%
%ADD97R,0.11496X0.02436*%
%ADD98R,0.02436X0.11496*%
D96*
X328205Y326736D02*
X327941Y327720D01*
X327221Y328441D01*
X326236Y328705D01*
X325252Y328441D01*
X324531Y327720D01*
X324268Y326736D01*
X324531Y325752D01*
X325252Y325031D01*
X326236Y324768D01*
X327221Y325031D01*
X327941Y325752D01*
X328205Y326736D01*
X302221Y302720D02*
Y330279D01*
X329780Y302720D02*
Y330279D01*
X302221Y302720D02*
X329780D01*
X302221Y330279D02*
X329780D01*
X441252Y349945D02*
Y368055D01*
X452748Y349945D02*
Y368055D01*
X441252Y349945D02*
X452748D01*
X441252Y368055D02*
X452748D01*
X424248Y264945D02*
Y283055D01*
X412752Y264945D02*
Y283055D01*
X424248D01*
X412752Y264945D02*
X424248D01*
X513752Y349445D02*
Y367555D01*
X525248Y349445D02*
Y367555D01*
X513752Y349445D02*
X525248D01*
X513752Y367555D02*
X525248D01*
X250811Y390717D02*
Y405283D01*
X277189Y390717D02*
Y405283D01*
X250811Y390717D02*
X277189D01*
X250811Y405283D02*
X277189D01*
X220445Y440748D02*
X238555D01*
X220445Y429252D02*
X238555D01*
X220445D02*
Y440748D01*
X238555Y429252D02*
Y440748D01*
D97*
X447000Y351163D02*
D03*
X418500Y281837D02*
D03*
X519500Y350663D02*
D03*
D98*
X221663Y435000D02*
D03*
M02*
