G04*
G04 #@! TF.GenerationSoftware,Altium Limited,Altium Designer,21.9.2 (33)*
G04*
G04 Layer_Color=32768*
%FSLAX25Y25*%
%MOIN*%
G70*
G04*
G04 #@! TF.SameCoordinates,16876C39-77F7-4B8B-AB46-175668DC8D83*
G04*
G04*
G04 #@! TF.FilePolarity,Positive*
G04*
G01*
G75*
%ADD96C,0.00394*%
%ADD99C,0.00197*%
D96*
X314032Y316500D02*
X317969D01*
X316000Y314531D02*
Y318468D01*
X445031Y359000D02*
X448969D01*
X447000Y357031D02*
Y360968D01*
X416532Y274000D02*
X420469D01*
X418500Y272031D02*
Y275969D01*
X517531Y358500D02*
X521468D01*
X519500Y356532D02*
Y360469D01*
X262032Y398000D02*
X265968D01*
X264000Y396031D02*
Y399969D01*
X249827Y380874D02*
Y415126D01*
X278173Y380874D02*
Y415126D01*
X249827Y380874D02*
X278173D01*
X249827Y415126D02*
X278173D01*
X229500Y433032D02*
Y436969D01*
X227532Y435000D02*
X231469D01*
D99*
X295528Y296028D02*
Y336972D01*
X336472Y296028D02*
Y336972D01*
X295528Y296028D02*
X336472D01*
X295528Y336972D02*
X336472D01*
X440110Y345000D02*
Y373000D01*
X453890Y345000D02*
Y373000D01*
X440110Y345000D02*
X453890D01*
X440110Y373000D02*
X453890D01*
X425390Y260000D02*
Y288000D01*
X411610Y260000D02*
Y288000D01*
X425390D01*
X411610Y260000D02*
X425390D01*
X512610Y344500D02*
Y372500D01*
X526390Y344500D02*
Y372500D01*
X512610Y344500D02*
X526390D01*
X512610Y372500D02*
X526390D01*
X215500Y441890D02*
X243500D01*
X215500Y428110D02*
X243500D01*
X215500D02*
Y441890D01*
X243500Y428110D02*
Y441890D01*
M02*
