G04*
G04 #@! TF.GenerationSoftware,Altium Limited,Altium Designer,21.9.2 (33)*
G04*
G04 Layer_Physical_Order=2*
G04 Layer_Color=16711680*
%FSLAX25Y25*%
%MOIN*%
G70*
G04*
G04 #@! TF.SameCoordinates,16876C39-77F7-4B8B-AB46-175668DC8D83*
G04*
G04*
G04 #@! TF.FilePolarity,Positive*
G04*
G01*
G75*
%ADD15C,0.01000*%
%ADD68C,0.02000*%
%ADD69C,0.06000*%
%ADD70O,0.10000X0.06600*%
%ADD71C,0.05984*%
%ADD72R,0.05984X0.05984*%
%ADD73C,0.06299*%
%ADD74R,0.06299X0.06299*%
%ADD75C,0.05906*%
%ADD76R,0.05906X0.05906*%
%ADD77R,0.06299X0.06299*%
%ADD78C,0.12000*%
%ADD79R,0.06200X0.09000*%
%ADD80O,0.06200X0.09000*%
%ADD81C,0.07500*%
%ADD82R,0.10000X0.16000*%
%ADD83R,0.16000X0.10000*%
%ADD84C,0.03775*%
%ADD85C,0.01575*%
%ADD86C,0.02756*%
%ADD87C,0.02362*%
%ADD88C,0.02575*%
%ADD89C,0.01968*%
G36*
X527993Y164007D02*
X144757D01*
X144757Y503250D01*
X144604Y504018D01*
X144507Y504164D01*
Y506493D01*
X527993D01*
X527993Y164007D01*
D02*
G37*
%LPC*%
G36*
X500634Y495134D02*
X492366D01*
Y486866D01*
X500634D01*
Y495134D01*
D02*
G37*
G36*
X487044D02*
X485956D01*
X484904Y494852D01*
X483962Y494308D01*
X483192Y493538D01*
X482648Y492596D01*
X482366Y491544D01*
Y490456D01*
X482648Y489404D01*
X483192Y488462D01*
X483962Y487692D01*
X484904Y487148D01*
X485956Y486866D01*
X487044D01*
X488096Y487148D01*
X489038Y487692D01*
X489808Y488462D01*
X490352Y489404D01*
X490634Y490456D01*
Y491544D01*
X490352Y492596D01*
X489808Y493538D01*
X489038Y494308D01*
X488096Y494852D01*
X487044Y495134D01*
D02*
G37*
G36*
X465884D02*
X457616D01*
Y486866D01*
X465884D01*
Y495134D01*
D02*
G37*
G36*
X452294D02*
X451206D01*
X450154Y494852D01*
X449212Y494308D01*
X448442Y493538D01*
X447898Y492596D01*
X447616Y491544D01*
Y490456D01*
X447898Y489404D01*
X448442Y488462D01*
X449212Y487692D01*
X450154Y487148D01*
X451206Y486866D01*
X452294D01*
X453346Y487148D01*
X454288Y487692D01*
X455058Y488462D01*
X455602Y489404D01*
X455884Y490456D01*
Y491544D01*
X455602Y492596D01*
X455058Y493538D01*
X454288Y494308D01*
X453346Y494852D01*
X452294Y495134D01*
D02*
G37*
G36*
X431134D02*
X422866D01*
Y486866D01*
X431134D01*
Y495134D01*
D02*
G37*
G36*
X417544D02*
X416456D01*
X415404Y494852D01*
X414462Y494308D01*
X413692Y493538D01*
X413148Y492596D01*
X412866Y491544D01*
Y490456D01*
X413148Y489404D01*
X413692Y488462D01*
X414462Y487692D01*
X415404Y487148D01*
X416456Y486866D01*
X417544D01*
X418596Y487148D01*
X419538Y487692D01*
X420308Y488462D01*
X420852Y489404D01*
X421134Y490456D01*
Y491544D01*
X420852Y492596D01*
X420308Y493538D01*
X419538Y494308D01*
X418596Y494852D01*
X417544Y495134D01*
D02*
G37*
G36*
X180000Y486500D02*
X174500D01*
Y478000D01*
X180000D01*
Y486500D01*
D02*
G37*
G36*
X173500D02*
X168000D01*
Y478000D01*
X173500D01*
Y486500D01*
D02*
G37*
G36*
X204984Y486484D02*
X193016D01*
Y468516D01*
X204984D01*
Y486484D01*
D02*
G37*
G36*
X180000Y477000D02*
X174500D01*
Y468500D01*
X180000D01*
Y477000D01*
D02*
G37*
G36*
X173500D02*
X168000D01*
Y468500D01*
X173500D01*
Y477000D01*
D02*
G37*
G36*
X295000Y465654D02*
Y464000D01*
X296654D01*
X296349Y464736D01*
X295736Y465349D01*
X295000Y465654D01*
D02*
G37*
G36*
X294000D02*
X293265Y465349D01*
X292651Y464736D01*
X292346Y464000D01*
X294000D01*
Y465654D01*
D02*
G37*
G36*
X296654Y463000D02*
X295000D01*
Y461346D01*
X295736Y461651D01*
X296349Y462264D01*
X296654Y463000D01*
D02*
G37*
G36*
X294000D02*
X292346D01*
X292651Y462264D01*
X293265Y461651D01*
X294000Y461346D01*
Y463000D01*
D02*
G37*
G36*
X198000Y463500D02*
X189500D01*
Y458000D01*
X198000D01*
Y463500D01*
D02*
G37*
G36*
X188500D02*
X180000D01*
Y458000D01*
X188500D01*
Y463500D01*
D02*
G37*
G36*
X198000Y457000D02*
X189500D01*
Y451500D01*
X198000D01*
Y457000D01*
D02*
G37*
G36*
X188500D02*
X180000D01*
Y451500D01*
X188500D01*
Y457000D01*
D02*
G37*
G36*
X516688Y453984D02*
X515312D01*
X513963Y453716D01*
X512692Y453189D01*
X511548Y452425D01*
X510575Y451452D01*
X509811Y450308D01*
X509284Y449037D01*
X509016Y447688D01*
Y446312D01*
X509284Y444963D01*
X509811Y443692D01*
X510575Y442548D01*
X511548Y441575D01*
X512692Y440811D01*
X513963Y440284D01*
X515312Y440016D01*
X516688D01*
X518037Y440284D01*
X519308Y440811D01*
X520452Y441575D01*
X521425Y442548D01*
X522189Y443692D01*
X522716Y444963D01*
X522984Y446312D01*
Y447688D01*
X522716Y449037D01*
X522189Y450308D01*
X521425Y451452D01*
X520452Y452425D01*
X519308Y453189D01*
X518037Y453716D01*
X516688Y453984D01*
D02*
G37*
G36*
X468688D02*
X467312D01*
X465963Y453716D01*
X464692Y453189D01*
X463548Y452425D01*
X462575Y451452D01*
X461811Y450308D01*
X461284Y449037D01*
X461016Y447688D01*
Y446312D01*
X461284Y444963D01*
X461811Y443692D01*
X462575Y442548D01*
X463548Y441575D01*
X464692Y440811D01*
X465963Y440284D01*
X467312Y440016D01*
X468688D01*
X470037Y440284D01*
X471308Y440811D01*
X472452Y441575D01*
X473425Y442548D01*
X474189Y443692D01*
X474716Y444963D01*
X474984Y446312D01*
Y447688D01*
X474716Y449037D01*
X474189Y450308D01*
X473425Y451452D01*
X472452Y452425D01*
X471308Y453189D01*
X470037Y453716D01*
X468688Y453984D01*
D02*
G37*
G36*
X445188D02*
X443812D01*
X442463Y453716D01*
X441192Y453189D01*
X440048Y452425D01*
X439075Y451452D01*
X438311Y450308D01*
X437784Y449037D01*
X437516Y447688D01*
Y446312D01*
X437784Y444963D01*
X438311Y443692D01*
X439075Y442548D01*
X440048Y441575D01*
X441192Y440811D01*
X442463Y440284D01*
X443812Y440016D01*
X445188D01*
X446537Y440284D01*
X447808Y440811D01*
X448952Y441575D01*
X449925Y442548D01*
X450689Y443692D01*
X451216Y444963D01*
X451484Y446312D01*
Y447688D01*
X451216Y449037D01*
X450689Y450308D01*
X449925Y451452D01*
X448952Y452425D01*
X447808Y453189D01*
X446537Y453716D01*
X445188Y453984D01*
D02*
G37*
G36*
X397188D02*
X395812D01*
X394463Y453716D01*
X393192Y453189D01*
X392048Y452425D01*
X391075Y451452D01*
X390311Y450308D01*
X389784Y449037D01*
X389516Y447688D01*
Y446312D01*
X389784Y444963D01*
X390311Y443692D01*
X391075Y442548D01*
X392048Y441575D01*
X393192Y440811D01*
X394463Y440284D01*
X395812Y440016D01*
X397188D01*
X398537Y440284D01*
X399808Y440811D01*
X400952Y441575D01*
X401925Y442548D01*
X402689Y443692D01*
X403216Y444963D01*
X403484Y446312D01*
Y447688D01*
X403216Y449037D01*
X402689Y450308D01*
X401925Y451452D01*
X400952Y452425D01*
X399808Y453189D01*
X398537Y453716D01*
X397188Y453984D01*
D02*
G37*
G36*
X188623Y422734D02*
X187377D01*
X186173Y422412D01*
X185093Y421788D01*
X184212Y420907D01*
X183588Y419827D01*
X183266Y418623D01*
Y417377D01*
X183588Y416173D01*
X184212Y415093D01*
X185093Y414212D01*
X186173Y413588D01*
X187377Y413266D01*
X188623D01*
X189827Y413588D01*
X190907Y414212D01*
X191788Y415093D01*
X192412Y416173D01*
X192734Y417377D01*
Y418623D01*
X192412Y419827D01*
X191788Y420907D01*
X190907Y421788D01*
X189827Y422412D01*
X188623Y422734D01*
D02*
G37*
G36*
X163623D02*
X162377D01*
X161173Y422412D01*
X160093Y421788D01*
X159212Y420907D01*
X158588Y419827D01*
X158266Y418623D01*
Y417377D01*
X158588Y416173D01*
X159212Y415093D01*
X160093Y414212D01*
X161173Y413588D01*
X162377Y413266D01*
X163623D01*
X164827Y413588D01*
X165907Y414212D01*
X166788Y415093D01*
X167412Y416173D01*
X167734Y417377D01*
Y418623D01*
X167412Y419827D01*
X166788Y420907D01*
X165907Y421788D01*
X164827Y422412D01*
X163623Y422734D01*
D02*
G37*
G36*
X188625Y402750D02*
X188500D01*
Y398500D01*
X192750D01*
Y398625D01*
X192426Y399833D01*
X191801Y400917D01*
X190917Y401801D01*
X189833Y402426D01*
X188625Y402750D01*
D02*
G37*
G36*
X163625D02*
X163500D01*
Y398500D01*
X167750D01*
Y398625D01*
X167426Y399833D01*
X166801Y400917D01*
X165917Y401801D01*
X164833Y402426D01*
X163625Y402750D01*
D02*
G37*
G36*
X187500D02*
X187375D01*
X186167Y402426D01*
X185083Y401801D01*
X184199Y400917D01*
X183574Y399833D01*
X183250Y398625D01*
Y398500D01*
X187500D01*
Y402750D01*
D02*
G37*
G36*
X162500D02*
X162375D01*
X161167Y402426D01*
X160083Y401801D01*
X159199Y400917D01*
X158574Y399833D01*
X158250Y398625D01*
Y398500D01*
X162500D01*
Y402750D01*
D02*
G37*
G36*
X276000Y436023D02*
X270000D01*
X269226Y435869D01*
X268569Y435431D01*
X253569Y420431D01*
X253131Y419774D01*
X252977Y419000D01*
Y400000D01*
X253031Y399725D01*
Y399608D01*
X253076Y399500D01*
X253131Y399226D01*
X253286Y398993D01*
X253331Y398885D01*
X253414Y398802D01*
X253569Y398569D01*
X253802Y398414D01*
X253885Y398331D01*
X253993Y398286D01*
X254226Y398131D01*
X254500Y398076D01*
X254608Y398031D01*
X254725D01*
X255000Y397977D01*
X255275Y398031D01*
X255392D01*
X255500Y398076D01*
X255774Y398131D01*
X256007Y398286D01*
X256115Y398331D01*
X256198Y398414D01*
X256431Y398569D01*
X256586Y398802D01*
X256669Y398885D01*
X256714Y398993D01*
X256869Y399226D01*
X256924Y399500D01*
X256968Y399608D01*
Y399725D01*
X257023Y400000D01*
Y418162D01*
X270838Y431977D01*
X276000D01*
X276275Y432031D01*
X276392D01*
X276500Y432076D01*
X276774Y432131D01*
X277007Y432286D01*
X277115Y432331D01*
X277198Y432414D01*
X277431Y432569D01*
X277586Y432802D01*
X277669Y432885D01*
X277714Y432993D01*
X277869Y433226D01*
X277924Y433500D01*
X277969Y433608D01*
Y433725D01*
X278023Y434000D01*
X277969Y434275D01*
Y434392D01*
X277924Y434500D01*
X277869Y434774D01*
X277714Y435007D01*
X277669Y435115D01*
X277586Y435198D01*
X277431Y435431D01*
X277198Y435586D01*
X277115Y435669D01*
X277007Y435714D01*
X276774Y435869D01*
X276500Y435924D01*
X276392Y435968D01*
X276275D01*
X276000Y436023D01*
D02*
G37*
G36*
X233500Y397654D02*
Y396000D01*
X235154D01*
X234849Y396736D01*
X234236Y397349D01*
X233500Y397654D01*
D02*
G37*
G36*
X232500D02*
X231765Y397349D01*
X231151Y396736D01*
X230846Y396000D01*
X232500D01*
Y397654D01*
D02*
G37*
G36*
X235154Y395000D02*
X233500D01*
Y393346D01*
X234236Y393651D01*
X234849Y394265D01*
X235154Y395000D01*
D02*
G37*
G36*
X232500D02*
X230846D01*
X231151Y394265D01*
X231765Y393651D01*
X232500Y393346D01*
Y395000D01*
D02*
G37*
G36*
X192750Y397500D02*
X188500D01*
Y393250D01*
X188625D01*
X189833Y393574D01*
X190917Y394199D01*
X191801Y395083D01*
X192426Y396167D01*
X192750Y397375D01*
Y397500D01*
D02*
G37*
G36*
X187500D02*
X183250D01*
Y397375D01*
X183574Y396167D01*
X184199Y395083D01*
X185083Y394199D01*
X186167Y393574D01*
X187375Y393250D01*
X187500D01*
Y397500D01*
D02*
G37*
G36*
X167750D02*
X163500D01*
Y393250D01*
X163625D01*
X164833Y393574D01*
X165917Y394199D01*
X166801Y395083D01*
X167426Y396167D01*
X167750Y397375D01*
Y397500D01*
D02*
G37*
G36*
X162500D02*
X158250D01*
Y397375D01*
X158574Y396167D01*
X159199Y395083D01*
X160083Y394199D01*
X161167Y393574D01*
X162375Y393250D01*
X162500D01*
Y397500D01*
D02*
G37*
G36*
X515932Y405953D02*
X514556D01*
X513207Y405684D01*
X511936Y405158D01*
X510792Y404393D01*
X509819Y403421D01*
X509055Y402277D01*
X508528Y401006D01*
X508260Y399656D01*
Y398281D01*
X508528Y396931D01*
X509055Y395660D01*
X509819Y394516D01*
X510792Y393544D01*
X511936Y392779D01*
X513207Y392253D01*
X514556Y391984D01*
X515932D01*
X517281Y392253D01*
X518552Y392779D01*
X519696Y393544D01*
X520669Y394516D01*
X521433Y395660D01*
X521960Y396931D01*
X522228Y398281D01*
Y399656D01*
X521960Y401006D01*
X521433Y402277D01*
X520669Y403421D01*
X519696Y404393D01*
X518552Y405158D01*
X517281Y405684D01*
X515932Y405953D01*
D02*
G37*
G36*
X468688D02*
X467312D01*
X465963Y405684D01*
X464692Y405158D01*
X463548Y404393D01*
X462575Y403421D01*
X461811Y402277D01*
X461284Y401006D01*
X461016Y399656D01*
Y398281D01*
X461284Y396931D01*
X461811Y395660D01*
X462575Y394516D01*
X463548Y393544D01*
X464692Y392779D01*
X465963Y392253D01*
X467312Y391984D01*
X468688D01*
X470037Y392253D01*
X471308Y392779D01*
X472452Y393544D01*
X473425Y394516D01*
X474189Y395660D01*
X474716Y396931D01*
X474984Y398281D01*
Y399656D01*
X474716Y401006D01*
X474189Y402277D01*
X473425Y403421D01*
X472452Y404393D01*
X471308Y405158D01*
X470037Y405684D01*
X468688Y405953D01*
D02*
G37*
G36*
X444432D02*
X443056D01*
X441707Y405684D01*
X440436Y405158D01*
X439292Y404393D01*
X438319Y403421D01*
X437555Y402277D01*
X437028Y401006D01*
X436760Y399656D01*
Y398281D01*
X437028Y396931D01*
X437555Y395660D01*
X438319Y394516D01*
X439292Y393544D01*
X440436Y392779D01*
X441707Y392253D01*
X443056Y391984D01*
X444432D01*
X445781Y392253D01*
X447052Y392779D01*
X448196Y393544D01*
X449169Y394516D01*
X449933Y395660D01*
X450460Y396931D01*
X450728Y398281D01*
Y399656D01*
X450460Y401006D01*
X449933Y402277D01*
X449169Y403421D01*
X448196Y404393D01*
X447052Y405158D01*
X445781Y405684D01*
X444432Y405953D01*
D02*
G37*
G36*
X397188D02*
X395812D01*
X394463Y405684D01*
X393192Y405158D01*
X392048Y404393D01*
X391075Y403421D01*
X390311Y402277D01*
X389784Y401006D01*
X389516Y399656D01*
Y398281D01*
X389784Y396931D01*
X390311Y395660D01*
X391075Y394516D01*
X392048Y393544D01*
X393192Y392779D01*
X394463Y392253D01*
X395812Y391984D01*
X397188D01*
X398537Y392253D01*
X399808Y392779D01*
X400952Y393544D01*
X401925Y394516D01*
X402689Y395660D01*
X403216Y396931D01*
X403484Y398281D01*
Y399656D01*
X403216Y401006D01*
X402689Y402277D01*
X401925Y403421D01*
X400952Y404393D01*
X399808Y405158D01*
X398537Y405684D01*
X397188Y405953D01*
D02*
G37*
G36*
X480000Y416019D02*
X430500D01*
X429460Y415882D01*
X428491Y415480D01*
X427658Y414842D01*
X417158Y404342D01*
X416520Y403509D01*
X416118Y402540D01*
X415981Y401500D01*
Y396728D01*
X415670Y396519D01*
X414697Y395547D01*
X413933Y394403D01*
X413406Y393132D01*
X413138Y391782D01*
Y390407D01*
X413406Y389057D01*
X413933Y387786D01*
X414697Y386642D01*
X415670Y385669D01*
X416814Y384905D01*
X418085Y384379D01*
X419434Y384110D01*
X420810D01*
X422159Y384379D01*
X423430Y384905D01*
X424574Y385669D01*
X425547Y386642D01*
X426311Y387786D01*
X426838Y389057D01*
X427106Y390407D01*
Y391782D01*
X426838Y393132D01*
X426311Y394403D01*
X425547Y395547D01*
X424574Y396519D01*
X424019Y396891D01*
Y399835D01*
X432165Y407981D01*
X478335D01*
X486455Y399861D01*
Y395805D01*
X486197Y395547D01*
X485433Y394403D01*
X484906Y393132D01*
X484638Y391782D01*
Y390407D01*
X484906Y389057D01*
X485433Y387786D01*
X486197Y386642D01*
X487170Y385669D01*
X488314Y384905D01*
X489585Y384379D01*
X490934Y384110D01*
X492310D01*
X493659Y384379D01*
X494930Y384905D01*
X496074Y385669D01*
X497047Y386642D01*
X497811Y387786D01*
X498338Y389057D01*
X498606Y390407D01*
Y391782D01*
X498338Y393132D01*
X497811Y394403D01*
X497047Y395547D01*
X496074Y396519D01*
X494930Y397284D01*
X494493Y397465D01*
Y401526D01*
X494356Y402566D01*
X493954Y403535D01*
X493316Y404368D01*
X482842Y414842D01*
X482009Y415480D01*
X481040Y415882D01*
X480000Y416019D01*
D02*
G37*
G36*
X203352Y401272D02*
X202648D01*
X201996Y401002D01*
X201498Y400504D01*
X201228Y399852D01*
Y399148D01*
X201487Y398524D01*
Y389500D01*
X201487Y389500D01*
X201602Y388921D01*
X201930Y388430D01*
X206430Y383930D01*
X206921Y383602D01*
X207500Y383487D01*
X207500Y383487D01*
X283541D01*
X283819Y383071D01*
X283728Y382852D01*
Y382148D01*
X283998Y381496D01*
X284496Y380998D01*
X285148Y380728D01*
X285852D01*
X286476Y380987D01*
X403008D01*
X403496Y380498D01*
X404148Y380228D01*
X404852D01*
X405504Y380498D01*
X406002Y380996D01*
X406272Y381648D01*
Y382352D01*
X406002Y383004D01*
X405504Y383502D01*
X404852Y383772D01*
X404613D01*
X404424Y383898D01*
X403844Y384013D01*
X403844Y384013D01*
X293459D01*
X293181Y384429D01*
X293272Y384648D01*
Y385352D01*
X293002Y386004D01*
X292504Y386502D01*
X291852Y386772D01*
X291148D01*
X290524Y386513D01*
X208127D01*
X204513Y390127D01*
Y398524D01*
X204772Y399148D01*
Y399852D01*
X204502Y400504D01*
X204004Y401002D01*
X203352Y401272D01*
D02*
G37*
G36*
X486852Y379272D02*
X486148D01*
X485524Y379013D01*
X279976D01*
X279352Y379272D01*
X278648D01*
X277996Y379002D01*
X277498Y378504D01*
X277228Y377852D01*
Y377148D01*
X277498Y376496D01*
X277971Y376023D01*
X277962Y375897D01*
X277836Y375523D01*
X275549D01*
X274775Y375369D01*
X274118Y374931D01*
X273211Y374023D01*
X264774D01*
X264431Y374165D01*
X263569D01*
X262773Y373836D01*
X262164Y373227D01*
X261835Y372431D01*
Y371569D01*
X262164Y370773D01*
X262773Y370164D01*
X263569Y369835D01*
X264431D01*
X264774Y369977D01*
X274049D01*
X274823Y370131D01*
X275480Y370569D01*
X276387Y371477D01*
X284662D01*
X287022Y369117D01*
X287164Y368773D01*
X287773Y368164D01*
X288569Y367835D01*
X289431D01*
X290227Y368164D01*
X290836Y368773D01*
X291165Y369569D01*
Y370431D01*
X290836Y371227D01*
X290227Y371836D01*
X289883Y371978D01*
X286931Y374931D01*
X286274Y375369D01*
X285683Y375487D01*
X285733Y375987D01*
X485524D01*
X486148Y375728D01*
X486852D01*
X487504Y375998D01*
X488002Y376496D01*
X488272Y377148D01*
Y377852D01*
X488002Y378504D01*
X487504Y379002D01*
X486852Y379272D01*
D02*
G37*
G36*
X188623Y387068D02*
X187377D01*
X186173Y386745D01*
X185093Y386122D01*
X184212Y385240D01*
X183588Y384161D01*
X183266Y382957D01*
Y381710D01*
X183588Y380506D01*
X184212Y379426D01*
X185093Y378545D01*
X186173Y377922D01*
X187377Y377599D01*
X188623D01*
X189827Y377922D01*
X190907Y378545D01*
X191788Y379426D01*
X192412Y380506D01*
X192734Y381710D01*
Y382957D01*
X192412Y384161D01*
X191788Y385240D01*
X190907Y386122D01*
X189827Y386745D01*
X188623Y387068D01*
D02*
G37*
G36*
X163623D02*
X162377D01*
X161173Y386745D01*
X160093Y386122D01*
X159212Y385240D01*
X158588Y384161D01*
X158266Y382957D01*
Y381710D01*
X158588Y380506D01*
X159212Y379426D01*
X160093Y378545D01*
X161173Y377922D01*
X162377Y377599D01*
X163623D01*
X164827Y377922D01*
X165907Y378545D01*
X166788Y379426D01*
X167412Y380506D01*
X167734Y381710D01*
Y382957D01*
X167412Y384161D01*
X166788Y385240D01*
X165907Y386122D01*
X164827Y386745D01*
X163623Y387068D01*
D02*
G37*
G36*
X352000Y370228D02*
Y369000D01*
X353228D01*
X353015Y369513D01*
X352513Y370015D01*
X352000Y370228D01*
D02*
G37*
G36*
X351000D02*
X350487Y370015D01*
X349985Y369513D01*
X349772Y369000D01*
X351000D01*
Y370228D01*
D02*
G37*
G36*
X381878Y373372D02*
X381122D01*
X380392Y373176D01*
X379737Y372798D01*
X379202Y372263D01*
X378824Y371608D01*
X378628Y370878D01*
Y370740D01*
X372761Y364872D01*
X372122D01*
X371392Y364676D01*
X370737Y364298D01*
X370202Y363763D01*
X369824Y363108D01*
X369628Y362378D01*
Y361622D01*
X369824Y360892D01*
X370202Y360237D01*
X370737Y359702D01*
X371392Y359324D01*
X372122Y359128D01*
X372878D01*
X373608Y359324D01*
X374263Y359702D01*
X374798Y360237D01*
X375176Y360892D01*
X375372Y361622D01*
Y361760D01*
X381240Y367628D01*
X381878D01*
X382608Y367824D01*
X383263Y368202D01*
X383538Y368477D01*
X464212D01*
X465030Y368138D01*
X465970D01*
X466838Y368497D01*
X467503Y369162D01*
X467862Y370030D01*
Y370970D01*
X467503Y371838D01*
X466838Y372503D01*
X465970Y372862D01*
X465030D01*
X464212Y372523D01*
X383538D01*
X383263Y372798D01*
X382608Y373176D01*
X381878Y373372D01*
D02*
G37*
G36*
X268000Y367513D02*
X268000Y367513D01*
X206500D01*
X206500Y367513D01*
X205921Y367398D01*
X205430Y367070D01*
X202430Y364070D01*
X202102Y363579D01*
X201987Y363000D01*
X201987Y363000D01*
Y289976D01*
X201728Y289352D01*
Y288648D01*
X201998Y287996D01*
X202496Y287498D01*
X203148Y287228D01*
X203852D01*
X204504Y287498D01*
X205002Y287996D01*
X205272Y288648D01*
Y289352D01*
X205013Y289976D01*
Y362373D01*
X207127Y364487D01*
X267373D01*
X269487Y362373D01*
Y334500D01*
X269487Y334500D01*
X269602Y333921D01*
X269930Y333430D01*
X275346Y328013D01*
X275270Y327689D01*
X275153Y327513D01*
X217476D01*
X216852Y327772D01*
X216148D01*
X215496Y327502D01*
X214998Y327004D01*
X214728Y326352D01*
Y325648D01*
X214998Y324996D01*
X215496Y324498D01*
X216148Y324228D01*
X216852D01*
X217476Y324487D01*
X309373D01*
X318885Y314975D01*
X318693Y314513D01*
X217127D01*
X211513Y320127D01*
Y358024D01*
X211772Y358648D01*
Y359352D01*
X211502Y360004D01*
X211004Y360502D01*
X210352Y360772D01*
X209648D01*
X208996Y360502D01*
X208498Y360004D01*
X208228Y359352D01*
Y358648D01*
X208487Y358024D01*
Y319500D01*
X208487Y319500D01*
X208602Y318921D01*
X208930Y318430D01*
X215430Y311930D01*
X215430Y311930D01*
X215921Y311602D01*
X216500Y311487D01*
X216500Y311487D01*
X304041D01*
X304319Y311071D01*
X304228Y310852D01*
Y310148D01*
X304487Y309524D01*
Y263500D01*
X304487Y263500D01*
X304602Y262921D01*
X304930Y262430D01*
X309930Y257430D01*
X309930Y257430D01*
X310421Y257102D01*
X311000Y256987D01*
X491000D01*
X491000Y256987D01*
X491579Y257102D01*
X492070Y257430D01*
X505127Y270487D01*
X515789D01*
X515795Y270465D01*
X516318Y269558D01*
X517058Y268818D01*
X517965Y268295D01*
X518976Y268024D01*
X520023D01*
X521035Y268295D01*
X521942Y268818D01*
X522682Y269558D01*
X523205Y270465D01*
X523476Y271477D01*
Y272523D01*
X523205Y273535D01*
X522682Y274442D01*
X521942Y275182D01*
X521035Y275705D01*
X520023Y275976D01*
X518976D01*
X517965Y275705D01*
X517058Y275182D01*
X516318Y274442D01*
X515795Y273535D01*
X515789Y273513D01*
X504500D01*
X503921Y273398D01*
X503430Y273070D01*
X503430Y273070D01*
X490373Y260013D01*
X311627D01*
X307513Y264127D01*
Y309524D01*
X307772Y310148D01*
Y310852D01*
X307681Y311071D01*
X307959Y311487D01*
X348873D01*
X349240Y311120D01*
X349498Y310496D01*
X349996Y309998D01*
X350648Y309728D01*
X351352D01*
X352004Y309998D01*
X352502Y310496D01*
X352772Y311148D01*
Y311852D01*
X352502Y312504D01*
X352004Y313002D01*
X351380Y313260D01*
X351115Y313525D01*
X351307Y313987D01*
X356024D01*
X356648Y313728D01*
X357352D01*
X358004Y313998D01*
X358502Y314496D01*
X358772Y315148D01*
Y315852D01*
X358502Y316504D01*
X358004Y317002D01*
X357352Y317272D01*
X356648D01*
X356599Y317251D01*
X356315Y317675D01*
X356869Y318228D01*
X357352D01*
X358004Y318498D01*
X358502Y318996D01*
X358772Y319648D01*
Y320352D01*
X358502Y321004D01*
X358019Y321487D01*
X358022Y321569D01*
X358140Y321987D01*
X392873D01*
X402740Y312120D01*
X402998Y311496D01*
X403496Y310998D01*
X404148Y310728D01*
X404852D01*
X405504Y310998D01*
X406002Y311496D01*
X406272Y312148D01*
Y312852D01*
X406002Y313504D01*
X405504Y314002D01*
X404880Y314260D01*
X394570Y324570D01*
X394079Y324898D01*
X393500Y325013D01*
X393500Y325013D01*
X349476D01*
X348852Y325272D01*
X348148D01*
X347496Y325002D01*
X346998Y324504D01*
X346728Y323852D01*
Y323148D01*
X346998Y322496D01*
X347496Y321998D01*
X348148Y321728D01*
X348852D01*
X349476Y321987D01*
X355860D01*
X355978Y321569D01*
X355981Y321487D01*
X355836Y321341D01*
X355430Y321070D01*
X355430Y321070D01*
X353873Y319513D01*
X322127D01*
X311570Y330070D01*
X311079Y330398D01*
X310500Y330513D01*
X310500Y330513D01*
X277127D01*
X272513Y335127D01*
Y363000D01*
X272513Y363000D01*
X272398Y363579D01*
X272070Y364070D01*
X272070Y364070D01*
X269070Y367070D01*
X268579Y367398D01*
X268483Y367417D01*
X268000Y367513D01*
D02*
G37*
G36*
X353228Y368000D02*
X352000D01*
Y366772D01*
X352513Y366985D01*
X353015Y367488D01*
X353228Y368000D01*
D02*
G37*
G36*
X351000D02*
X349772D01*
X349985Y367488D01*
X350487Y366985D01*
X351000Y366772D01*
Y368000D01*
D02*
G37*
G36*
X188625Y367083D02*
X188500D01*
Y362833D01*
X192750D01*
Y362959D01*
X192426Y364167D01*
X191801Y365250D01*
X190917Y366134D01*
X189833Y366760D01*
X188625Y367083D01*
D02*
G37*
G36*
X187500D02*
X187375D01*
X186167Y366760D01*
X185083Y366134D01*
X184199Y365250D01*
X183574Y364167D01*
X183250Y362959D01*
Y362833D01*
X187500D01*
Y367083D01*
D02*
G37*
G36*
X163625D02*
X163500D01*
Y362833D01*
X167750D01*
Y362959D01*
X167426Y364167D01*
X166801Y365250D01*
X165917Y366134D01*
X164833Y366760D01*
X163625Y367083D01*
D02*
G37*
G36*
X162500D02*
X162375D01*
X161167Y366760D01*
X160083Y366134D01*
X159199Y365250D01*
X158574Y364167D01*
X158250Y362959D01*
Y362833D01*
X162500D01*
Y367083D01*
D02*
G37*
G36*
X192750Y361833D02*
X188500D01*
Y357583D01*
X188625D01*
X189833Y357907D01*
X190917Y358532D01*
X191801Y359417D01*
X192426Y360500D01*
X192750Y361708D01*
Y361833D01*
D02*
G37*
G36*
X187500D02*
X183250D01*
Y361708D01*
X183574Y360500D01*
X184199Y359417D01*
X185083Y358532D01*
X186167Y357907D01*
X187375Y357583D01*
X187500D01*
Y361833D01*
D02*
G37*
G36*
X167750D02*
X163500D01*
Y357583D01*
X163625D01*
X164833Y357907D01*
X165917Y358532D01*
X166801Y359417D01*
X167426Y360500D01*
X167750Y361708D01*
Y361833D01*
D02*
G37*
G36*
X162500D02*
X158250D01*
Y361708D01*
X158574Y360500D01*
X159199Y359417D01*
X160083Y358532D01*
X161167Y357907D01*
X162375Y357583D01*
X162500D01*
Y361833D01*
D02*
G37*
G36*
X238000Y358728D02*
Y357500D01*
X239228D01*
X239015Y358013D01*
X238512Y358515D01*
X238000Y358728D01*
D02*
G37*
G36*
X237000D02*
X236488Y358515D01*
X235985Y358013D01*
X235772Y357500D01*
X237000D01*
Y358728D01*
D02*
G37*
G36*
X487500Y357228D02*
Y356000D01*
X488728D01*
X488515Y356512D01*
X488013Y357015D01*
X487500Y357228D01*
D02*
G37*
G36*
X486500D02*
X485988Y357015D01*
X485485Y356512D01*
X485272Y356000D01*
X486500D01*
Y357228D01*
D02*
G37*
G36*
X239228Y356500D02*
X238000D01*
Y355272D01*
X238512Y355485D01*
X239015Y355988D01*
X239228Y356500D01*
D02*
G37*
G36*
X237000D02*
X235772D01*
X235985Y355988D01*
X236488Y355485D01*
X237000Y355272D01*
Y356500D01*
D02*
G37*
G36*
X488728Y355000D02*
X487500D01*
Y353772D01*
X488013Y353985D01*
X488515Y354487D01*
X488728Y355000D01*
D02*
G37*
G36*
X486500D02*
X485272D01*
X485485Y354487D01*
X485988Y353985D01*
X486500Y353772D01*
Y355000D01*
D02*
G37*
G36*
X289500Y347228D02*
Y346000D01*
X290728D01*
X290515Y346513D01*
X290013Y347015D01*
X289500Y347228D01*
D02*
G37*
G36*
X288500D02*
X287987Y347015D01*
X287485Y346513D01*
X287272Y346000D01*
X288500D01*
Y347228D01*
D02*
G37*
G36*
X290728Y345000D02*
X289500D01*
Y343772D01*
X290013Y343985D01*
X290515Y344488D01*
X290728Y345000D01*
D02*
G37*
G36*
X288500D02*
X287272D01*
X287485Y344488D01*
X287987Y343985D01*
X288500Y343772D01*
Y345000D01*
D02*
G37*
G36*
X188623Y351401D02*
X187377D01*
X186173Y351078D01*
X185093Y350455D01*
X184212Y349574D01*
X183588Y348494D01*
X183266Y347290D01*
Y346043D01*
X183588Y344839D01*
X184212Y343760D01*
X185093Y342878D01*
X186173Y342255D01*
X187377Y341932D01*
X188623D01*
X189827Y342255D01*
X190907Y342878D01*
X191788Y343760D01*
X192412Y344839D01*
X192734Y346043D01*
Y347290D01*
X192412Y348494D01*
X191788Y349574D01*
X190907Y350455D01*
X189827Y351078D01*
X188623Y351401D01*
D02*
G37*
G36*
X163623D02*
X162377D01*
X161173Y351078D01*
X160093Y350455D01*
X159212Y349574D01*
X158588Y348494D01*
X158266Y347290D01*
Y346043D01*
X158588Y344839D01*
X159212Y343760D01*
X160093Y342878D01*
X161173Y342255D01*
X162377Y341932D01*
X163623D01*
X164827Y342255D01*
X165907Y342878D01*
X166788Y343760D01*
X167412Y344839D01*
X167734Y346043D01*
Y347290D01*
X167412Y348494D01*
X166788Y349574D01*
X165907Y350455D01*
X164827Y351078D01*
X163623Y351401D01*
D02*
G37*
G36*
X188625Y331417D02*
X188500D01*
Y327167D01*
X192750D01*
Y327292D01*
X192426Y328500D01*
X191801Y329583D01*
X190917Y330468D01*
X189833Y331093D01*
X188625Y331417D01*
D02*
G37*
G36*
X187500D02*
X187375D01*
X186167Y331093D01*
X185083Y330468D01*
X184199Y329583D01*
X183574Y328500D01*
X183250Y327292D01*
Y327167D01*
X187500D01*
Y331417D01*
D02*
G37*
G36*
X163625D02*
X163500D01*
Y327167D01*
X167750D01*
Y327292D01*
X167426Y328500D01*
X166801Y329583D01*
X165917Y330468D01*
X164833Y331093D01*
X163625Y331417D01*
D02*
G37*
G36*
X162500D02*
X162375D01*
X161167Y331093D01*
X160083Y330468D01*
X159199Y329583D01*
X158574Y328500D01*
X158250Y327292D01*
Y327167D01*
X162500D01*
Y331417D01*
D02*
G37*
G36*
X192750Y326167D02*
X188500D01*
Y321917D01*
X188625D01*
X189833Y322240D01*
X190917Y322866D01*
X191801Y323750D01*
X192426Y324833D01*
X192750Y326041D01*
Y326167D01*
D02*
G37*
G36*
X187500D02*
X183250D01*
Y326041D01*
X183574Y324833D01*
X184199Y323750D01*
X185083Y322866D01*
X186167Y322240D01*
X187375Y321917D01*
X187500D01*
Y326167D01*
D02*
G37*
G36*
X167750D02*
X163500D01*
Y321917D01*
X163625D01*
X164833Y322240D01*
X165917Y322866D01*
X166801Y323750D01*
X167426Y324833D01*
X167750Y326041D01*
Y326167D01*
D02*
G37*
G36*
X162500D02*
X158250D01*
Y326041D01*
X158574Y324833D01*
X159199Y323750D01*
X160083Y322866D01*
X161167Y322240D01*
X162375Y321917D01*
X162500D01*
Y326167D01*
D02*
G37*
G36*
X308852Y321272D02*
X308148D01*
X307524Y321013D01*
X283663D01*
X283110Y321123D01*
X283110Y321123D01*
X282711D01*
X282352Y321272D01*
X281648D01*
X280996Y321002D01*
X280498Y320504D01*
X280228Y319852D01*
Y319148D01*
X280498Y318496D01*
X280996Y317998D01*
X281648Y317728D01*
X282352D01*
X283004Y317998D01*
X283030Y318024D01*
X283220Y317987D01*
X283220Y317987D01*
X307524D01*
X308148Y317728D01*
X308852D01*
X309504Y317998D01*
X310002Y318496D01*
X310272Y319148D01*
Y319852D01*
X310002Y320504D01*
X309504Y321002D01*
X308852Y321272D01*
D02*
G37*
G36*
X495500Y311654D02*
Y310000D01*
X497154D01*
X496849Y310736D01*
X496236Y311349D01*
X495500Y311654D01*
D02*
G37*
G36*
X494500D02*
X493764Y311349D01*
X493151Y310736D01*
X492846Y310000D01*
X494500D01*
Y311654D01*
D02*
G37*
G36*
X344852Y309772D02*
X344148D01*
X343524Y309513D01*
X327976D01*
X327352Y309772D01*
X326648D01*
X325996Y309502D01*
X325498Y309004D01*
X325228Y308352D01*
Y307648D01*
X325498Y306996D01*
X325996Y306498D01*
X326648Y306228D01*
X327352D01*
X327976Y306487D01*
X343524D01*
X344148Y306228D01*
X344852D01*
X345504Y306498D01*
X346002Y306996D01*
X346272Y307648D01*
Y308352D01*
X346002Y309004D01*
X345504Y309502D01*
X344852Y309772D01*
D02*
G37*
G36*
X455887Y316937D02*
X448013D01*
Y309063D01*
X455887D01*
Y316937D01*
D02*
G37*
G36*
X497154Y309000D02*
X495500D01*
Y307346D01*
X496236Y307651D01*
X496849Y308264D01*
X497154Y309000D01*
D02*
G37*
G36*
X494500D02*
X492846D01*
X493151Y308264D01*
X493764Y307651D01*
X494500Y307346D01*
Y309000D01*
D02*
G37*
G36*
X188623Y315734D02*
X187377D01*
X186173Y315412D01*
X185093Y314788D01*
X184212Y313907D01*
X183588Y312827D01*
X183266Y311623D01*
Y310377D01*
X183588Y309173D01*
X184212Y308093D01*
X185093Y307212D01*
X186173Y306588D01*
X187377Y306266D01*
X188623D01*
X189827Y306588D01*
X190907Y307212D01*
X191788Y308093D01*
X192412Y309173D01*
X192734Y310377D01*
Y311623D01*
X192412Y312827D01*
X191788Y313907D01*
X190907Y314788D01*
X189827Y315412D01*
X188623Y315734D01*
D02*
G37*
G36*
X163623D02*
X162377D01*
X161173Y315412D01*
X160093Y314788D01*
X159212Y313907D01*
X158588Y312827D01*
X158266Y311623D01*
Y310377D01*
X158588Y309173D01*
X159212Y308093D01*
X160093Y307212D01*
X161173Y306588D01*
X162377Y306266D01*
X163623D01*
X164827Y306588D01*
X165907Y307212D01*
X166788Y308093D01*
X167412Y309173D01*
X167734Y310377D01*
Y311623D01*
X167412Y312827D01*
X166788Y313907D01*
X165907Y314788D01*
X164827Y315412D01*
X163623Y315734D01*
D02*
G37*
G36*
X376634Y314134D02*
X368366D01*
Y305866D01*
X376634D01*
Y314134D01*
D02*
G37*
G36*
X253000Y306228D02*
Y305000D01*
X254228D01*
X254015Y305512D01*
X253513Y306015D01*
X253000Y306228D01*
D02*
G37*
G36*
X252000D02*
X251487Y306015D01*
X250985Y305512D01*
X250772Y305000D01*
X252000D01*
Y306228D01*
D02*
G37*
G36*
X254228Y304000D02*
X253000D01*
Y302772D01*
X253513Y302985D01*
X254015Y303487D01*
X254228Y304000D01*
D02*
G37*
G36*
X252000D02*
X250772D01*
X250985Y303487D01*
X251487Y302985D01*
X252000Y302772D01*
Y304000D01*
D02*
G37*
G36*
X342000Y297728D02*
Y296500D01*
X343228D01*
X343015Y297012D01*
X342512Y297515D01*
X342000Y297728D01*
D02*
G37*
G36*
X341000D02*
X340488Y297515D01*
X339985Y297012D01*
X339772Y296500D01*
X341000D01*
Y297728D01*
D02*
G37*
G36*
X373044Y304134D02*
X371956D01*
X370904Y303852D01*
X369962Y303308D01*
X369192Y302538D01*
X368648Y301596D01*
X368366Y300544D01*
Y299456D01*
X368648Y298404D01*
X369192Y297462D01*
X369962Y296692D01*
X370904Y296148D01*
X371956Y295866D01*
X373044D01*
X374096Y296148D01*
X375038Y296692D01*
X375808Y297462D01*
X376352Y298404D01*
X376634Y299456D01*
Y300544D01*
X376352Y301596D01*
X375808Y302538D01*
X375038Y303308D01*
X374096Y303852D01*
X373044Y304134D01*
D02*
G37*
G36*
X343228Y295500D02*
X342000D01*
Y294272D01*
X342512Y294485D01*
X343015Y294988D01*
X343228Y295500D01*
D02*
G37*
G36*
X341000D02*
X339772D01*
X339985Y294988D01*
X340488Y294485D01*
X341000Y294272D01*
Y295500D01*
D02*
G37*
G36*
X188625Y295750D02*
X188500D01*
Y291500D01*
X192750D01*
Y291625D01*
X192426Y292833D01*
X191801Y293917D01*
X190917Y294801D01*
X189833Y295426D01*
X188625Y295750D01*
D02*
G37*
G36*
X187500D02*
X187375D01*
X186167Y295426D01*
X185083Y294801D01*
X184199Y293917D01*
X183574Y292833D01*
X183250Y291625D01*
Y291500D01*
X187500D01*
Y295750D01*
D02*
G37*
G36*
X163625D02*
X163500D01*
Y291500D01*
X167750D01*
Y291625D01*
X167426Y292833D01*
X166801Y293917D01*
X165917Y294801D01*
X164833Y295426D01*
X163625Y295750D01*
D02*
G37*
G36*
X162500D02*
X162375D01*
X161167Y295426D01*
X160083Y294801D01*
X159199Y293917D01*
X158574Y292833D01*
X158250Y291625D01*
Y291500D01*
X162500D01*
Y295750D01*
D02*
G37*
G36*
X192750Y290500D02*
X188500D01*
Y286250D01*
X188625D01*
X189833Y286574D01*
X190917Y287199D01*
X191801Y288083D01*
X192426Y289167D01*
X192750Y290375D01*
Y290500D01*
D02*
G37*
G36*
X187500D02*
X183250D01*
Y290375D01*
X183574Y289167D01*
X184199Y288083D01*
X185083Y287199D01*
X186167Y286574D01*
X187375Y286250D01*
X187500D01*
Y290500D01*
D02*
G37*
G36*
X167750D02*
X163500D01*
Y286250D01*
X163625D01*
X164833Y286574D01*
X165917Y287199D01*
X166801Y288083D01*
X167426Y289167D01*
X167750Y290375D01*
Y290500D01*
D02*
G37*
G36*
X162500D02*
X158250D01*
Y290375D01*
X158574Y289167D01*
X159199Y288083D01*
X160083Y287199D01*
X161167Y286574D01*
X162375Y286250D01*
X162500D01*
Y290500D01*
D02*
G37*
G36*
X373044Y294134D02*
X371956D01*
X370904Y293852D01*
X369962Y293308D01*
X369192Y292538D01*
X368648Y291596D01*
X368366Y290544D01*
Y289456D01*
X368648Y288404D01*
X369192Y287462D01*
X369962Y286692D01*
X370904Y286148D01*
X371956Y285866D01*
X373044D01*
X374096Y286148D01*
X375038Y286692D01*
X375808Y287462D01*
X376352Y288404D01*
X376634Y289456D01*
Y290544D01*
X376352Y291596D01*
X375808Y292538D01*
X375038Y293308D01*
X374096Y293852D01*
X373044Y294134D01*
D02*
G37*
G36*
X220000Y284228D02*
Y283000D01*
X221228D01*
X221015Y283512D01*
X220513Y284015D01*
X220000Y284228D01*
D02*
G37*
G36*
X219000D02*
X218488Y284015D01*
X217985Y283512D01*
X217772Y283000D01*
X219000D01*
Y284228D01*
D02*
G37*
G36*
X221228Y282000D02*
X220000D01*
Y280772D01*
X220513Y280985D01*
X221015Y281487D01*
X221228Y282000D01*
D02*
G37*
G36*
X219000D02*
X217772D01*
X217985Y281487D01*
X218488Y280985D01*
X219000Y280772D01*
Y282000D01*
D02*
G37*
G36*
X373046Y284150D02*
X373000D01*
Y280500D01*
X376650D01*
Y280546D01*
X376367Y281602D01*
X375820Y282548D01*
X375048Y283320D01*
X374102Y283867D01*
X373046Y284150D01*
D02*
G37*
G36*
X372000D02*
X371954D01*
X370898Y283867D01*
X369952Y283320D01*
X369180Y282548D01*
X368633Y281602D01*
X368350Y280546D01*
Y280500D01*
X372000D01*
Y284150D01*
D02*
G37*
G36*
X452518Y286937D02*
X451482D01*
X450480Y286669D01*
X449583Y286150D01*
X448850Y285417D01*
X448331Y284520D01*
X448063Y283518D01*
Y282482D01*
X448331Y281480D01*
X448850Y280583D01*
X449583Y279850D01*
X450480Y279331D01*
X451482Y279063D01*
X452518D01*
X453520Y279331D01*
X454417Y279850D01*
X455150Y280583D01*
X455669Y281480D01*
X455937Y282482D01*
Y283518D01*
X455669Y284520D01*
X455150Y285417D01*
X454417Y286150D01*
X453520Y286669D01*
X452518Y286937D01*
D02*
G37*
G36*
X185125Y283250D02*
X185000D01*
Y279000D01*
X189250D01*
Y279125D01*
X188926Y280333D01*
X188301Y281417D01*
X187417Y282301D01*
X186333Y282926D01*
X185125Y283250D01*
D02*
G37*
G36*
X184000D02*
X183875D01*
X182667Y282926D01*
X181583Y282301D01*
X180699Y281417D01*
X180074Y280333D01*
X179750Y279125D01*
Y279000D01*
X184000D01*
Y283250D01*
D02*
G37*
G36*
X305352Y347772D02*
X304648D01*
X303996Y347502D01*
X303498Y347004D01*
X303228Y346352D01*
Y345648D01*
X303498Y344996D01*
X303996Y344498D01*
X304648Y344228D01*
X305352D01*
X305976Y344487D01*
X307360D01*
X307478Y344069D01*
X307481Y343987D01*
X306998Y343504D01*
X306728Y342852D01*
Y342148D01*
X306998Y341496D01*
X307496Y340998D01*
X308148Y340728D01*
X308852D01*
X309476Y340987D01*
X411873D01*
X421987Y330873D01*
Y270000D01*
X421987Y270000D01*
X422102Y269421D01*
X422430Y268930D01*
X426930Y264430D01*
X427421Y264102D01*
X428000Y263987D01*
X428000Y263987D01*
X484524D01*
X485148Y263728D01*
X485852D01*
X486504Y263998D01*
X487002Y264496D01*
X487272Y265148D01*
Y265852D01*
X487002Y266504D01*
X486504Y267002D01*
X485852Y267272D01*
X485148D01*
X484524Y267013D01*
X428627D01*
X425013Y270627D01*
Y302817D01*
X425513Y302866D01*
X425602Y302421D01*
X425930Y301930D01*
X430930Y296930D01*
X430930Y296930D01*
X431421Y296602D01*
X432000Y296487D01*
X432000Y296487D01*
X513373D01*
X517987Y291873D01*
Y285711D01*
X517965Y285705D01*
X517058Y285182D01*
X516318Y284442D01*
X515795Y283535D01*
X515524Y282523D01*
Y281476D01*
X515795Y280465D01*
X516318Y279558D01*
X517058Y278818D01*
X517965Y278295D01*
X518976Y278024D01*
X520023D01*
X521035Y278295D01*
X521942Y278818D01*
X522682Y279558D01*
X523205Y280465D01*
X523476Y281476D01*
Y282523D01*
X523205Y283535D01*
X522682Y284442D01*
X521942Y285182D01*
X521035Y285705D01*
X521013Y285711D01*
Y292500D01*
X520898Y293079D01*
X520570Y293570D01*
X520570Y293570D01*
X515070Y299070D01*
X514579Y299398D01*
X514000Y299513D01*
X514000Y299513D01*
X432627D01*
X428513Y303627D01*
Y336000D01*
X428513Y336000D01*
X428398Y336579D01*
X428070Y337070D01*
X428070Y337070D01*
X418070Y347070D01*
X417579Y347398D01*
X417000Y347513D01*
X417000Y347513D01*
X305976D01*
X305352Y347772D01*
D02*
G37*
G36*
X376650Y279500D02*
X373000D01*
Y275850D01*
X373046D01*
X374102Y276133D01*
X375048Y276679D01*
X375820Y277452D01*
X376367Y278398D01*
X376650Y279454D01*
Y279500D01*
D02*
G37*
G36*
X372000D02*
X368350D01*
Y279454D01*
X368633Y278398D01*
X369180Y277452D01*
X369952Y276679D01*
X370898Y276133D01*
X371954Y275850D01*
X372000D01*
Y279500D01*
D02*
G37*
G36*
X189250Y278000D02*
X185000D01*
Y273750D01*
X185125D01*
X186333Y274074D01*
X187417Y274699D01*
X188301Y275583D01*
X188926Y276667D01*
X189250Y277875D01*
Y278000D01*
D02*
G37*
G36*
X184000D02*
X179750D01*
Y277875D01*
X180074Y276667D01*
X180699Y275583D01*
X181583Y274699D01*
X182667Y274074D01*
X183875Y273750D01*
X184000D01*
Y278000D01*
D02*
G37*
G36*
X398000Y266228D02*
Y265000D01*
X399228D01*
X399015Y265512D01*
X398513Y266015D01*
X398000Y266228D01*
D02*
G37*
G36*
X397000D02*
X396487Y266015D01*
X395985Y265512D01*
X395772Y265000D01*
X397000D01*
Y266228D01*
D02*
G37*
G36*
X165123Y273234D02*
X163877D01*
X162673Y272912D01*
X161593Y272288D01*
X160712Y271407D01*
X160088Y270327D01*
X159766Y269123D01*
Y267877D01*
X160088Y266673D01*
X160712Y265593D01*
X161593Y264712D01*
X162673Y264088D01*
X163877Y263766D01*
X165123D01*
X166327Y264088D01*
X167407Y264712D01*
X168288Y265593D01*
X168912Y266673D01*
X169234Y267877D01*
Y269123D01*
X168912Y270327D01*
X168288Y271407D01*
X167407Y272288D01*
X166327Y272912D01*
X165123Y273234D01*
D02*
G37*
G36*
X399228Y264000D02*
X398000D01*
Y262772D01*
X398513Y262985D01*
X399015Y263488D01*
X399228Y264000D01*
D02*
G37*
G36*
X397000D02*
X395772D01*
X395985Y263488D01*
X396487Y262985D01*
X397000Y262772D01*
Y264000D01*
D02*
G37*
G36*
X520026Y265992D02*
X520000D01*
Y262500D01*
X523492D01*
Y262526D01*
X523220Y263541D01*
X522694Y264451D01*
X521951Y265195D01*
X521041Y265720D01*
X520026Y265992D01*
D02*
G37*
G36*
X519000D02*
X518974D01*
X517959Y265720D01*
X517049Y265195D01*
X516305Y264451D01*
X515780Y263541D01*
X515508Y262526D01*
Y262500D01*
X519000D01*
Y265992D01*
D02*
G37*
G36*
X523492Y261500D02*
X520000D01*
Y258008D01*
X520026D01*
X521041Y258280D01*
X521951Y258805D01*
X522694Y259549D01*
X523220Y260459D01*
X523492Y261474D01*
Y261500D01*
D02*
G37*
G36*
X519000D02*
X515508D01*
Y261474D01*
X515780Y260459D01*
X516305Y259549D01*
X517049Y258805D01*
X517959Y258280D01*
X518974Y258008D01*
X519000D01*
Y261500D01*
D02*
G37*
G36*
X185123Y263234D02*
X183877D01*
X182673Y262912D01*
X181593Y262288D01*
X180712Y261407D01*
X180088Y260327D01*
X179766Y259123D01*
Y257877D01*
X180088Y256673D01*
X180712Y255593D01*
X181593Y254712D01*
X182673Y254088D01*
X183877Y253766D01*
X185123D01*
X186327Y254088D01*
X187407Y254712D01*
X188288Y255593D01*
X188912Y256673D01*
X189234Y257877D01*
Y259123D01*
X188912Y260327D01*
X188288Y261407D01*
X187407Y262288D01*
X186327Y262912D01*
X185123Y263234D01*
D02*
G37*
G36*
X170000Y253654D02*
Y252000D01*
X171654D01*
X171349Y252735D01*
X170736Y253349D01*
X170000Y253654D01*
D02*
G37*
G36*
X169000D02*
X168264Y253349D01*
X167651Y252735D01*
X167346Y252000D01*
X169000D01*
Y253654D01*
D02*
G37*
G36*
X171654Y251000D02*
X170000D01*
Y249346D01*
X170736Y249651D01*
X171349Y250265D01*
X171654Y251000D01*
D02*
G37*
G36*
X169000D02*
X167346D01*
X167651Y250265D01*
X168264Y249651D01*
X169000Y249346D01*
Y251000D01*
D02*
G37*
G36*
X523476Y255976D02*
X515524D01*
Y248024D01*
X523476D01*
Y255976D01*
D02*
G37*
G36*
X326500Y246469D02*
Y241500D01*
X330135D01*
Y242400D01*
X329995Y243470D01*
X329581Y244468D01*
X328924Y245324D01*
X328068Y245981D01*
X327070Y246394D01*
X326500Y246469D01*
D02*
G37*
G36*
X325500D02*
X324930Y246394D01*
X323932Y245981D01*
X323076Y245324D01*
X322419Y244468D01*
X322006Y243470D01*
X321865Y242400D01*
Y241500D01*
X325500D01*
Y246469D01*
D02*
G37*
G36*
X180100Y246500D02*
X176500D01*
Y241500D01*
X180100D01*
Y246500D01*
D02*
G37*
G36*
X175500D02*
X171900D01*
Y241500D01*
X175500D01*
Y246500D01*
D02*
G37*
G36*
X330135Y240500D02*
X326500D01*
Y235530D01*
X327070Y235606D01*
X328068Y236019D01*
X328924Y236676D01*
X329581Y237532D01*
X329995Y238530D01*
X330135Y239600D01*
Y240500D01*
D02*
G37*
G36*
X325500D02*
X321865D01*
Y239600D01*
X322006Y238530D01*
X322419Y237532D01*
X323076Y236676D01*
X323932Y236019D01*
X324930Y235606D01*
X325500Y235530D01*
Y240500D01*
D02*
G37*
G36*
X180100D02*
X176500D01*
Y235500D01*
X180100D01*
Y240500D01*
D02*
G37*
G36*
X175500D02*
X171900D01*
Y235500D01*
X175500D01*
Y240500D01*
D02*
G37*
G36*
X316000Y246519D02*
X314934Y246379D01*
X313940Y245968D01*
X313087Y245313D01*
X312432Y244460D01*
X312021Y243466D01*
X311880Y242400D01*
Y239600D01*
X312021Y238534D01*
X312432Y237540D01*
X313087Y236687D01*
X313940Y236032D01*
X314934Y235621D01*
X316000Y235480D01*
X317066Y235621D01*
X318060Y236032D01*
X318913Y236687D01*
X319568Y237540D01*
X319979Y238534D01*
X320120Y239600D01*
Y242400D01*
X319979Y243466D01*
X319568Y244460D01*
X318913Y245313D01*
X318060Y245968D01*
X317066Y246379D01*
X316000Y246519D01*
D02*
G37*
G36*
X306000D02*
X304934Y246379D01*
X303940Y245968D01*
X303087Y245313D01*
X302432Y244460D01*
X302021Y243466D01*
X301881Y242400D01*
Y239600D01*
X302021Y238534D01*
X302432Y237540D01*
X303087Y236687D01*
X303940Y236032D01*
X304934Y235621D01*
X306000Y235480D01*
X307066Y235621D01*
X308060Y236032D01*
X308913Y236687D01*
X309568Y237540D01*
X309979Y238534D01*
X310120Y239600D01*
Y242400D01*
X309979Y243466D01*
X309568Y244460D01*
X308913Y245313D01*
X308060Y245968D01*
X307066Y246379D01*
X306000Y246519D01*
D02*
G37*
G36*
X296000D02*
X294934Y246379D01*
X293940Y245968D01*
X293087Y245313D01*
X292432Y244460D01*
X292021Y243466D01*
X291880Y242400D01*
Y239600D01*
X292021Y238534D01*
X292432Y237540D01*
X293087Y236687D01*
X293940Y236032D01*
X294934Y235621D01*
X296000Y235480D01*
X297066Y235621D01*
X298060Y236032D01*
X298913Y236687D01*
X299568Y237540D01*
X299979Y238534D01*
X300119Y239600D01*
Y242400D01*
X299979Y243466D01*
X299568Y244460D01*
X298913Y245313D01*
X298060Y245968D01*
X297066Y246379D01*
X296000Y246519D01*
D02*
G37*
G36*
X286000D02*
X284934Y246379D01*
X283940Y245968D01*
X283087Y245313D01*
X282432Y244460D01*
X282021Y243466D01*
X281880Y242400D01*
Y239600D01*
X282021Y238534D01*
X282432Y237540D01*
X283087Y236687D01*
X283940Y236032D01*
X284934Y235621D01*
X286000Y235480D01*
X287066Y235621D01*
X288060Y236032D01*
X288913Y236687D01*
X289568Y237540D01*
X289979Y238534D01*
X290120Y239600D01*
Y242400D01*
X289979Y243466D01*
X289568Y244460D01*
X288913Y245313D01*
X288060Y245968D01*
X287066Y246379D01*
X286000Y246519D01*
D02*
G37*
G36*
X276000D02*
X274934Y246379D01*
X273940Y245968D01*
X273087Y245313D01*
X272432Y244460D01*
X272021Y243466D01*
X271881Y242400D01*
Y239600D01*
X272021Y238534D01*
X272432Y237540D01*
X273087Y236687D01*
X273940Y236032D01*
X274934Y235621D01*
X276000Y235480D01*
X277066Y235621D01*
X278060Y236032D01*
X278913Y236687D01*
X279568Y237540D01*
X279979Y238534D01*
X280119Y239600D01*
Y242400D01*
X279979Y243466D01*
X279568Y244460D01*
X278913Y245313D01*
X278060Y245968D01*
X277066Y246379D01*
X276000Y246519D01*
D02*
G37*
G36*
X266000D02*
X264934Y246379D01*
X263940Y245968D01*
X263087Y245313D01*
X262432Y244460D01*
X262021Y243466D01*
X261880Y242400D01*
Y239600D01*
X262021Y238534D01*
X262432Y237540D01*
X263087Y236687D01*
X263940Y236032D01*
X264934Y235621D01*
X266000Y235480D01*
X267066Y235621D01*
X268060Y236032D01*
X268913Y236687D01*
X269568Y237540D01*
X269979Y238534D01*
X270120Y239600D01*
Y242400D01*
X269979Y243466D01*
X269568Y244460D01*
X268913Y245313D01*
X268060Y245968D01*
X267066Y246379D01*
X266000Y246519D01*
D02*
G37*
G36*
X256000D02*
X254934Y246379D01*
X253940Y245968D01*
X253087Y245313D01*
X252432Y244460D01*
X252021Y243466D01*
X251881Y242400D01*
Y239600D01*
X252021Y238534D01*
X252432Y237540D01*
X253087Y236687D01*
X253940Y236032D01*
X254934Y235621D01*
X256000Y235480D01*
X257066Y235621D01*
X258060Y236032D01*
X258913Y236687D01*
X259568Y237540D01*
X259979Y238534D01*
X260120Y239600D01*
Y242400D01*
X259979Y243466D01*
X259568Y244460D01*
X258913Y245313D01*
X258060Y245968D01*
X257066Y246379D01*
X256000Y246519D01*
D02*
G37*
G36*
X246000D02*
X244934Y246379D01*
X243940Y245968D01*
X243087Y245313D01*
X242432Y244460D01*
X242021Y243466D01*
X241880Y242400D01*
Y239600D01*
X242021Y238534D01*
X242432Y237540D01*
X243087Y236687D01*
X243940Y236032D01*
X244934Y235621D01*
X246000Y235480D01*
X247066Y235621D01*
X248060Y236032D01*
X248913Y236687D01*
X249568Y237540D01*
X249979Y238534D01*
X250119Y239600D01*
Y242400D01*
X249979Y243466D01*
X249568Y244460D01*
X248913Y245313D01*
X248060Y245968D01*
X247066Y246379D01*
X246000Y246519D01*
D02*
G37*
G36*
X236000D02*
X234934Y246379D01*
X233940Y245968D01*
X233087Y245313D01*
X232432Y244460D01*
X232021Y243466D01*
X231880Y242400D01*
Y239600D01*
X232021Y238534D01*
X232432Y237540D01*
X233087Y236687D01*
X233940Y236032D01*
X234934Y235621D01*
X236000Y235480D01*
X237066Y235621D01*
X238060Y236032D01*
X238913Y236687D01*
X239568Y237540D01*
X239979Y238534D01*
X240120Y239600D01*
Y242400D01*
X239979Y243466D01*
X239568Y244460D01*
X238913Y245313D01*
X238060Y245968D01*
X237066Y246379D01*
X236000Y246519D01*
D02*
G37*
G36*
X226000D02*
X224934Y246379D01*
X223940Y245968D01*
X223087Y245313D01*
X222432Y244460D01*
X222021Y243466D01*
X221881Y242400D01*
Y239600D01*
X222021Y238534D01*
X222432Y237540D01*
X223087Y236687D01*
X223940Y236032D01*
X224934Y235621D01*
X226000Y235480D01*
X227066Y235621D01*
X228060Y236032D01*
X228913Y236687D01*
X229568Y237540D01*
X229979Y238534D01*
X230119Y239600D01*
Y242400D01*
X229979Y243466D01*
X229568Y244460D01*
X228913Y245313D01*
X228060Y245968D01*
X227066Y246379D01*
X226000Y246519D01*
D02*
G37*
G36*
X216000D02*
X214934Y246379D01*
X213940Y245968D01*
X213087Y245313D01*
X212432Y244460D01*
X212021Y243466D01*
X211880Y242400D01*
Y239600D01*
X212021Y238534D01*
X212432Y237540D01*
X213087Y236687D01*
X213940Y236032D01*
X214934Y235621D01*
X216000Y235480D01*
X217066Y235621D01*
X218060Y236032D01*
X218913Y236687D01*
X219568Y237540D01*
X219979Y238534D01*
X220120Y239600D01*
Y242400D01*
X219979Y243466D01*
X219568Y244460D01*
X218913Y245313D01*
X218060Y245968D01*
X217066Y246379D01*
X216000Y246519D01*
D02*
G37*
G36*
X206000D02*
X204934Y246379D01*
X203940Y245968D01*
X203087Y245313D01*
X202432Y244460D01*
X202021Y243466D01*
X201881Y242400D01*
Y239600D01*
X202021Y238534D01*
X202432Y237540D01*
X203087Y236687D01*
X203940Y236032D01*
X204934Y235621D01*
X206000Y235480D01*
X207066Y235621D01*
X208060Y236032D01*
X208913Y236687D01*
X209568Y237540D01*
X209979Y238534D01*
X210120Y239600D01*
Y242400D01*
X209979Y243466D01*
X209568Y244460D01*
X208913Y245313D01*
X208060Y245968D01*
X207066Y246379D01*
X206000Y246519D01*
D02*
G37*
G36*
X196000D02*
X194934Y246379D01*
X193940Y245968D01*
X193087Y245313D01*
X192432Y244460D01*
X192021Y243466D01*
X191881Y242400D01*
Y239600D01*
X192021Y238534D01*
X192432Y237540D01*
X193087Y236687D01*
X193940Y236032D01*
X194934Y235621D01*
X196000Y235480D01*
X197066Y235621D01*
X198060Y236032D01*
X198913Y236687D01*
X199568Y237540D01*
X199979Y238534D01*
X200119Y239600D01*
Y242400D01*
X199979Y243466D01*
X199568Y244460D01*
X198913Y245313D01*
X198060Y245968D01*
X197066Y246379D01*
X196000Y246519D01*
D02*
G37*
G36*
X186000D02*
X184934Y246379D01*
X183940Y245968D01*
X183087Y245313D01*
X182432Y244460D01*
X182021Y243466D01*
X181880Y242400D01*
Y239600D01*
X182021Y238534D01*
X182432Y237540D01*
X183087Y236687D01*
X183940Y236032D01*
X183977Y236017D01*
Y224500D01*
X184131Y223726D01*
X184569Y223069D01*
X189069Y218569D01*
X189726Y218131D01*
X190500Y217977D01*
X314948D01*
X315548Y217728D01*
X316452D01*
X317287Y218074D01*
X317926Y218713D01*
X318272Y219548D01*
Y220452D01*
X317926Y221287D01*
X317287Y221926D01*
X316452Y222272D01*
X315548D01*
X314948Y222023D01*
X191338D01*
X188023Y225338D01*
Y236017D01*
X188060Y236032D01*
X188913Y236687D01*
X189568Y237540D01*
X189979Y238534D01*
X190120Y239600D01*
Y242400D01*
X189979Y243466D01*
X189568Y244460D01*
X188913Y245313D01*
X188060Y245968D01*
X187066Y246379D01*
X186000Y246519D01*
D02*
G37*
G36*
X518700Y203821D02*
X515300D01*
X514182Y203674D01*
X513139Y203242D01*
X512244Y202556D01*
X511558Y201661D01*
X511126Y200618D01*
X510979Y199500D01*
X511126Y198382D01*
X511558Y197339D01*
X512244Y196444D01*
X513139Y195758D01*
X514182Y195326D01*
X515300Y195179D01*
X518700D01*
X519818Y195326D01*
X520861Y195758D01*
X521756Y196444D01*
X522442Y197339D01*
X522874Y198382D01*
X523021Y199500D01*
X522874Y200618D01*
X522442Y201661D01*
X521756Y202556D01*
X520861Y203242D01*
X519818Y203674D01*
X518700Y203821D01*
D02*
G37*
G36*
X485931Y216165D02*
X485069D01*
X484273Y215836D01*
X483664Y215227D01*
X483335Y214431D01*
Y213569D01*
X483664Y212773D01*
X483987Y212451D01*
Y193500D01*
X483987Y193500D01*
X484102Y192921D01*
X484430Y192430D01*
X488430Y188430D01*
X488430Y188430D01*
X488921Y188102D01*
X489500Y187987D01*
X511290D01*
X511558Y187339D01*
X512244Y186444D01*
X513139Y185758D01*
X514182Y185326D01*
X515300Y185179D01*
X518700D01*
X519818Y185326D01*
X520861Y185758D01*
X521756Y186444D01*
X522442Y187339D01*
X522874Y188382D01*
X523021Y189500D01*
X522874Y190618D01*
X522442Y191661D01*
X521756Y192556D01*
X520861Y193242D01*
X519818Y193674D01*
X518700Y193821D01*
X515300D01*
X514182Y193674D01*
X513139Y193242D01*
X512244Y192556D01*
X511558Y191661D01*
X511290Y191013D01*
X490127D01*
X487013Y194127D01*
Y212451D01*
X487336Y212773D01*
X487665Y213569D01*
Y214431D01*
X487336Y215227D01*
X486727Y215836D01*
X485931Y216165D01*
D02*
G37*
G36*
X518700Y183837D02*
X517500D01*
Y180000D01*
X522971D01*
X522889Y180622D01*
X522456Y181669D01*
X521767Y182567D01*
X520868Y183256D01*
X519823Y183689D01*
X518700Y183837D01*
D02*
G37*
G36*
X427000Y181654D02*
Y180000D01*
X428654D01*
X428349Y180736D01*
X427736Y181349D01*
X427000Y181654D01*
D02*
G37*
G36*
X426000D02*
X425265Y181349D01*
X424651Y180736D01*
X424346Y180000D01*
X426000D01*
Y181654D01*
D02*
G37*
G36*
X516500Y183837D02*
X515300D01*
X514178Y183689D01*
X513132Y183256D01*
X512233Y182567D01*
X511544Y181669D01*
X511111Y180622D01*
X511029Y180000D01*
X516500D01*
Y183837D01*
D02*
G37*
G36*
X428654Y179000D02*
X427000D01*
Y177346D01*
X427736Y177651D01*
X428349Y178264D01*
X428654Y179000D01*
D02*
G37*
G36*
X426000D02*
X424346D01*
X424651Y178264D01*
X425265Y177651D01*
X426000Y177346D01*
Y179000D01*
D02*
G37*
G36*
X522971D02*
X517500D01*
Y175163D01*
X518700D01*
X519823Y175311D01*
X520868Y175744D01*
X521767Y176433D01*
X522456Y177331D01*
X522889Y178377D01*
X522971Y179000D01*
D02*
G37*
G36*
X516500D02*
X511029D01*
X511111Y178377D01*
X511544Y177331D01*
X512233Y176433D01*
X513132Y175744D01*
X514178Y175311D01*
X515300Y175163D01*
X516500D01*
Y179000D01*
D02*
G37*
%LPD*%
G36*
X425487Y335373D02*
Y331683D01*
X424987Y331634D01*
X424898Y332079D01*
X424570Y332570D01*
X413570Y343570D01*
X413079Y343898D01*
X412634Y343987D01*
X412683Y344487D01*
X416373D01*
X425487Y335373D01*
D02*
G37*
D15*
X403844Y382500D02*
X404345Y382000D01*
X285500Y382500D02*
X403844D01*
X404345Y382000D02*
X404500D01*
X485500Y193500D02*
Y214000D01*
Y193500D02*
X489500Y189500D01*
X515500D01*
X519500Y282000D02*
Y292500D01*
X432000Y298000D02*
X514000D01*
X519500Y292500D01*
X306000Y263500D02*
X311000Y258500D01*
X306000Y263500D02*
Y310500D01*
X311000Y258500D02*
X491000D01*
X206500Y366000D02*
X268000D01*
X271000Y334500D02*
Y363000D01*
X268000Y366000D02*
X271000Y363000D01*
X203500Y363000D02*
X206500Y366000D01*
X203500Y289000D02*
Y363000D01*
X203000Y389500D02*
Y399500D01*
Y389500D02*
X207500Y385000D01*
X271000Y334500D02*
X276500Y329000D01*
X310500D01*
X327000Y308000D02*
X344500D01*
X283220Y319500D02*
X308500D01*
X283110Y319610D02*
X283220Y319500D01*
X282000D02*
X282110Y319610D01*
X283110D01*
X428000Y265500D02*
X485500D01*
X423500Y270000D02*
X428000Y265500D01*
X423500Y270000D02*
Y331500D01*
X412500Y342500D02*
X423500Y331500D01*
X308500Y342500D02*
X412500D01*
X305000Y346000D02*
X417000D01*
X427000Y336000D01*
Y303000D02*
Y336000D01*
Y303000D02*
X432000Y298000D01*
X310500Y329000D02*
X321500Y318000D01*
X207500Y385000D02*
X291500D01*
X354500Y318000D02*
X356500Y320000D01*
X321500Y318000D02*
X354500D01*
X210000Y319500D02*
Y359000D01*
Y319500D02*
X216500Y313000D01*
X349500D01*
X216500Y326000D02*
X310000D01*
X349500Y313000D02*
X351000Y311500D01*
X372500Y310000D02*
X373000D01*
X504500Y272000D02*
X519500D01*
X491000Y258500D02*
X504500Y272000D01*
X279000Y377500D02*
X486500D01*
X393500Y323500D02*
X404500Y312500D01*
X348500Y323500D02*
X393500D01*
X356500Y320000D02*
X357000D01*
X320500Y315500D02*
X357000D01*
X310000Y326000D02*
X320500Y315500D01*
D68*
X255000Y400000D02*
Y419000D01*
X270000Y434000D01*
X264000Y372000D02*
X274049D01*
X275549Y373500D02*
X285500D01*
X274049Y372000D02*
X275549Y373500D01*
X285500D02*
X289000Y370000D01*
X381250Y370500D02*
X465500D01*
X190500Y220000D02*
X316000D01*
X186000Y224500D02*
X190500Y220000D01*
X186000Y224500D02*
Y241000D01*
X515500Y189500D02*
X517000D01*
X270000Y434000D02*
X276000D01*
X372750Y362000D02*
X381250Y370500D01*
X372500Y362000D02*
X372750D01*
X443744Y398969D02*
X443968D01*
D69*
X430500Y412000D02*
X480000D01*
X490474Y401526D01*
Y392243D02*
Y401526D01*
Y392243D02*
X491622Y391094D01*
X420000Y401500D02*
X430500Y412000D01*
X420000Y391189D02*
Y401500D01*
X419906Y391094D02*
X420000Y391189D01*
X419906Y391094D02*
X420122D01*
D70*
X517000Y199500D02*
D03*
Y189500D02*
D03*
Y179500D02*
D03*
D71*
X519500Y282000D02*
D03*
Y272000D02*
D03*
Y262000D02*
D03*
D72*
Y252000D02*
D03*
D73*
X372500Y280000D02*
D03*
Y300000D02*
D03*
Y290000D02*
D03*
X486500Y491000D02*
D03*
X451750D02*
D03*
X417000D02*
D03*
D74*
X372500Y310000D02*
D03*
D75*
X452000Y283000D02*
D03*
D76*
X451950Y313000D02*
D03*
D77*
X496500Y491000D02*
D03*
X461750D02*
D03*
X427000D02*
D03*
D78*
X443744Y398969D02*
D03*
X396500D02*
D03*
X444500Y447000D02*
D03*
X396500D02*
D03*
X420122Y391094D02*
D03*
X515244Y398969D02*
D03*
X468000D02*
D03*
X516000Y447000D02*
D03*
X468000D02*
D03*
X491622Y391094D02*
D03*
D79*
X176000Y241000D02*
D03*
D80*
X186000D02*
D03*
X196000D02*
D03*
X206000D02*
D03*
X216000D02*
D03*
X226000D02*
D03*
X236000D02*
D03*
X246000D02*
D03*
X256000D02*
D03*
X266000D02*
D03*
X276000D02*
D03*
X286000D02*
D03*
X296000D02*
D03*
X306000D02*
D03*
X316000D02*
D03*
X326000D02*
D03*
D81*
X184500Y278500D02*
D03*
X164500Y268500D02*
D03*
X184500Y258500D02*
D03*
X163000Y311000D02*
D03*
X188000Y291000D02*
D03*
Y311000D02*
D03*
X163000Y291000D02*
D03*
Y346667D02*
D03*
X188000Y326667D02*
D03*
Y346667D02*
D03*
X163000Y326667D02*
D03*
Y382333D02*
D03*
X188000Y362333D02*
D03*
Y382333D02*
D03*
X163000Y362333D02*
D03*
X188000Y398000D02*
D03*
X163000Y418000D02*
D03*
Y398000D02*
D03*
X188000Y418000D02*
D03*
D82*
X199000Y477500D02*
D03*
X174000D02*
D03*
D83*
X189000Y457500D02*
D03*
D84*
X372500Y362000D02*
D03*
X381500Y370500D02*
D03*
D85*
X216500Y326000D02*
D03*
X210000Y359000D02*
D03*
X291500Y385000D02*
D03*
X305000Y346000D02*
D03*
X308500Y342500D02*
D03*
X485500Y265500D02*
D03*
X282000Y319500D02*
D03*
X306000Y310500D02*
D03*
X308500Y319500D02*
D03*
X344500Y308000D02*
D03*
X327000D02*
D03*
X351500Y368500D02*
D03*
X219500Y282500D02*
D03*
X252500Y304500D02*
D03*
X203000Y399500D02*
D03*
X341500Y296000D02*
D03*
X487000Y355500D02*
D03*
X397500Y264500D02*
D03*
X237500Y357000D02*
D03*
X289000Y345500D02*
D03*
X357000Y315500D02*
D03*
X351000Y311500D02*
D03*
X203500Y289000D02*
D03*
X357000Y320000D02*
D03*
X348500Y323500D02*
D03*
X404500Y312500D02*
D03*
X279000Y377500D02*
D03*
X486500D02*
D03*
X404500Y382000D02*
D03*
X285500Y382500D02*
D03*
D86*
X465500Y370500D02*
D03*
D87*
X169500Y251500D02*
D03*
X426500Y179500D02*
D03*
X294500Y463500D02*
D03*
X289000Y370000D02*
D03*
X485500Y214000D02*
D03*
X233000Y395500D02*
D03*
X495000Y309500D02*
D03*
X264000Y372000D02*
D03*
D88*
X316000Y220000D02*
D03*
D89*
X276000Y434000D02*
D03*
X255000Y400000D02*
D03*
M02*
