G04*
G04 #@! TF.GenerationSoftware,Altium Limited,Altium Designer,21.9.2 (33)*
G04*
G04 Layer_Color=255*
%FSLAX25Y25*%
%MOIN*%
G70*
G04*
G04 #@! TF.SameCoordinates,16876C39-77F7-4B8B-AB46-175668DC8D83*
G04*
G04*
G04 #@! TF.FilePolarity,Positive*
G04*
G01*
G75*
%ADD20O,0.05709X0.01181*%
%ADD21O,0.01181X0.05709*%
%ADD22R,0.06693X0.09843*%
%ADD23R,0.03347X0.04724*%
%ADD24R,0.04724X0.05512*%
%ADD25R,0.04724X0.03347*%
%ADD26R,0.05000X0.05500*%
%ADD27O,0.08858X0.06299*%
%ADD28R,0.05512X0.04724*%
%ADD29R,0.39370X0.27559*%
%ADD30R,0.03937X0.12000*%
%ADD31R,0.39370X0.23622*%
%ADD32R,0.15748X0.07874*%
%ADD33R,0.12992X0.09449*%
%ADD34R,0.03937X0.09449*%
%ADD35R,0.09843X0.06693*%
%ADD36R,0.07874X0.15748*%
%ADD70O,0.10000X0.06600*%
%ADD71C,0.05984*%
%ADD72R,0.05984X0.05984*%
%ADD73C,0.06299*%
%ADD74R,0.06299X0.06299*%
%ADD75C,0.05906*%
%ADD76R,0.05906X0.05906*%
%ADD77R,0.06299X0.06299*%
%ADD78C,0.12000*%
%ADD79R,0.06200X0.09000*%
%ADD80O,0.06200X0.09000*%
%ADD81C,0.07500*%
%ADD82R,0.10000X0.16000*%
%ADD83R,0.16000X0.10000*%
D20*
X332634Y327327D02*
D03*
Y325358D02*
D03*
Y323390D02*
D03*
Y321421D02*
D03*
Y319453D02*
D03*
Y317484D02*
D03*
Y315516D02*
D03*
Y313547D02*
D03*
Y311579D02*
D03*
Y309610D02*
D03*
Y307642D02*
D03*
Y305673D02*
D03*
X299366D02*
D03*
Y307642D02*
D03*
Y309610D02*
D03*
Y311579D02*
D03*
Y313547D02*
D03*
Y315516D02*
D03*
Y317484D02*
D03*
Y319453D02*
D03*
Y321421D02*
D03*
Y323390D02*
D03*
Y325358D02*
D03*
Y327327D02*
D03*
D21*
X326827Y299866D02*
D03*
X324858D02*
D03*
X322890D02*
D03*
X320921D02*
D03*
X318953D02*
D03*
X316984D02*
D03*
X315016D02*
D03*
X313047D02*
D03*
X311079D02*
D03*
X309110D02*
D03*
X307142D02*
D03*
X305173D02*
D03*
Y333134D02*
D03*
X307142D02*
D03*
X309110D02*
D03*
X311079D02*
D03*
X313047D02*
D03*
X315016D02*
D03*
X316984D02*
D03*
X318953D02*
D03*
X320921D02*
D03*
X322890D02*
D03*
X324858D02*
D03*
X326827D02*
D03*
D22*
X447000Y351126D02*
D03*
Y366874D02*
D03*
X418500Y281874D02*
D03*
Y266126D02*
D03*
X519500Y350626D02*
D03*
Y366374D02*
D03*
D23*
X417980Y294079D02*
D03*
X421700Y303900D02*
D03*
X414120Y303921D02*
D03*
D24*
X326777Y278987D02*
D03*
X334258D02*
D03*
X297777Y355987D02*
D03*
X305258D02*
D03*
X472743Y373739D02*
D03*
X480223D02*
D03*
X402742Y374739D02*
D03*
X410223D02*
D03*
X210723Y418013D02*
D03*
X203242D02*
D03*
X210757Y409261D02*
D03*
X203277D02*
D03*
Y382387D02*
D03*
X210757D02*
D03*
X210768Y373694D02*
D03*
X203287D02*
D03*
X203277Y346787D02*
D03*
X210757D02*
D03*
X210768Y338627D02*
D03*
X203287D02*
D03*
X203277Y310487D02*
D03*
X210757D02*
D03*
X210747Y302261D02*
D03*
X203267D02*
D03*
X246758Y346261D02*
D03*
X239277D02*
D03*
X177258Y429261D02*
D03*
X169777D02*
D03*
X415277Y312261D02*
D03*
X422757D02*
D03*
D25*
X502000Y339500D02*
D03*
X492179Y343220D02*
D03*
X492157Y335640D02*
D03*
X429921Y339980D02*
D03*
X420100Y343700D02*
D03*
X420079Y336120D02*
D03*
D26*
X493000Y375500D02*
D03*
X502000D02*
D03*
X420500Y374500D02*
D03*
X429500D02*
D03*
X297500Y391500D02*
D03*
X288500D02*
D03*
X238000Y337500D02*
D03*
X247000D02*
D03*
X170000Y437500D02*
D03*
X179000D02*
D03*
D27*
X501732Y353000D02*
D03*
Y363000D02*
D03*
X468268D02*
D03*
Y353000D02*
D03*
X429732D02*
D03*
Y363000D02*
D03*
X396268D02*
D03*
Y353000D02*
D03*
D28*
X479239Y343257D02*
D03*
Y335777D02*
D03*
X407739Y343257D02*
D03*
Y335777D02*
D03*
X287987Y409723D02*
D03*
Y402243D02*
D03*
X238487Y410723D02*
D03*
Y403242D02*
D03*
X278513Y295277D02*
D03*
Y302758D02*
D03*
X297239Y402287D02*
D03*
Y409768D02*
D03*
X351013Y350257D02*
D03*
Y342777D02*
D03*
X359239D02*
D03*
Y350257D02*
D03*
D29*
X268500Y490500D02*
D03*
D30*
X283000Y444500D02*
D03*
X276000D02*
D03*
X269000D02*
D03*
X262000D02*
D03*
X255000D02*
D03*
D31*
X325500Y491000D02*
D03*
X325106Y449268D02*
D03*
D32*
X316024Y403500D02*
D03*
X343976D02*
D03*
D33*
X264000Y386583D02*
D03*
D34*
X254945Y409417D02*
D03*
X264000D02*
D03*
X273055D02*
D03*
D35*
X221626Y435000D02*
D03*
X237374D02*
D03*
D36*
X224500Y484976D02*
D03*
Y457024D02*
D03*
D70*
X517000Y199500D02*
D03*
Y189500D02*
D03*
Y179500D02*
D03*
D71*
X519500Y282000D02*
D03*
Y272000D02*
D03*
Y262000D02*
D03*
D72*
Y252000D02*
D03*
D73*
X372500Y280000D02*
D03*
Y300000D02*
D03*
Y290000D02*
D03*
X486500Y491000D02*
D03*
X451750D02*
D03*
X417000D02*
D03*
D74*
X372500Y310000D02*
D03*
D75*
X452000Y283000D02*
D03*
D76*
X451950Y313000D02*
D03*
D77*
X496500Y491000D02*
D03*
X461750D02*
D03*
X427000D02*
D03*
D78*
X443744Y398969D02*
D03*
X396500D02*
D03*
X444500Y447000D02*
D03*
X396500D02*
D03*
X420122Y391094D02*
D03*
X515244Y398969D02*
D03*
X468000D02*
D03*
X516000Y447000D02*
D03*
X468000D02*
D03*
X491622Y391094D02*
D03*
D79*
X176000Y241000D02*
D03*
D80*
X186000D02*
D03*
X196000D02*
D03*
X206000D02*
D03*
X216000D02*
D03*
X226000D02*
D03*
X236000D02*
D03*
X246000D02*
D03*
X256000D02*
D03*
X266000D02*
D03*
X276000D02*
D03*
X286000D02*
D03*
X296000D02*
D03*
X306000D02*
D03*
X316000D02*
D03*
X326000D02*
D03*
D81*
X184500Y278500D02*
D03*
X164500Y268500D02*
D03*
X184500Y258500D02*
D03*
X163000Y311000D02*
D03*
X188000Y291000D02*
D03*
Y311000D02*
D03*
X163000Y291000D02*
D03*
Y346667D02*
D03*
X188000Y326667D02*
D03*
Y346667D02*
D03*
X163000Y326667D02*
D03*
Y382333D02*
D03*
X188000Y362333D02*
D03*
Y382333D02*
D03*
X163000Y362333D02*
D03*
X188000Y398000D02*
D03*
X163000Y418000D02*
D03*
Y398000D02*
D03*
X188000Y418000D02*
D03*
D82*
X199000Y477500D02*
D03*
X174000D02*
D03*
D83*
X189000Y457500D02*
D03*
M02*
