G04*
G04 #@! TF.GenerationSoftware,Altium Limited,Altium Designer,21.9.2 (33)*
G04*
G04 Layer_Physical_Order=1*
G04 Layer_Color=255*
%FSLAX25Y25*%
%MOIN*%
G70*
G04*
G04 #@! TF.SameCoordinates,16876C39-77F7-4B8B-AB46-175668DC8D83*
G04*
G04*
G04 #@! TF.FilePolarity,Positive*
G04*
G01*
G75*
%ADD15C,0.01000*%
%ADD17C,0.02500*%
%ADD19C,0.03000*%
%ADD20O,0.05709X0.01181*%
%ADD21O,0.01181X0.05709*%
%ADD22R,0.06693X0.09843*%
%ADD23R,0.03347X0.04724*%
%ADD24R,0.04724X0.05512*%
%ADD25R,0.04724X0.03347*%
%ADD26R,0.05000X0.05500*%
%ADD27O,0.08858X0.06299*%
%ADD28R,0.05512X0.04724*%
%ADD29R,0.39370X0.27559*%
%ADD30R,0.03937X0.12000*%
%ADD31R,0.39370X0.23622*%
%ADD32R,0.15748X0.07874*%
%ADD33R,0.12992X0.09449*%
%ADD34R,0.03937X0.09449*%
%ADD35R,0.09843X0.06693*%
%ADD36R,0.07874X0.15748*%
%ADD68C,0.02000*%
%ADD69C,0.06000*%
%ADD70O,0.10000X0.06600*%
%ADD71C,0.05984*%
%ADD72R,0.05984X0.05984*%
%ADD73C,0.06299*%
%ADD74R,0.06299X0.06299*%
%ADD75C,0.05906*%
%ADD76R,0.05906X0.05906*%
%ADD77R,0.06299X0.06299*%
%ADD78C,0.12000*%
%ADD79R,0.06200X0.09000*%
%ADD80O,0.06200X0.09000*%
%ADD81C,0.07500*%
%ADD82R,0.10000X0.16000*%
%ADD83R,0.16000X0.10000*%
%ADD84C,0.03775*%
%ADD85C,0.01575*%
%ADD86C,0.02756*%
%ADD87C,0.02362*%
%ADD88C,0.02575*%
%ADD89C,0.01968*%
G36*
X527993Y164007D02*
X144757D01*
X144757Y503250D01*
X144604Y504018D01*
X144507Y504164D01*
Y506493D01*
X527993D01*
X527993Y164007D01*
D02*
G37*
%LPC*%
G36*
X289185Y505279D02*
X269000D01*
Y491000D01*
X289185D01*
Y505279D01*
D02*
G37*
G36*
X268000D02*
X247815D01*
Y491000D01*
X268000D01*
Y505279D01*
D02*
G37*
G36*
X485328Y505519D02*
X419500D01*
X418460Y505382D01*
X417491Y504980D01*
X416658Y504342D01*
X414158Y501842D01*
X413520Y501009D01*
X413118Y500040D01*
X412981Y499000D01*
Y491974D01*
X412866Y491544D01*
Y490456D01*
X413148Y489404D01*
X413692Y488462D01*
X414462Y487692D01*
X415404Y487148D01*
X416456Y486866D01*
X417544D01*
X418596Y487148D01*
X419538Y487692D01*
X420308Y488462D01*
X420852Y489404D01*
X421134Y490456D01*
Y491544D01*
X421019Y491974D01*
Y497335D01*
X421165Y497481D01*
X447731D01*
Y491974D01*
X447616Y491544D01*
Y490456D01*
X447898Y489404D01*
X448442Y488462D01*
X449212Y487692D01*
X450154Y487148D01*
X451206Y486866D01*
X452294D01*
X453346Y487148D01*
X454288Y487692D01*
X455058Y488462D01*
X455602Y489404D01*
X455884Y490456D01*
Y491544D01*
X455769Y491974D01*
Y497481D01*
X482481D01*
Y491974D01*
X482366Y491544D01*
Y490456D01*
X482648Y489404D01*
X483192Y488462D01*
X483962Y487692D01*
X484904Y487148D01*
X485956Y486866D01*
X487044D01*
X488096Y487148D01*
X489038Y487692D01*
X489808Y488462D01*
X490352Y489404D01*
X490634Y490456D01*
Y491544D01*
X490519Y491974D01*
Y500328D01*
X490382Y501369D01*
X489980Y502338D01*
X489342Y503170D01*
X488170Y504342D01*
X487338Y504980D01*
X486369Y505382D01*
X485328Y505519D01*
D02*
G37*
G36*
X229437Y493850D02*
X225000D01*
Y485476D01*
X229437D01*
Y493850D01*
D02*
G37*
G36*
X224000D02*
X219563D01*
Y485476D01*
X224000D01*
Y493850D01*
D02*
G37*
G36*
X180000Y486500D02*
X174500D01*
Y478000D01*
X180000D01*
Y486500D01*
D02*
G37*
G36*
X173500D02*
X168000D01*
Y478000D01*
X173500D01*
Y486500D01*
D02*
G37*
G36*
X229437Y484476D02*
X225000D01*
Y476102D01*
X229437D01*
Y484476D01*
D02*
G37*
G36*
X224000D02*
X219563D01*
Y476102D01*
X224000D01*
Y484476D01*
D02*
G37*
G36*
X289185Y490000D02*
X269000D01*
Y475721D01*
X289185D01*
Y490000D01*
D02*
G37*
G36*
X268000D02*
X247815D01*
Y475721D01*
X268000D01*
Y490000D01*
D02*
G37*
G36*
X180000Y477000D02*
X174500D01*
Y468500D01*
X180000D01*
Y477000D01*
D02*
G37*
G36*
X173500D02*
X168000D01*
Y468500D01*
X173500D01*
Y477000D01*
D02*
G37*
G36*
X295000Y465654D02*
Y464000D01*
X296654D01*
X296349Y464736D01*
X295736Y465349D01*
X295000Y465654D01*
D02*
G37*
G36*
X294000D02*
X293265Y465349D01*
X292651Y464736D01*
X292346Y464000D01*
X294000D01*
Y465654D01*
D02*
G37*
G36*
X296654Y463000D02*
X295000D01*
Y461346D01*
X295736Y461651D01*
X296349Y462264D01*
X296654Y463000D01*
D02*
G37*
G36*
X294000D02*
X292346D01*
X292651Y462264D01*
X293265Y461651D01*
X294000Y461346D01*
Y463000D01*
D02*
G37*
G36*
X198000Y463500D02*
X189500D01*
Y458000D01*
X198000D01*
Y463500D01*
D02*
G37*
G36*
X188500D02*
X180000D01*
Y458000D01*
X188500D01*
Y463500D01*
D02*
G37*
G36*
X198000Y457000D02*
X189500D01*
Y451500D01*
X198000D01*
Y457000D01*
D02*
G37*
G36*
X188500D02*
X180000D01*
Y451500D01*
X188500D01*
Y457000D01*
D02*
G37*
G36*
X271969Y451500D02*
X269500D01*
Y445000D01*
X271969D01*
Y451500D01*
D02*
G37*
G36*
X285968D02*
X283500D01*
Y445000D01*
X285968D01*
Y451500D01*
D02*
G37*
G36*
X282500D02*
X280031D01*
Y445000D01*
X282500D01*
Y451500D01*
D02*
G37*
G36*
X268500D02*
X266032D01*
Y445000D01*
X268500D01*
Y451500D01*
D02*
G37*
G36*
X496500Y495519D02*
X495460Y495382D01*
X494862Y495134D01*
X492366D01*
Y486866D01*
X494951D01*
X511981Y469835D01*
Y452715D01*
X511548Y452425D01*
X510575Y451452D01*
X509811Y450308D01*
X509284Y449037D01*
X509016Y447688D01*
Y446312D01*
X509284Y444963D01*
X509811Y443692D01*
X510575Y442548D01*
X511548Y441575D01*
X512692Y440811D01*
X513963Y440284D01*
X515312Y440016D01*
X516688D01*
X518037Y440284D01*
X519308Y440811D01*
X520452Y441575D01*
X521425Y442548D01*
X522189Y443692D01*
X522716Y444963D01*
X522984Y446312D01*
Y447688D01*
X522716Y449037D01*
X522189Y450308D01*
X521425Y451452D01*
X520452Y452425D01*
X520019Y452715D01*
Y471500D01*
X519882Y472540D01*
X519480Y473509D01*
X518842Y474342D01*
X500634Y492549D01*
Y495134D01*
X498139D01*
X497540Y495382D01*
X496500Y495519D01*
D02*
G37*
G36*
X468688Y453984D02*
X467312D01*
X465963Y453716D01*
X464692Y453189D01*
X463548Y452425D01*
X462575Y451452D01*
X461811Y450308D01*
X461284Y449037D01*
X461016Y447688D01*
Y446312D01*
X461284Y444963D01*
X461811Y443692D01*
X462575Y442548D01*
X463548Y441575D01*
X464692Y440811D01*
X465963Y440284D01*
X467312Y440016D01*
X468688D01*
X470037Y440284D01*
X471308Y440811D01*
X472452Y441575D01*
X473425Y442548D01*
X474189Y443692D01*
X474716Y444963D01*
X474984Y446312D01*
Y447688D01*
X474716Y449037D01*
X474189Y450308D01*
X473425Y451452D01*
X472452Y452425D01*
X471308Y453189D01*
X470037Y453716D01*
X468688Y453984D01*
D02*
G37*
G36*
X431134Y495134D02*
X422866D01*
Y486866D01*
X424539D01*
X424991Y486520D01*
X425471Y486321D01*
X425669Y485841D01*
X426308Y485009D01*
X440481Y470835D01*
Y452715D01*
X440048Y452425D01*
X439075Y451452D01*
X438311Y450308D01*
X437784Y449037D01*
X437516Y447688D01*
Y446312D01*
X437784Y444963D01*
X438311Y443692D01*
X439075Y442548D01*
X440048Y441575D01*
X441192Y440811D01*
X442463Y440284D01*
X443812Y440016D01*
X445188D01*
X446537Y440284D01*
X447808Y440811D01*
X448952Y441575D01*
X449925Y442548D01*
X450689Y443692D01*
X451216Y444963D01*
X451484Y446312D01*
Y447688D01*
X451216Y449037D01*
X450689Y450308D01*
X449925Y451452D01*
X448952Y452425D01*
X448519Y452715D01*
Y472500D01*
X448382Y473540D01*
X447980Y474509D01*
X447342Y475342D01*
X433068Y489616D01*
X433031Y489890D01*
X432630Y490860D01*
X431991Y491692D01*
X431134Y492549D01*
Y495134D01*
D02*
G37*
G36*
X397188Y453984D02*
X395812D01*
X394463Y453716D01*
X393192Y453189D01*
X392048Y452425D01*
X391075Y451452D01*
X390311Y450308D01*
X389784Y449037D01*
X389516Y447688D01*
Y446312D01*
X389784Y444963D01*
X390311Y443692D01*
X391075Y442548D01*
X392048Y441575D01*
X393192Y440811D01*
X394463Y440284D01*
X395812Y440016D01*
X397188D01*
X398537Y440284D01*
X399808Y440811D01*
X400952Y441575D01*
X401925Y442548D01*
X402689Y443692D01*
X403216Y444963D01*
X403484Y446312D01*
Y447688D01*
X403216Y449037D01*
X402689Y450308D01*
X401925Y451452D01*
X400952Y452425D01*
X399808Y453189D01*
X398537Y453716D01*
X397188Y453984D01*
D02*
G37*
G36*
X182500Y441250D02*
X179500D01*
Y438000D01*
X182500D01*
Y441250D01*
D02*
G37*
G36*
X178500D02*
X175500D01*
Y438000D01*
X178500D01*
Y441250D01*
D02*
G37*
G36*
X204984Y486484D02*
X193016D01*
Y468516D01*
X202255D01*
X202500Y468467D01*
X203451D01*
X210311Y461607D01*
X211133Y461058D01*
X212102Y460865D01*
X219579D01*
Y448165D01*
X229421D01*
Y453991D01*
X245959D01*
X252047Y447902D01*
Y437516D01*
X257953D01*
Y451484D01*
X255629D01*
X248799Y458315D01*
X247977Y458864D01*
X247008Y459057D01*
X229421D01*
Y465882D01*
X222308D01*
X222063Y465931D01*
X213152D01*
X206291Y472791D01*
X205469Y473340D01*
X204984Y473437D01*
Y486484D01*
D02*
G37*
G36*
X285968Y444000D02*
X283500D01*
Y437500D01*
X285968D01*
Y444000D01*
D02*
G37*
G36*
X282500D02*
X280031D01*
Y437500D01*
X282500D01*
Y444000D01*
D02*
G37*
G36*
X271969D02*
X269500D01*
Y437500D01*
X271969D01*
Y444000D01*
D02*
G37*
G36*
X268500D02*
X266032D01*
Y437500D01*
X268500D01*
Y444000D01*
D02*
G37*
G36*
X243295Y439347D02*
X237874D01*
Y435500D01*
X243295D01*
Y439347D01*
D02*
G37*
G36*
X236874D02*
X231453D01*
Y435500D01*
X236874D01*
Y439347D01*
D02*
G37*
G36*
X182500Y437000D02*
X179500D01*
Y433750D01*
X182500D01*
Y437000D01*
D02*
G37*
G36*
X178500D02*
X175500D01*
Y433750D01*
X178500D01*
Y437000D01*
D02*
G37*
G36*
X243295Y434500D02*
X237874D01*
Y430653D01*
X243295D01*
Y434500D01*
D02*
G37*
G36*
X236874D02*
X231453D01*
Y430653D01*
X236874D01*
Y434500D01*
D02*
G37*
G36*
X346169Y503795D02*
X304831D01*
Y478205D01*
X309837D01*
Y475699D01*
X306162Y472023D01*
X269000D01*
X268226Y471869D01*
X267569Y471431D01*
X260569Y464431D01*
X260131Y463774D01*
X259977Y463000D01*
Y451484D01*
X259047D01*
Y437516D01*
X259467D01*
Y432049D01*
X255951Y428533D01*
X225549D01*
X224159Y429923D01*
Y430669D01*
X227532D01*
Y439331D01*
X215721D01*
Y430669D01*
X219093D01*
Y428874D01*
X219286Y427905D01*
X219835Y427083D01*
X222709Y424209D01*
X223531Y423660D01*
X224500Y423467D01*
X257000D01*
X257969Y423660D01*
X258791Y424209D01*
X263791Y429209D01*
X264340Y430031D01*
X264533Y431000D01*
Y437516D01*
X264953D01*
Y451484D01*
X264023D01*
Y462162D01*
X269838Y467977D01*
X307000D01*
X307774Y468131D01*
X308431Y468569D01*
X313291Y473430D01*
X313730Y474086D01*
X313884Y474860D01*
Y478205D01*
X346169D01*
Y503795D01*
D02*
G37*
G36*
X173484Y441234D02*
X166516D01*
Y433766D01*
X167866D01*
Y433001D01*
X166431D01*
Y425521D01*
X173124D01*
Y433001D01*
X171912D01*
Y433766D01*
X173484D01*
Y441234D01*
D02*
G37*
G36*
X188623Y422734D02*
X187377D01*
X186173Y422412D01*
X185093Y421788D01*
X184212Y420907D01*
X183701Y420023D01*
X167299D01*
X166788Y420907D01*
X165907Y421788D01*
X164827Y422412D01*
X163623Y422734D01*
X162377D01*
X161173Y422412D01*
X160093Y421788D01*
X159212Y420907D01*
X158588Y419827D01*
X158266Y418623D01*
Y417377D01*
X158588Y416173D01*
X159212Y415093D01*
X160093Y414212D01*
X161173Y413588D01*
X162377Y413266D01*
X163623D01*
X164827Y413588D01*
X165907Y414212D01*
X166788Y415093D01*
X167299Y415977D01*
X183701D01*
X184212Y415093D01*
X185093Y414212D01*
X186173Y413588D01*
X187377Y413266D01*
X188623D01*
X189827Y413588D01*
X190907Y414212D01*
X191788Y415093D01*
X192303Y415984D01*
X199896D01*
Y414273D01*
X201237D01*
Y413001D01*
X199931D01*
Y405520D01*
X201487D01*
Y400476D01*
X201228Y399852D01*
Y399148D01*
X201498Y398496D01*
X201996Y397998D01*
X202648Y397728D01*
X203352D01*
X204004Y397998D01*
X204502Y398496D01*
X204772Y399148D01*
Y399852D01*
X204513Y400476D01*
Y405520D01*
X206624D01*
Y413001D01*
X205283D01*
Y414273D01*
X206589D01*
Y421754D01*
X199896D01*
Y420030D01*
X192295D01*
X191788Y420907D01*
X190907Y421788D01*
X189827Y422412D01*
X188623Y422734D01*
D02*
G37*
G36*
X214085Y421769D02*
X211223D01*
Y418513D01*
X214085D01*
Y421769D01*
D02*
G37*
G36*
X210223D02*
X207361D01*
Y418513D01*
X210223D01*
Y421769D01*
D02*
G37*
G36*
X214085Y417513D02*
X211223D01*
Y414257D01*
X214085D01*
Y417513D01*
D02*
G37*
G36*
X210223D02*
X207361D01*
Y414257D01*
X210223D01*
Y417513D01*
D02*
G37*
G36*
X292500Y425523D02*
X269500D01*
X268726Y425369D01*
X268069Y424931D01*
X262569Y419431D01*
X262131Y418774D01*
X261977Y418000D01*
Y415126D01*
X261047D01*
Y403709D01*
X261977D01*
Y392291D01*
X256520D01*
Y380874D01*
X261977D01*
Y372774D01*
X261835Y372431D01*
Y371569D01*
X262164Y370773D01*
X262773Y370164D01*
X263569Y369835D01*
X264431D01*
X265227Y370164D01*
X265836Y370773D01*
X266165Y371569D01*
Y372431D01*
X266023Y372774D01*
Y380874D01*
X271480D01*
Y392291D01*
X266023D01*
Y403709D01*
X266953D01*
Y415126D01*
X266023D01*
Y417162D01*
X270338Y421477D01*
X291662D01*
X294504Y418635D01*
X294477Y418500D01*
X294631Y417726D01*
X295069Y417069D01*
X295216Y416923D01*
Y413114D01*
X293499D01*
Y411768D01*
X291727D01*
Y413069D01*
X284246D01*
Y406376D01*
X291727D01*
Y407722D01*
X293499D01*
Y406421D01*
X300979D01*
Y413114D01*
X299262D01*
Y417566D01*
X299369Y417726D01*
X299523Y418500D01*
X299369Y419274D01*
X298931Y419931D01*
X293931Y424931D01*
X293274Y425369D01*
X292500Y425523D01*
D02*
G37*
G36*
X276024Y415142D02*
X273555D01*
Y409917D01*
X276024D01*
Y415142D01*
D02*
G37*
G36*
X272555D02*
X270087D01*
Y409917D01*
X272555D01*
Y415142D01*
D02*
G37*
G36*
X324898Y408437D02*
X316524D01*
Y404000D01*
X324898D01*
Y408437D01*
D02*
G37*
G36*
X315524D02*
X307150D01*
Y404000D01*
X315524D01*
Y408437D01*
D02*
G37*
G36*
X242243Y406605D02*
X238987D01*
Y403743D01*
X242243D01*
Y406605D01*
D02*
G37*
G36*
X237987D02*
X234731D01*
Y403743D01*
X237987D01*
Y406605D01*
D02*
G37*
G36*
X276024Y408917D02*
X273555D01*
Y403693D01*
X276024D01*
Y408917D01*
D02*
G37*
G36*
X272555D02*
X270087D01*
Y403693D01*
X272555D01*
Y408917D01*
D02*
G37*
G36*
X291742Y405605D02*
X288487D01*
Y402742D01*
X291742D01*
Y405605D01*
D02*
G37*
G36*
X287487D02*
X284231D01*
Y402742D01*
X287487D01*
Y405605D01*
D02*
G37*
G36*
X242243Y402742D02*
X238987D01*
Y399880D01*
X242243D01*
Y402742D01*
D02*
G37*
G36*
X237987D02*
X234731D01*
Y399880D01*
X237987D01*
Y402742D01*
D02*
G37*
G36*
X291742Y401743D02*
X288487D01*
Y398880D01*
X291742D01*
Y401743D01*
D02*
G37*
G36*
X287487D02*
X284231D01*
Y398880D01*
X287487D01*
Y401743D01*
D02*
G37*
G36*
X324898Y403000D02*
X316524D01*
Y398563D01*
X324898D01*
Y403000D01*
D02*
G37*
G36*
X315524D02*
X307150D01*
Y398563D01*
X315524D01*
Y403000D01*
D02*
G37*
G36*
X188625Y402750D02*
X188500D01*
Y398500D01*
X192750D01*
Y398625D01*
X192426Y399833D01*
X191801Y400917D01*
X190917Y401801D01*
X189833Y402426D01*
X188625Y402750D01*
D02*
G37*
G36*
X163625D02*
X163500D01*
Y398500D01*
X167750D01*
Y398625D01*
X167426Y399833D01*
X166801Y400917D01*
X165917Y401801D01*
X164833Y402426D01*
X163625Y402750D01*
D02*
G37*
G36*
X187500D02*
X187375D01*
X186167Y402426D01*
X185083Y401801D01*
X184199Y400917D01*
X183574Y399833D01*
X183250Y398625D01*
Y398500D01*
X187500D01*
Y402750D01*
D02*
G37*
G36*
X162500D02*
X162375D01*
X161167Y402426D01*
X160083Y401801D01*
X159199Y400917D01*
X158574Y399833D01*
X158250Y398625D01*
Y398500D01*
X162500D01*
Y402750D01*
D02*
G37*
G36*
X180604Y433001D02*
X173911D01*
Y425521D01*
X180604D01*
Y427238D01*
X209401D01*
X218847Y417792D01*
X218980Y417703D01*
X219069Y417569D01*
X219726Y417131D01*
X220500Y416977D01*
X228978D01*
X234747Y411208D01*
Y407376D01*
X242227D01*
Y410477D01*
X251992D01*
Y403709D01*
X252977D01*
Y400000D01*
X253031Y399725D01*
Y399608D01*
X253076Y399500D01*
X253131Y399226D01*
X253286Y398993D01*
X253331Y398885D01*
X253414Y398802D01*
X253569Y398569D01*
X253802Y398414D01*
X253885Y398331D01*
X253993Y398286D01*
X254226Y398131D01*
X254500Y398076D01*
X254608Y398031D01*
X254725D01*
X255000Y397977D01*
X255275Y398031D01*
X255392D01*
X255500Y398076D01*
X255774Y398131D01*
X256007Y398286D01*
X256115Y398331D01*
X256198Y398414D01*
X256431Y398569D01*
X256586Y398802D01*
X256669Y398885D01*
X256714Y398993D01*
X256869Y399226D01*
X256924Y399500D01*
X256968Y399608D01*
Y399725D01*
X257023Y400000D01*
Y403709D01*
X257898D01*
Y415126D01*
X251992D01*
Y414523D01*
X240657D01*
X239883Y414369D01*
X239435Y414069D01*
X237608D01*
X231246Y420431D01*
X230590Y420869D01*
X229816Y421023D01*
X221338D01*
X211670Y430691D01*
X211014Y431130D01*
X210239Y431284D01*
X180604D01*
Y433001D01*
D02*
G37*
G36*
X233500Y397654D02*
Y396000D01*
X235154D01*
X234849Y396736D01*
X234236Y397349D01*
X233500Y397654D01*
D02*
G37*
G36*
X232500D02*
X231765Y397349D01*
X231151Y396736D01*
X230846Y396000D01*
X232500D01*
Y397654D01*
D02*
G37*
G36*
X235154Y395000D02*
X233500D01*
Y393346D01*
X234236Y393651D01*
X234849Y394265D01*
X235154Y395000D01*
D02*
G37*
G36*
X232500D02*
X230846D01*
X231151Y394265D01*
X231765Y393651D01*
X232500Y393346D01*
Y395000D01*
D02*
G37*
G36*
X192750Y397500D02*
X188500D01*
Y393250D01*
X188625D01*
X189833Y393574D01*
X190917Y394199D01*
X191801Y395083D01*
X192426Y396167D01*
X192750Y397375D01*
Y397500D01*
D02*
G37*
G36*
X187500D02*
X183250D01*
Y397375D01*
X183574Y396167D01*
X184199Y395083D01*
X185083Y394199D01*
X186167Y393574D01*
X187375Y393250D01*
X187500D01*
Y397500D01*
D02*
G37*
G36*
X167750D02*
X163500D01*
Y393250D01*
X163625D01*
X164833Y393574D01*
X165917Y394199D01*
X166801Y395083D01*
X167426Y396167D01*
X167750Y397375D01*
Y397500D01*
D02*
G37*
G36*
X162500D02*
X158250D01*
Y397375D01*
X158574Y396167D01*
X159199Y395083D01*
X160083Y394199D01*
X161167Y393574D01*
X162375Y393250D01*
X162500D01*
Y397500D01*
D02*
G37*
G36*
X292000Y395250D02*
X289000D01*
Y392000D01*
X292000D01*
Y395250D01*
D02*
G37*
G36*
X288000D02*
X285000D01*
Y392000D01*
X288000D01*
Y395250D01*
D02*
G37*
G36*
X300979Y405634D02*
X293499D01*
Y398941D01*
X295347D01*
Y395234D01*
X294016D01*
Y387766D01*
X300984D01*
Y395234D01*
X299393D01*
Y398941D01*
X300979D01*
Y405634D01*
D02*
G37*
G36*
X292000Y391000D02*
X289000D01*
Y387750D01*
X292000D01*
Y391000D01*
D02*
G37*
G36*
X288000D02*
X285000D01*
Y387750D01*
X288000D01*
Y391000D01*
D02*
G37*
G36*
X188623Y387068D02*
X187377D01*
X186173Y386745D01*
X185093Y386122D01*
X184212Y385240D01*
X183717Y384383D01*
X167283D01*
X166788Y385240D01*
X165907Y386122D01*
X164827Y386745D01*
X163623Y387068D01*
X162377D01*
X161173Y386745D01*
X160093Y386122D01*
X159212Y385240D01*
X158588Y384161D01*
X158266Y382957D01*
Y381710D01*
X158588Y380506D01*
X159212Y379426D01*
X160093Y378545D01*
X161173Y377922D01*
X162377Y377599D01*
X163623D01*
X164827Y377922D01*
X165907Y378545D01*
X166788Y379426D01*
X167314Y380337D01*
X183686D01*
X184212Y379426D01*
X185093Y378545D01*
X186173Y377922D01*
X187377Y377599D01*
X188623D01*
X189827Y377922D01*
X190907Y378545D01*
X191788Y379426D01*
X192314Y380337D01*
X199931D01*
Y378646D01*
X201264D01*
Y377434D01*
X199941D01*
Y369954D01*
X201774D01*
Y361713D01*
X201774Y361713D01*
X201889Y361134D01*
X202217Y360643D01*
X204930Y357930D01*
X204930Y357930D01*
X205421Y357602D01*
X206000Y357487D01*
X209024D01*
X209648Y357228D01*
X210352D01*
X211004Y357498D01*
X211502Y357996D01*
X211772Y358648D01*
Y359352D01*
X211502Y360004D01*
X211004Y360502D01*
X210352Y360772D01*
X209648D01*
X209024Y360513D01*
X206627D01*
X204801Y362339D01*
Y369954D01*
X206634D01*
Y377434D01*
X205311D01*
Y378646D01*
X206624D01*
Y386127D01*
X199931D01*
Y384383D01*
X192283D01*
X191788Y385240D01*
X190907Y386122D01*
X189827Y386745D01*
X188623Y387068D01*
D02*
G37*
G36*
X465884Y495134D02*
X457616D01*
Y492024D01*
X457481Y491000D01*
X457616Y489976D01*
Y486866D01*
X460201D01*
X460380Y486687D01*
X460419Y486591D01*
X461058Y485759D01*
X487603Y459213D01*
Y396809D01*
X487170Y396519D01*
X486197Y395547D01*
X485433Y394403D01*
X484906Y393132D01*
X484638Y391782D01*
Y390407D01*
X484906Y389057D01*
X485433Y387786D01*
X486197Y386642D01*
X487170Y385669D01*
X488314Y384905D01*
X489585Y384379D01*
X490934Y384110D01*
X492310D01*
X493659Y384379D01*
X494930Y384905D01*
X496074Y385669D01*
X497047Y386642D01*
X497811Y387786D01*
X498338Y389057D01*
X498606Y390407D01*
Y391782D01*
X498338Y393132D01*
X497811Y394403D01*
X497047Y395547D01*
X496074Y396519D01*
X495641Y396809D01*
Y460878D01*
X495504Y461918D01*
X495102Y462887D01*
X494464Y463720D01*
X467420Y490764D01*
X467380Y490860D01*
X466741Y491692D01*
X465884Y492549D01*
Y495134D01*
D02*
G37*
G36*
X420810Y398079D02*
X419434D01*
X418085Y397810D01*
X416814Y397284D01*
X415670Y396519D01*
X414697Y395547D01*
X413933Y394403D01*
X413406Y393132D01*
X413138Y391782D01*
Y390407D01*
X413406Y389057D01*
X413933Y387786D01*
X414697Y386642D01*
X415670Y385669D01*
X416814Y384905D01*
X418085Y384379D01*
X419434Y384110D01*
X420810D01*
X422159Y384379D01*
X423430Y384905D01*
X424574Y385669D01*
X425547Y386642D01*
X426311Y387786D01*
X426838Y389057D01*
X427106Y390407D01*
Y391782D01*
X426838Y393132D01*
X426311Y394403D01*
X425547Y395547D01*
X424574Y396519D01*
X423430Y397284D01*
X422159Y397810D01*
X420810Y398079D01*
D02*
G37*
G36*
X214120Y386142D02*
X211258D01*
Y382887D01*
X214120D01*
Y386142D01*
D02*
G37*
G36*
X210258D02*
X207395D01*
Y382887D01*
X210258D01*
Y386142D01*
D02*
G37*
G36*
X214120Y381887D02*
X211258D01*
Y378631D01*
X214120D01*
Y381887D01*
D02*
G37*
G36*
X210258D02*
X207395D01*
Y378631D01*
X210258D01*
Y381887D01*
D02*
G37*
G36*
X476089Y377480D02*
X469396D01*
Y373254D01*
X468810Y372668D01*
X466439D01*
X465970Y372862D01*
X465030D01*
X464162Y372503D01*
X463497Y371838D01*
X463138Y370970D01*
Y370030D01*
X463497Y369162D01*
X464162Y368497D01*
X465030Y368138D01*
X465970D01*
X466838Y368497D01*
X466962Y368621D01*
X469648D01*
X470422Y368776D01*
X471078Y369214D01*
X471864Y369999D01*
X476089D01*
Y377480D01*
D02*
G37*
G36*
X486852Y379272D02*
X486148D01*
X485496Y379002D01*
X484998Y378504D01*
X484728Y377852D01*
Y377148D01*
X484998Y376496D01*
X485496Y375998D01*
X486120Y375740D01*
X487430Y374430D01*
X487430Y374430D01*
X487921Y374102D01*
X488500Y373987D01*
X488500Y373987D01*
X489516D01*
Y371766D01*
X496484D01*
Y379234D01*
X489516D01*
Y377281D01*
X489016Y377124D01*
X488260Y377880D01*
X488002Y378504D01*
X487504Y379002D01*
X486852Y379272D01*
D02*
G37*
G36*
X406089Y378480D02*
X399396D01*
Y376763D01*
X385587D01*
X384812Y376608D01*
X384156Y376170D01*
X381358Y373372D01*
X381122D01*
X380392Y373176D01*
X379737Y372798D01*
X379202Y372263D01*
X378824Y371608D01*
X378628Y370878D01*
Y370122D01*
X378824Y369392D01*
X379202Y368737D01*
X379737Y368202D01*
X380392Y367824D01*
X381122Y367628D01*
X381878D01*
X382608Y367824D01*
X383263Y368202D01*
X383798Y368737D01*
X384176Y369392D01*
X384372Y370122D01*
Y370663D01*
X386425Y372716D01*
X399396D01*
Y370999D01*
X406089D01*
Y378480D01*
D02*
G37*
G36*
X404852Y383772D02*
X404148D01*
X403496Y383502D01*
X402998Y383004D01*
X402728Y382352D01*
Y381648D01*
X402998Y380996D01*
X403496Y380498D01*
X404148Y380228D01*
X404852D01*
X405476Y380487D01*
X412373D01*
X417016Y375844D01*
Y370766D01*
X423984D01*
Y378234D01*
X418906D01*
X414070Y383070D01*
X413579Y383398D01*
X413000Y383513D01*
X413000Y383513D01*
X405476D01*
X404852Y383772D01*
D02*
G37*
G36*
X352000Y370228D02*
Y369000D01*
X353228D01*
X353015Y369513D01*
X352513Y370015D01*
X352000Y370228D01*
D02*
G37*
G36*
X351000D02*
X350487Y370015D01*
X349985Y369513D01*
X349772Y369000D01*
X351000D01*
Y370228D01*
D02*
G37*
G36*
X353228Y368000D02*
X352000D01*
Y366772D01*
X352513Y366985D01*
X353015Y367488D01*
X353228Y368000D01*
D02*
G37*
G36*
X351000D02*
X349772D01*
X349985Y367488D01*
X350487Y366985D01*
X351000Y366772D01*
Y368000D01*
D02*
G37*
G36*
X345776Y462063D02*
X304437D01*
Y460523D01*
X280500D01*
X279726Y460369D01*
X279069Y459931D01*
X274569Y455431D01*
X274131Y454774D01*
X273977Y454000D01*
Y451484D01*
X273047D01*
Y437516D01*
X273977D01*
Y434000D01*
X274031Y433725D01*
Y433608D01*
X274076Y433500D01*
X274131Y433226D01*
X274286Y432993D01*
X274331Y432885D01*
X274414Y432802D01*
X274569Y432569D01*
X274802Y432414D01*
X274885Y432331D01*
X274993Y432286D01*
X275226Y432131D01*
X275500Y432076D01*
X275608Y432031D01*
X275725D01*
X276000Y431977D01*
X276275Y432031D01*
X276392D01*
X276500Y432076D01*
X276774Y432131D01*
X277007Y432286D01*
X277115Y432331D01*
X277198Y432414D01*
X277431Y432569D01*
X277586Y432802D01*
X277669Y432885D01*
X277714Y432993D01*
X277869Y433226D01*
X277924Y433500D01*
X277969Y433608D01*
Y433725D01*
X278023Y434000D01*
Y437516D01*
X278953D01*
Y444646D01*
X279023Y445000D01*
X278953Y445354D01*
Y451484D01*
X278023D01*
Y453162D01*
X281338Y456477D01*
X304437D01*
Y436473D01*
X337977D01*
Y408421D01*
X335118D01*
Y398579D01*
X352835D01*
Y398977D01*
X360453D01*
Y379024D01*
X360607Y378249D01*
X361046Y377593D01*
X373386Y365253D01*
X373127Y364805D01*
X372878Y364872D01*
X372122D01*
X371392Y364676D01*
X370737Y364298D01*
X370202Y363763D01*
X369824Y363108D01*
X369628Y362378D01*
Y361622D01*
X369824Y360892D01*
X370202Y360237D01*
X370477Y359962D01*
Y314134D01*
X368366D01*
Y311513D01*
X360000D01*
X360000Y311513D01*
X359421Y311398D01*
X358930Y311070D01*
X358930Y311070D01*
X357373Y309513D01*
X352140D01*
X352022Y309931D01*
X352019Y310013D01*
X352502Y310496D01*
X352772Y311148D01*
Y311852D01*
X352502Y312504D01*
X352004Y313002D01*
X351457Y313228D01*
X351309Y313494D01*
X351579Y313995D01*
X356005D01*
X356648Y313728D01*
X357352D01*
X358004Y313998D01*
X358502Y314496D01*
X358772Y315148D01*
Y315852D01*
X358502Y316504D01*
X358004Y317002D01*
X357352Y317272D01*
X357119D01*
X356912Y317772D01*
X357380Y318240D01*
X358004Y318498D01*
X358502Y318996D01*
X358772Y319648D01*
Y320352D01*
X358502Y321004D01*
X358004Y321502D01*
X357352Y321772D01*
X356648D01*
X355996Y321502D01*
X355498Y321004D01*
X355240Y320380D01*
X353857Y318998D01*
X351791D01*
X351600Y319460D01*
X358053Y325913D01*
X358053Y325913D01*
X358382Y326404D01*
X358497Y326983D01*
X358497Y326983D01*
Y339431D01*
X362980D01*
Y346124D01*
X355499D01*
Y341061D01*
X355470Y340915D01*
X355470Y340915D01*
Y327610D01*
X350675Y322815D01*
X350251Y323099D01*
X350272Y323148D01*
Y323852D01*
X350002Y324504D01*
X349504Y325002D01*
X348852Y325272D01*
X348148D01*
X347496Y325002D01*
X347398Y324903D01*
X336823D01*
X336506Y325290D01*
X336519Y325358D01*
X336506Y325427D01*
X336823Y325813D01*
X343327D01*
X343327Y325813D01*
X343906Y325929D01*
X344397Y326257D01*
X350570Y332430D01*
X350570Y332430D01*
X350898Y332921D01*
X351013Y333500D01*
X351013Y333500D01*
Y339431D01*
X354753D01*
Y346124D01*
X347273D01*
Y339431D01*
X347987D01*
Y334127D01*
X342700Y328840D01*
X335362D01*
X334898Y328932D01*
X330370D01*
X329906Y328840D01*
X328340D01*
Y330406D01*
X328432Y330870D01*
Y335398D01*
X328310Y336012D01*
X327962Y336533D01*
X327441Y336881D01*
X326827Y337003D01*
X326212Y336881D01*
X325842Y336634D01*
X325473Y336881D01*
X324858Y337003D01*
X324244Y336881D01*
X323874Y336634D01*
X323504Y336881D01*
X322890Y337003D01*
X322275Y336881D01*
X321905Y336634D01*
X321536Y336881D01*
X320921Y337003D01*
X320307Y336881D01*
X319937Y336634D01*
X319567Y336881D01*
X318953Y337003D01*
X318338Y336881D01*
X317969Y336634D01*
X317599Y336881D01*
X316984Y337003D01*
X316916Y336990D01*
X316529Y337307D01*
Y379984D01*
X316414Y380563D01*
X316086Y381054D01*
X316086Y381054D01*
X311070Y386070D01*
X310579Y386398D01*
X310000Y386513D01*
X310000Y386513D01*
X292476D01*
X291852Y386772D01*
X291148D01*
X290496Y386502D01*
X289998Y386004D01*
X289728Y385352D01*
Y384648D01*
X289998Y383996D01*
X290496Y383498D01*
X291148Y383228D01*
X291852D01*
X292476Y383487D01*
X309373D01*
X313502Y379357D01*
Y337323D01*
X313116Y337006D01*
X313047Y337019D01*
X312979Y337006D01*
X312592Y337323D01*
Y346421D01*
X312592Y346421D01*
X312477Y347000D01*
X312149Y347491D01*
X309570Y350070D01*
X309079Y350398D01*
X308500Y350513D01*
X308500Y350513D01*
X301127D01*
X299856Y351784D01*
X300047Y352246D01*
X301124D01*
Y359727D01*
X299800D01*
Y361223D01*
X299646Y361997D01*
X299208Y362653D01*
X290978Y370883D01*
X290836Y371227D01*
X290227Y371836D01*
X289431Y372165D01*
X288569D01*
X287773Y371836D01*
X287164Y371227D01*
X286835Y370431D01*
Y369569D01*
X287164Y368773D01*
X287773Y368164D01*
X288117Y368022D01*
X295754Y360385D01*
Y359727D01*
X294431D01*
Y352246D01*
X296264D01*
Y351723D01*
X296264Y351723D01*
X296379Y351144D01*
X296707Y350653D01*
X299430Y347930D01*
X299430Y347930D01*
X299921Y347602D01*
X300500Y347487D01*
X303328D01*
X303519Y347025D01*
X303498Y347004D01*
X303228Y346352D01*
Y345648D01*
X303498Y344996D01*
X303660Y344835D01*
Y335862D01*
X303568Y335398D01*
Y330870D01*
X303690Y330256D01*
X304038Y329735D01*
X304559Y329387D01*
X305173Y329264D01*
X305242Y329278D01*
X305628Y328961D01*
Y328358D01*
X305628Y328358D01*
X305663Y328184D01*
X305202Y327938D01*
X304743Y328397D01*
X304252Y328725D01*
X303673Y328840D01*
X303673Y328840D01*
X302094D01*
X301630Y328932D01*
X297102D01*
X296488Y328810D01*
X295967Y328462D01*
X295619Y327941D01*
X295497Y327327D01*
X295510Y327258D01*
X295193Y326872D01*
X283769D01*
X280513Y330127D01*
Y376524D01*
X280772Y377148D01*
Y377852D01*
X280502Y378504D01*
X280004Y379002D01*
X279352Y379272D01*
X278648D01*
X277996Y379002D01*
X277513Y378519D01*
X277431Y378522D01*
X277013Y378640D01*
Y380787D01*
X277213Y380987D01*
X284524D01*
X285148Y380728D01*
X285852D01*
X286504Y380998D01*
X287002Y381496D01*
X287272Y382148D01*
Y382852D01*
X287002Y383504D01*
X286504Y384002D01*
X285852Y384272D01*
X285148D01*
X284524Y384013D01*
X276586D01*
X276586Y384013D01*
X276007Y383898D01*
X275516Y383570D01*
X274430Y382484D01*
X274102Y381993D01*
X273987Y381414D01*
X273987Y381414D01*
Y326500D01*
X273987Y326500D01*
X274021Y326326D01*
X273561Y326080D01*
X272013Y327627D01*
Y347500D01*
X271898Y348079D01*
X271570Y348570D01*
X271570Y348570D01*
X266070Y354070D01*
X265579Y354398D01*
X265000Y354513D01*
X265000Y354513D01*
X243500D01*
X243500Y354513D01*
X242921Y354398D01*
X242430Y354070D01*
X240069Y351710D01*
X239741Y351219D01*
X239626Y350639D01*
X239626Y350639D01*
Y350501D01*
X239500Y350030D01*
X239354Y350001D01*
X235931D01*
Y342520D01*
X242624D01*
Y348370D01*
X242653Y348517D01*
Y350012D01*
X244127Y351487D01*
X264373D01*
X268987Y346873D01*
Y327000D01*
X268987Y327000D01*
X269102Y326421D01*
X269430Y325930D01*
X276930Y318430D01*
X276930Y318430D01*
X277421Y318102D01*
X278000Y317987D01*
X281024D01*
X281648Y317728D01*
X282352D01*
X283004Y317998D01*
X283502Y318496D01*
X283772Y319148D01*
Y319852D01*
X283502Y320504D01*
X283004Y321002D01*
X282352Y321272D01*
X281648D01*
X281024Y321013D01*
X278627D01*
X278190Y321450D01*
X278436Y321911D01*
X278610Y321876D01*
X278610Y321876D01*
X295193D01*
X295510Y321490D01*
X295497Y321421D01*
X295619Y320807D01*
X295866Y320437D01*
X295619Y320067D01*
X295497Y319453D01*
X295619Y318838D01*
X295866Y318468D01*
X295619Y318099D01*
X295497Y317484D01*
X295619Y316870D01*
X295866Y316500D01*
X295619Y316130D01*
X295497Y315516D01*
X295619Y314901D01*
X295866Y314531D01*
X295619Y314162D01*
X295497Y313547D01*
X295619Y312933D01*
X295866Y312563D01*
X295619Y312193D01*
X295497Y311579D01*
X295619Y310964D01*
X295866Y310595D01*
X295619Y310225D01*
X295497Y309610D01*
X295619Y308996D01*
X295857Y308640D01*
X295604Y308262D01*
X295580Y308142D01*
X296465D01*
X296488Y308127D01*
X297102Y308004D01*
X299366D01*
Y307279D01*
X297102D01*
X296488Y307157D01*
X296465Y307142D01*
X295580D01*
X295604Y307021D01*
X295857Y306643D01*
X295619Y306288D01*
X295612Y306252D01*
X287057Y297697D01*
X282254D01*
Y298624D01*
X274773D01*
Y297300D01*
X226806D01*
Y336040D01*
X234516D01*
Y333766D01*
X241484D01*
Y341234D01*
X234516D01*
Y340087D01*
X226806D01*
Y373000D01*
Y403717D01*
X226652Y404491D01*
X226214Y405147D01*
X220670Y410691D01*
X220014Y411130D01*
X219239Y411284D01*
X214104D01*
Y413001D01*
X207411D01*
Y405520D01*
X214104D01*
Y407237D01*
X218401D01*
X222760Y402879D01*
Y375023D01*
X214114D01*
Y377434D01*
X207421D01*
Y369954D01*
X214114D01*
Y370977D01*
X222760D01*
Y340087D01*
X214114D01*
Y342367D01*
X207421D01*
Y334887D01*
X214114D01*
Y336040D01*
X222760D01*
Y297300D01*
X218569D01*
X214094Y301775D01*
Y306001D01*
X207401D01*
Y298520D01*
X211626D01*
X216300Y293847D01*
X216956Y293408D01*
X217731Y293254D01*
X274773D01*
Y291931D01*
X282254D01*
Y294670D01*
X287684D01*
X287684Y294670D01*
X288263Y294785D01*
X288754Y295113D01*
X297708Y304068D01*
X301630D01*
X302094Y304160D01*
X304744D01*
X304793Y303660D01*
X304559Y303613D01*
X304038Y303265D01*
X303690Y302744D01*
X303568Y302130D01*
Y297602D01*
X303660Y297138D01*
Y292300D01*
X286873Y275513D01*
X215000D01*
X214421Y275398D01*
X213930Y275070D01*
X213930Y275070D01*
X204930Y266070D01*
X204602Y265579D01*
X204487Y265000D01*
X204487Y265000D01*
Y246194D01*
X203940Y245968D01*
X203087Y245313D01*
X202432Y244460D01*
X202021Y243466D01*
X201881Y242400D01*
Y239600D01*
X202021Y238534D01*
X202432Y237540D01*
X203087Y236687D01*
X203940Y236032D01*
X204934Y235621D01*
X206000Y235480D01*
X207066Y235621D01*
X208060Y236032D01*
X208913Y236687D01*
X209568Y237540D01*
X209979Y238534D01*
X210120Y239600D01*
Y242400D01*
X209979Y243466D01*
X209568Y244460D01*
X208913Y245313D01*
X208060Y245968D01*
X207513Y246194D01*
Y264373D01*
X215627Y272487D01*
X287500D01*
X287500Y272487D01*
X288079Y272602D01*
X288570Y272930D01*
X305167Y289526D01*
X305628Y289335D01*
Y287769D01*
X287373Y269513D01*
X224500D01*
X224500Y269513D01*
X223921Y269398D01*
X223430Y269070D01*
X223430Y269070D01*
X214930Y260570D01*
X214602Y260079D01*
X214487Y259500D01*
X214487Y259500D01*
Y246194D01*
X213940Y245968D01*
X213087Y245313D01*
X212432Y244460D01*
X212021Y243466D01*
X211880Y242400D01*
Y239600D01*
X212021Y238534D01*
X212432Y237540D01*
X213087Y236687D01*
X213940Y236032D01*
X214934Y235621D01*
X216000Y235480D01*
X217066Y235621D01*
X218060Y236032D01*
X218913Y236687D01*
X219568Y237540D01*
X219979Y238534D01*
X220120Y239600D01*
Y242400D01*
X219979Y243466D01*
X219568Y244460D01*
X218913Y245313D01*
X218060Y245968D01*
X217513Y246194D01*
Y258873D01*
X225127Y266487D01*
X288000D01*
X288000Y266487D01*
X288579Y266602D01*
X289070Y266930D01*
X307135Y284995D01*
X307597Y284804D01*
Y284237D01*
X287373Y264013D01*
X235000D01*
X234421Y263898D01*
X233930Y263570D01*
X233930Y263570D01*
X224930Y254570D01*
X224602Y254079D01*
X224487Y253500D01*
X224487Y253500D01*
Y246194D01*
X223940Y245968D01*
X223087Y245313D01*
X222432Y244460D01*
X222021Y243466D01*
X221881Y242400D01*
Y239600D01*
X222021Y238534D01*
X222432Y237540D01*
X223087Y236687D01*
X223940Y236032D01*
X224934Y235621D01*
X226000Y235480D01*
X227066Y235621D01*
X228060Y236032D01*
X228913Y236687D01*
X229568Y237540D01*
X229979Y238534D01*
X230119Y239600D01*
Y242400D01*
X229979Y243466D01*
X229568Y244460D01*
X228913Y245313D01*
X228060Y245968D01*
X227513Y246194D01*
Y252873D01*
X235627Y260987D01*
X288000D01*
X288000Y260987D01*
X288579Y261102D01*
X289070Y261430D01*
X309103Y281463D01*
X309565Y281272D01*
Y280206D01*
X275861Y246501D01*
X274934Y246379D01*
X273940Y245968D01*
X273087Y245313D01*
X272432Y244460D01*
X272021Y243466D01*
X271881Y242400D01*
Y239600D01*
X272021Y238534D01*
X272432Y237540D01*
X273087Y236687D01*
X273940Y236032D01*
X274934Y235621D01*
X276000Y235480D01*
X277066Y235621D01*
X278060Y236032D01*
X278913Y236687D01*
X279568Y237540D01*
X279979Y238534D01*
X280119Y239600D01*
Y242400D01*
X279979Y243466D01*
X279568Y244460D01*
X278930Y245290D01*
X311072Y277432D01*
X311534Y277240D01*
Y274674D01*
X284963Y248103D01*
X284635Y247613D01*
X284520Y247033D01*
X284520Y247033D01*
Y246208D01*
X283940Y245968D01*
X283087Y245313D01*
X282432Y244460D01*
X282021Y243466D01*
X281880Y242400D01*
Y239600D01*
X282021Y238534D01*
X282432Y237540D01*
X283087Y236687D01*
X283940Y236032D01*
X284934Y235621D01*
X286000Y235480D01*
X287066Y235621D01*
X288060Y236032D01*
X288913Y236687D01*
X289568Y237540D01*
X289979Y238534D01*
X290120Y239600D01*
Y242400D01*
X289979Y243466D01*
X289568Y244460D01*
X288913Y245313D01*
X288060Y245968D01*
X287877Y246043D01*
X287769Y246629D01*
X313040Y271900D01*
X313502Y271709D01*
Y269643D01*
X294930Y251070D01*
X294602Y250579D01*
X294487Y250000D01*
X294487Y250000D01*
Y246194D01*
X293940Y245968D01*
X293087Y245313D01*
X292432Y244460D01*
X292021Y243466D01*
X291880Y242400D01*
Y239600D01*
X292021Y238534D01*
X292432Y237540D01*
X293087Y236687D01*
X293940Y236032D01*
X294934Y235621D01*
X296000Y235480D01*
X297066Y235621D01*
X298060Y236032D01*
X298913Y236687D01*
X299568Y237540D01*
X299979Y238534D01*
X300119Y239600D01*
Y242400D01*
X299979Y243466D01*
X299568Y244460D01*
X298913Y245313D01*
X298060Y245968D01*
X297513Y246194D01*
Y249373D01*
X315009Y266869D01*
X315471Y266677D01*
Y264111D01*
X304930Y253570D01*
X304602Y253079D01*
X304487Y252500D01*
X304487Y252500D01*
Y246194D01*
X303940Y245968D01*
X303087Y245313D01*
X302432Y244460D01*
X302021Y243466D01*
X301881Y242400D01*
Y239600D01*
X302021Y238534D01*
X302432Y237540D01*
X303087Y236687D01*
X303940Y236032D01*
X304934Y235621D01*
X306000Y235480D01*
X307066Y235621D01*
X308060Y236032D01*
X308913Y236687D01*
X309568Y237540D01*
X309979Y238534D01*
X310120Y239600D01*
Y242400D01*
X309979Y243466D01*
X309568Y244460D01*
X308913Y245313D01*
X308060Y245968D01*
X307513Y246194D01*
Y251873D01*
X318054Y262414D01*
X318054Y262414D01*
X318382Y262905D01*
X318498Y263484D01*
X318498Y263484D01*
Y269896D01*
X318998Y269945D01*
X319102Y269421D01*
X319430Y268930D01*
X322930Y265430D01*
X322930Y265430D01*
X323421Y265102D01*
X324000Y264987D01*
X324000Y264987D01*
X340000D01*
X340000Y264987D01*
X340579Y265102D01*
X341070Y265430D01*
X345070Y269430D01*
X345070Y269430D01*
X345398Y269921D01*
X345513Y270500D01*
Y285373D01*
X348627Y288487D01*
X368626D01*
X368648Y288404D01*
X369192Y287462D01*
X369962Y286692D01*
X370904Y286148D01*
X371956Y285866D01*
X373044D01*
X374096Y286148D01*
X375038Y286692D01*
X375808Y287462D01*
X376352Y288404D01*
X376634Y289456D01*
Y290544D01*
X376352Y291596D01*
X375808Y292538D01*
X375038Y293308D01*
X374096Y293852D01*
X373044Y294134D01*
X371956D01*
X370904Y293852D01*
X369962Y293308D01*
X369192Y292538D01*
X368648Y291596D01*
X368626Y291513D01*
X348000D01*
X347421Y291398D01*
X346930Y291070D01*
X346930Y291070D01*
X342930Y287070D01*
X342602Y286579D01*
X342487Y286000D01*
X342487Y286000D01*
Y271127D01*
X339373Y268013D01*
X324627D01*
X322013Y270627D01*
Y286373D01*
X323960Y288320D01*
X323960Y288320D01*
X324288Y288811D01*
X324403Y289390D01*
X324403Y289390D01*
Y295677D01*
X324790Y295994D01*
X324858Y295981D01*
X324927Y295994D01*
X325313Y295677D01*
Y284027D01*
X325264Y283777D01*
X325264Y283777D01*
Y282727D01*
X323431D01*
Y275247D01*
X330124D01*
Y282727D01*
X328291D01*
Y283577D01*
X328340Y283827D01*
Y297138D01*
X328432Y297602D01*
Y301945D01*
X328513Y302352D01*
Y304717D01*
X329013Y304869D01*
X329235Y304538D01*
X329756Y304190D01*
X330370Y304068D01*
X334898D01*
X335362Y304160D01*
X342200D01*
X347430Y298930D01*
X347921Y298602D01*
X348500Y298487D01*
X348500Y298487D01*
X368626D01*
X368648Y298404D01*
X369192Y297462D01*
X369962Y296692D01*
X370904Y296148D01*
X371956Y295866D01*
X373044D01*
X374096Y296148D01*
X375038Y296692D01*
X375808Y297462D01*
X376352Y298404D01*
X376634Y299456D01*
Y300544D01*
X376352Y301596D01*
X375808Y302538D01*
X375038Y303308D01*
X374096Y303852D01*
X373044Y304134D01*
X371956D01*
X370904Y303852D01*
X369962Y303308D01*
X369192Y302538D01*
X368648Y301596D01*
X368626Y301513D01*
X349127D01*
X344874Y305766D01*
X345041Y306306D01*
X345476Y306487D01*
X358000D01*
X358000Y306487D01*
X358579Y306602D01*
X359070Y306930D01*
X360627Y308487D01*
X368366D01*
Y305866D01*
X376634D01*
Y314134D01*
X374523D01*
Y359962D01*
X374798Y360237D01*
X375176Y360892D01*
X375372Y361622D01*
Y362378D01*
X375305Y362627D01*
X375753Y362886D01*
X387070Y351569D01*
X387726Y351131D01*
X388500Y350977D01*
X391352D01*
X391377Y350915D01*
X392040Y350052D01*
X392903Y349389D01*
X393909Y348973D01*
X394988Y348831D01*
X397547D01*
X398626Y348973D01*
X399632Y349389D01*
X400496Y350052D01*
X401158Y350915D01*
X401575Y351921D01*
X401717Y353000D01*
X401575Y354079D01*
X401158Y355085D01*
X400496Y355948D01*
X399632Y356611D01*
X398626Y357027D01*
X397547Y357170D01*
X394988D01*
X393909Y357027D01*
X392903Y356611D01*
X392040Y355948D01*
X391377Y355085D01*
X391352Y355023D01*
X389338D01*
X364499Y379862D01*
Y398977D01*
X389516D01*
Y398281D01*
X389784Y396931D01*
X390311Y395660D01*
X391075Y394516D01*
X392048Y393544D01*
X393192Y392779D01*
X394463Y392253D01*
X395812Y391984D01*
X397188D01*
X398537Y392253D01*
X399808Y392779D01*
X400952Y393544D01*
X401925Y394516D01*
X402689Y395660D01*
X403216Y396931D01*
X403484Y398281D01*
Y399656D01*
X403216Y401006D01*
X402689Y402277D01*
X401925Y403421D01*
X400952Y404393D01*
X399808Y405158D01*
X398537Y405684D01*
X398523Y405687D01*
Y406162D01*
X403838Y411477D01*
X455162D01*
X462897Y403742D01*
X462575Y403421D01*
X461811Y402277D01*
X461284Y401006D01*
X461016Y399656D01*
Y398281D01*
X461284Y396931D01*
X461811Y395660D01*
X461819Y395648D01*
X457569Y391399D01*
X457131Y390743D01*
X456977Y389968D01*
Y355023D01*
X451331D01*
Y357031D01*
X442669D01*
Y345220D01*
X445977D01*
Y333727D01*
X446131Y332953D01*
X446569Y332296D01*
X449927Y328939D01*
Y316937D01*
X448013D01*
Y309063D01*
X449927D01*
Y294788D01*
X442957Y287818D01*
X420847D01*
X420651Y287779D01*
X414169D01*
Y275969D01*
X422831D01*
Y283772D01*
X443795D01*
X444569Y283926D01*
X445226Y284365D01*
X453381Y292519D01*
X453819Y293176D01*
X453973Y293950D01*
Y309063D01*
X455887D01*
Y316937D01*
X453973D01*
Y329777D01*
X453819Y330551D01*
X453381Y331207D01*
X450023Y334565D01*
Y345220D01*
X451331D01*
Y350977D01*
X463352D01*
X463377Y350915D01*
X464040Y350052D01*
X464903Y349389D01*
X465909Y348973D01*
X465977Y348964D01*
Y332000D01*
X466131Y331226D01*
X466569Y330569D01*
X474569Y322569D01*
X475226Y322131D01*
X476000Y321977D01*
X517477D01*
Y303338D01*
X507069Y292931D01*
X506631Y292274D01*
X506477Y291500D01*
Y252000D01*
Y201523D01*
X332338D01*
X318023Y215838D01*
Y218948D01*
X318272Y219548D01*
Y220452D01*
X318023Y221052D01*
Y236017D01*
X318060Y236032D01*
X318913Y236687D01*
X319568Y237540D01*
X319979Y238534D01*
X320120Y239600D01*
Y242400D01*
X319979Y243466D01*
X319568Y244460D01*
X318913Y245313D01*
X318060Y245968D01*
X317066Y246379D01*
X316000Y246519D01*
X314934Y246379D01*
X313940Y245968D01*
X313087Y245313D01*
X312432Y244460D01*
X312021Y243466D01*
X311880Y242400D01*
Y239600D01*
X312021Y238534D01*
X312432Y237540D01*
X313087Y236687D01*
X313940Y236032D01*
X313977Y236017D01*
Y221052D01*
X313728Y220452D01*
Y219548D01*
X313977Y218948D01*
Y215000D01*
X314131Y214226D01*
X314569Y213569D01*
X330069Y198069D01*
X330726Y197631D01*
X331500Y197477D01*
X511501D01*
X511558Y197339D01*
X512244Y196444D01*
X513139Y195758D01*
X514182Y195326D01*
X515300Y195179D01*
X518700D01*
X519818Y195326D01*
X520861Y195758D01*
X521756Y196444D01*
X522442Y197339D01*
X522874Y198382D01*
X523021Y199500D01*
X522874Y200618D01*
X522442Y201661D01*
X521756Y202556D01*
X520861Y203242D01*
X519818Y203674D01*
X518700Y203821D01*
X515300D01*
X514182Y203674D01*
X513139Y203242D01*
X512244Y202556D01*
X511558Y201661D01*
X511501Y201523D01*
X510523D01*
Y249977D01*
X515524D01*
Y248024D01*
X523476D01*
Y255976D01*
X515524D01*
Y254023D01*
X510523D01*
Y290662D01*
X520931Y301069D01*
X521369Y301726D01*
X521523Y302500D01*
Y324000D01*
Y344721D01*
X523831D01*
Y356532D01*
X515169D01*
Y344721D01*
X517477D01*
Y326023D01*
X476838D01*
X470023Y332838D01*
Y348893D01*
X470626Y348973D01*
X471632Y349389D01*
X472496Y350052D01*
X473158Y350915D01*
X473575Y351921D01*
X473717Y353000D01*
X473575Y354079D01*
X473158Y355085D01*
X472496Y355948D01*
X471632Y356611D01*
X470626Y357027D01*
X469547Y357170D01*
X466988D01*
X465909Y357027D01*
X464903Y356611D01*
X464040Y355948D01*
X463377Y355085D01*
X463352Y355023D01*
X461023D01*
Y389130D01*
X464680Y392787D01*
X464692Y392779D01*
X465963Y392253D01*
X467312Y391984D01*
X468688D01*
X470037Y392253D01*
X471308Y392779D01*
X472452Y393544D01*
X473425Y394516D01*
X474189Y395660D01*
X474716Y396931D01*
X474984Y398281D01*
Y399656D01*
X474716Y401006D01*
X474189Y402277D01*
X473425Y403421D01*
X472452Y404393D01*
X471308Y405158D01*
X470037Y405684D01*
X468688Y405953D01*
X467312D01*
X466558Y405803D01*
X457431Y414931D01*
X456774Y415369D01*
X456000Y415523D01*
X403000D01*
X402226Y415369D01*
X401569Y414931D01*
X395069Y408431D01*
X394631Y407774D01*
X394477Y407000D01*
Y405687D01*
X394463Y405684D01*
X393192Y405158D01*
X392048Y404393D01*
X391075Y403421D01*
X390753Y402939D01*
X390328Y403023D01*
X352835D01*
Y408421D01*
X342023D01*
Y436473D01*
X345776D01*
Y462063D01*
D02*
G37*
G36*
X413569Y378480D02*
X406876D01*
Y370999D01*
X408977D01*
Y364091D01*
X408477Y363884D01*
X407931Y364431D01*
X407274Y364869D01*
X406500Y365023D01*
X401184D01*
X401158Y365085D01*
X400496Y365948D01*
X399632Y366611D01*
X398626Y367027D01*
X397547Y367169D01*
X394988D01*
X393909Y367027D01*
X392903Y366611D01*
X392040Y365948D01*
X391377Y365085D01*
X390961Y364079D01*
X390819Y363000D01*
X390961Y361921D01*
X391377Y360915D01*
X392040Y360052D01*
X392903Y359389D01*
X393909Y358973D01*
X394988Y358830D01*
X397547D01*
X398626Y358973D01*
X399632Y359389D01*
X400496Y360052D01*
X401158Y360915D01*
X401184Y360977D01*
X405662D01*
X405716Y360923D01*
Y346604D01*
X403999D01*
Y339911D01*
X411480D01*
Y346604D01*
X409762D01*
Y361169D01*
X410262Y361376D01*
X419247Y352392D01*
X419903Y351954D01*
X420677Y351800D01*
X424476D01*
X424842Y350915D01*
X425504Y350052D01*
X426368Y349389D01*
X427374Y348973D01*
X428453Y348831D01*
X431012D01*
X432091Y348973D01*
X433097Y349389D01*
X433960Y350052D01*
X434623Y350915D01*
X435039Y351921D01*
X435181Y353000D01*
X435039Y354079D01*
X434623Y355085D01*
X433960Y355948D01*
X433097Y356611D01*
X432091Y357027D01*
X431012Y357170D01*
X428453D01*
X427374Y357027D01*
X426368Y356611D01*
X425504Y355948D01*
X425426Y355846D01*
X421515D01*
X413023Y364338D01*
Y370999D01*
X413569D01*
Y378480D01*
D02*
G37*
G36*
X188625Y367083D02*
X188500D01*
Y362833D01*
X192750D01*
Y362959D01*
X192426Y364167D01*
X191801Y365250D01*
X190917Y366134D01*
X189833Y366760D01*
X188625Y367083D01*
D02*
G37*
G36*
X187500D02*
X187375D01*
X186167Y366760D01*
X185083Y366134D01*
X184199Y365250D01*
X183574Y364167D01*
X183250Y362959D01*
Y362833D01*
X187500D01*
Y367083D01*
D02*
G37*
G36*
X163625D02*
X163500D01*
Y362833D01*
X167750D01*
Y362959D01*
X167426Y364167D01*
X166801Y365250D01*
X165917Y366134D01*
X164833Y366760D01*
X163625Y367083D01*
D02*
G37*
G36*
X162500D02*
X162375D01*
X161167Y366760D01*
X160083Y366134D01*
X159199Y365250D01*
X158574Y364167D01*
X158250Y362959D01*
Y362833D01*
X162500D01*
Y367083D01*
D02*
G37*
G36*
X505484Y379234D02*
X498516D01*
Y371766D01*
X499709D01*
Y367072D01*
X499374Y367027D01*
X498368Y366611D01*
X497504Y365948D01*
X496842Y365085D01*
X496425Y364079D01*
X496283Y363000D01*
X496425Y361921D01*
X496458Y361843D01*
X496034Y361560D01*
X484179Y373414D01*
X483569Y373822D01*
Y377480D01*
X476876D01*
Y369999D01*
X481390D01*
X481585Y369960D01*
X481911D01*
X496826Y355046D01*
X496425Y354079D01*
X496283Y353000D01*
X496425Y351921D01*
X496842Y350915D01*
X497504Y350052D01*
X498368Y349389D01*
X499374Y348973D01*
X500453Y348831D01*
X503012D01*
X504091Y348973D01*
X505097Y349389D01*
X505960Y350052D01*
X506623Y350915D01*
X507039Y351921D01*
X507181Y353000D01*
X507039Y354079D01*
X506623Y355085D01*
X505960Y355948D01*
X505097Y356611D01*
X504091Y357027D01*
X503012Y357170D01*
X500453D01*
X500350Y357156D01*
X500175Y357419D01*
X499013Y358581D01*
X499296Y359005D01*
X499374Y358973D01*
X500453Y358830D01*
X503012D01*
X504091Y358973D01*
X505097Y359389D01*
X505960Y360052D01*
X506623Y360915D01*
X507039Y361921D01*
X507181Y363000D01*
X507039Y364079D01*
X506623Y365085D01*
X505960Y365948D01*
X505097Y366611D01*
X504091Y367027D01*
X503755Y367072D01*
Y371766D01*
X505484D01*
Y379234D01*
D02*
G37*
G36*
X432984Y378234D02*
X426016D01*
Y370766D01*
X427593D01*
Y367056D01*
X427374Y367027D01*
X426368Y366611D01*
X425504Y365948D01*
X424842Y365085D01*
X424425Y364079D01*
X424283Y363000D01*
X424425Y361921D01*
X424842Y360915D01*
X425504Y360052D01*
X426368Y359389D01*
X427374Y358973D01*
X428453Y358830D01*
X431012D01*
X432091Y358973D01*
X433097Y359389D01*
X433960Y360052D01*
X434623Y360915D01*
X435039Y361921D01*
X435181Y363000D01*
X435039Y364079D01*
X434623Y365085D01*
X433960Y365948D01*
X433097Y366611D01*
X432091Y367027D01*
X431639Y367087D01*
Y370766D01*
X432984D01*
Y378234D01*
D02*
G37*
G36*
X192750Y361833D02*
X188500D01*
Y357583D01*
X188625D01*
X189833Y357907D01*
X190917Y358532D01*
X191801Y359417D01*
X192426Y360500D01*
X192750Y361708D01*
Y361833D01*
D02*
G37*
G36*
X187500D02*
X183250D01*
Y361708D01*
X183574Y360500D01*
X184199Y359417D01*
X185083Y358532D01*
X186167Y357907D01*
X187375Y357583D01*
X187500D01*
Y361833D01*
D02*
G37*
G36*
X167750D02*
X163500D01*
Y357583D01*
X163625D01*
X164833Y357907D01*
X165917Y358532D01*
X166801Y359417D01*
X167426Y360500D01*
X167750Y361708D01*
Y361833D01*
D02*
G37*
G36*
X162500D02*
X158250D01*
Y361708D01*
X158574Y360500D01*
X159199Y359417D01*
X160083Y358532D01*
X161167Y357907D01*
X162375Y357583D01*
X162500D01*
Y361833D01*
D02*
G37*
G36*
X238000Y358728D02*
Y357500D01*
X239228D01*
X239015Y358013D01*
X238512Y358515D01*
X238000Y358728D01*
D02*
G37*
G36*
X237000D02*
X236488Y358515D01*
X235985Y358013D01*
X235772Y357500D01*
X237000D01*
Y358728D01*
D02*
G37*
G36*
X308620Y359742D02*
X305757D01*
Y356487D01*
X308620D01*
Y359742D01*
D02*
G37*
G36*
X304757D02*
X301895D01*
Y356487D01*
X304757D01*
Y359742D01*
D02*
G37*
G36*
X487500Y357228D02*
Y356000D01*
X488728D01*
X488515Y356512D01*
X488013Y357015D01*
X487500Y357228D01*
D02*
G37*
G36*
X486500D02*
X485988Y357015D01*
X485485Y356512D01*
X485272Y356000D01*
X486500D01*
Y357228D01*
D02*
G37*
G36*
X239228Y356500D02*
X238000D01*
Y355272D01*
X238512Y355485D01*
X239015Y355988D01*
X239228Y356500D01*
D02*
G37*
G36*
X237000D02*
X235772D01*
X235985Y355988D01*
X236488Y355485D01*
X237000Y355272D01*
Y356500D01*
D02*
G37*
G36*
X488728Y355000D02*
X487500D01*
Y353772D01*
X488013Y353985D01*
X488515Y354487D01*
X488728Y355000D01*
D02*
G37*
G36*
X486500D02*
X485272D01*
X485485Y354487D01*
X485988Y353985D01*
X486500Y353772D01*
Y355000D01*
D02*
G37*
G36*
X308620Y355487D02*
X305757D01*
Y352231D01*
X308620D01*
Y355487D01*
D02*
G37*
G36*
X304757D02*
X301895D01*
Y352231D01*
X304757D01*
Y355487D01*
D02*
G37*
G36*
X362995Y353620D02*
X359739D01*
Y350758D01*
X362995D01*
Y353620D01*
D02*
G37*
G36*
X358739D02*
X355484D01*
Y350758D01*
X358739D01*
Y353620D01*
D02*
G37*
G36*
X354769D02*
X351513D01*
Y350758D01*
X354769D01*
Y353620D01*
D02*
G37*
G36*
X350513D02*
X347257D01*
Y350758D01*
X350513D01*
Y353620D01*
D02*
G37*
G36*
X188623Y351401D02*
X187377D01*
X186173Y351078D01*
X185093Y350455D01*
X184212Y349574D01*
X183736Y348750D01*
X167264D01*
X166788Y349574D01*
X165907Y350455D01*
X164827Y351078D01*
X163623Y351401D01*
X162377D01*
X161173Y351078D01*
X160093Y350455D01*
X159212Y349574D01*
X158588Y348494D01*
X158266Y347290D01*
Y346043D01*
X158588Y344839D01*
X159212Y343760D01*
X160093Y342878D01*
X161173Y342255D01*
X162377Y341932D01*
X163623D01*
X164827Y342255D01*
X165907Y342878D01*
X166788Y343760D01*
X167333Y344704D01*
X183667D01*
X184212Y343760D01*
X185093Y342878D01*
X186173Y342255D01*
X187377Y341932D01*
X188623D01*
X189827Y342255D01*
X190907Y342878D01*
X191788Y343760D01*
X192333Y344704D01*
X199931D01*
Y343046D01*
X201259D01*
Y342367D01*
X199941D01*
Y334887D01*
X201774D01*
Y329213D01*
X201774Y329213D01*
X201889Y328633D01*
X202217Y328142D01*
X205430Y324930D01*
X205430Y324930D01*
X205921Y324602D01*
X206500Y324487D01*
X206500Y324487D01*
X215524D01*
X216148Y324228D01*
X216852D01*
X217504Y324498D01*
X218002Y324996D01*
X218272Y325648D01*
Y326352D01*
X218002Y327004D01*
X217504Y327502D01*
X216852Y327772D01*
X216148D01*
X215524Y327513D01*
X207127D01*
X204801Y329839D01*
Y334887D01*
X206634D01*
Y342367D01*
X205305D01*
Y343046D01*
X206624D01*
Y350527D01*
X199931D01*
Y348750D01*
X192264D01*
X191788Y349574D01*
X190907Y350455D01*
X189827Y351078D01*
X188623Y351401D01*
D02*
G37*
G36*
X214120Y350542D02*
X211258D01*
Y347287D01*
X214120D01*
Y350542D01*
D02*
G37*
G36*
X210258D02*
X207395D01*
Y347287D01*
X210258D01*
Y350542D01*
D02*
G37*
G36*
X362995Y349758D02*
X359739D01*
Y346895D01*
X362995D01*
Y349758D01*
D02*
G37*
G36*
X358739D02*
X355484D01*
Y346895D01*
X358739D01*
Y349758D01*
D02*
G37*
G36*
X354769Y349758D02*
X351513D01*
Y346895D01*
X354769D01*
Y349758D01*
D02*
G37*
G36*
X350513D02*
X347257D01*
Y346895D01*
X350513D01*
Y349758D01*
D02*
G37*
G36*
X289500Y347228D02*
Y346000D01*
X290728D01*
X290515Y346513D01*
X290013Y347015D01*
X289500Y347228D01*
D02*
G37*
G36*
X288500D02*
X287987Y347015D01*
X287485Y346513D01*
X287272Y346000D01*
X288500D01*
Y347228D01*
D02*
G37*
G36*
X290728Y345000D02*
X289500D01*
Y343772D01*
X290013Y343985D01*
X290515Y344488D01*
X290728Y345000D01*
D02*
G37*
G36*
X288500D02*
X287272D01*
X287485Y344488D01*
X287987Y343985D01*
X288500Y343772D01*
Y345000D01*
D02*
G37*
G36*
X214120Y346287D02*
X211258D01*
Y343031D01*
X214120D01*
Y346287D01*
D02*
G37*
G36*
X210258D02*
X207395D01*
Y343031D01*
X210258D01*
Y346287D01*
D02*
G37*
G36*
X423447Y346357D02*
X416753D01*
Y343904D01*
X411829Y338979D01*
X411480Y339124D01*
Y339124D01*
X403999D01*
Y332431D01*
X411480D01*
Y334560D01*
X412294D01*
X413068Y334714D01*
X413725Y335153D01*
X416255Y337682D01*
X416716Y337491D01*
Y336620D01*
X419579D01*
Y338793D01*
X418019D01*
X417827Y339255D01*
X419615Y341042D01*
X423447D01*
Y346357D01*
D02*
G37*
G36*
X444432Y405953D02*
X443056D01*
X441707Y405684D01*
X440436Y405158D01*
X439292Y404393D01*
X438319Y403421D01*
X437555Y402277D01*
X437028Y401006D01*
X436760Y399656D01*
Y398281D01*
X437028Y396931D01*
X437555Y395660D01*
X438319Y394516D01*
X439292Y393544D01*
X440436Y392779D01*
X441707Y392253D01*
X441721Y392250D01*
Y383027D01*
X441875Y382253D01*
X442313Y381596D01*
X444977Y378933D01*
Y372779D01*
X442669D01*
Y363830D01*
X436569Y357730D01*
X436131Y357073D01*
X435977Y356299D01*
Y348897D01*
X429853Y342773D01*
X429763Y342637D01*
X426575D01*
Y337322D01*
X433268D01*
Y340458D01*
X433270Y340467D01*
X439431Y346628D01*
X439869Y347284D01*
X440023Y348059D01*
Y355461D01*
X445530Y360968D01*
X451331D01*
Y372779D01*
X449023D01*
Y379771D01*
X448869Y380545D01*
X448431Y381202D01*
X445767Y383865D01*
Y392250D01*
X445781Y392253D01*
X447052Y392779D01*
X448196Y393544D01*
X449169Y394516D01*
X449933Y395660D01*
X450460Y396931D01*
X450728Y398281D01*
Y399656D01*
X450460Y401006D01*
X449933Y402277D01*
X449169Y403421D01*
X448196Y404393D01*
X447052Y405158D01*
X445781Y405684D01*
X444432Y405953D01*
D02*
G37*
G36*
X515932D02*
X514556D01*
X513207Y405684D01*
X511936Y405158D01*
X510792Y404393D01*
X509819Y403421D01*
X509055Y402277D01*
X508528Y401006D01*
X508260Y399656D01*
Y398281D01*
X508528Y396931D01*
X509055Y395660D01*
X509819Y394516D01*
X510792Y393544D01*
X511936Y392779D01*
X513207Y392253D01*
X513221Y392250D01*
Y385407D01*
X513375Y384633D01*
X513813Y383976D01*
X517477Y380313D01*
Y372280D01*
X515169D01*
Y364394D01*
X514805Y364322D01*
X514148Y363883D01*
X509069Y358805D01*
X508631Y358148D01*
X508477Y357374D01*
Y348838D01*
X501932Y342293D01*
X501841Y342158D01*
X498654D01*
Y336842D01*
X505346D01*
Y339978D01*
X505348Y339987D01*
X511931Y346569D01*
X512369Y347226D01*
X512523Y348000D01*
Y356536D01*
X516417Y360430D01*
X517154D01*
X517349Y360469D01*
X523831D01*
Y372280D01*
X521523D01*
Y381151D01*
X521369Y381925D01*
X520931Y382581D01*
X517267Y386245D01*
Y392250D01*
X517281Y392253D01*
X518552Y392779D01*
X519696Y393544D01*
X520669Y394516D01*
X521433Y395660D01*
X521960Y396931D01*
X522228Y398281D01*
Y399656D01*
X521960Y401006D01*
X521433Y402277D01*
X520669Y403421D01*
X519696Y404393D01*
X518552Y405158D01*
X517281Y405684D01*
X515932Y405953D01*
D02*
G37*
G36*
X423441Y338793D02*
X420579D01*
Y336620D01*
X423441D01*
Y338793D01*
D02*
G37*
G36*
X495520Y338313D02*
X492657D01*
Y336140D01*
X495520D01*
Y338313D01*
D02*
G37*
G36*
X491657D02*
X488795D01*
Y336140D01*
X491657D01*
Y338313D01*
D02*
G37*
G36*
X250104Y350001D02*
X243411D01*
Y342520D01*
X245244D01*
Y341234D01*
X243516D01*
Y333766D01*
X250484D01*
Y341234D01*
X248271D01*
Y342520D01*
X250104D01*
Y350001D01*
D02*
G37*
G36*
X423441Y335620D02*
X420579D01*
Y333447D01*
X423441D01*
Y335620D01*
D02*
G37*
G36*
X419579D02*
X416716D01*
Y333447D01*
X419579D01*
Y335620D01*
D02*
G37*
G36*
X495520Y335140D02*
X492657D01*
Y332967D01*
X495520D01*
Y335140D01*
D02*
G37*
G36*
X491657D02*
X488795D01*
Y332967D01*
X491657D01*
Y335140D01*
D02*
G37*
G36*
X469547Y367169D02*
X466988D01*
X465909Y367027D01*
X464903Y366611D01*
X464040Y365948D01*
X463377Y365085D01*
X462961Y364079D01*
X462819Y363000D01*
X462961Y361921D01*
X463377Y360915D01*
X464040Y360052D01*
X464903Y359389D01*
X465909Y358973D01*
X466988Y358830D01*
X469547D01*
X470626Y358973D01*
X471632Y359389D01*
X472496Y360052D01*
X473010Y360722D01*
X476056D01*
X477722Y359056D01*
Y346604D01*
X475499D01*
Y339911D01*
X482501D01*
X482843Y339911D01*
X483100Y339461D01*
X482762Y339124D01*
X475499D01*
Y332431D01*
X482979D01*
Y334915D01*
X483439D01*
X484213Y335069D01*
X484869Y335508D01*
X489885Y340524D01*
X491505D01*
X491701Y340563D01*
X495525D01*
Y345878D01*
X488832D01*
Y344527D01*
X488273Y344416D01*
X487616Y343977D01*
X483430Y339791D01*
X482979Y340048D01*
X482979Y340354D01*
Y346604D01*
X482278D01*
Y360000D01*
X482105Y360872D01*
X481611Y361611D01*
X478611Y364611D01*
X477872Y365105D01*
X477000Y365278D01*
X473010D01*
X472496Y365948D01*
X471632Y366611D01*
X470626Y367027D01*
X469547Y367169D01*
D02*
G37*
G36*
X188625Y331417D02*
X188500D01*
Y327167D01*
X192750D01*
Y327292D01*
X192426Y328500D01*
X191801Y329583D01*
X190917Y330468D01*
X189833Y331093D01*
X188625Y331417D01*
D02*
G37*
G36*
X187500D02*
X187375D01*
X186167Y331093D01*
X185083Y330468D01*
X184199Y329583D01*
X183574Y328500D01*
X183250Y327292D01*
Y327167D01*
X187500D01*
Y331417D01*
D02*
G37*
G36*
X163625D02*
X163500D01*
Y327167D01*
X167750D01*
Y327292D01*
X167426Y328500D01*
X166801Y329583D01*
X165917Y330468D01*
X164833Y331093D01*
X163625Y331417D01*
D02*
G37*
G36*
X162500D02*
X162375D01*
X161167Y331093D01*
X160083Y330468D01*
X159199Y329583D01*
X158574Y328500D01*
X158250Y327292D01*
Y327167D01*
X162500D01*
Y331417D01*
D02*
G37*
G36*
X192750Y326167D02*
X188500D01*
Y321917D01*
X188625D01*
X189833Y322240D01*
X190917Y322866D01*
X191801Y323750D01*
X192426Y324833D01*
X192750Y326041D01*
Y326167D01*
D02*
G37*
G36*
X187500D02*
X183250D01*
Y326041D01*
X183574Y324833D01*
X184199Y323750D01*
X185083Y322866D01*
X186167Y322240D01*
X187375Y321917D01*
X187500D01*
Y326167D01*
D02*
G37*
G36*
X167750D02*
X163500D01*
Y321917D01*
X163625D01*
X164833Y322240D01*
X165917Y322866D01*
X166801Y323750D01*
X167426Y324833D01*
X167750Y326041D01*
Y326167D01*
D02*
G37*
G36*
X162500D02*
X158250D01*
Y326041D01*
X158574Y324833D01*
X159199Y323750D01*
X160083Y322866D01*
X161167Y322240D01*
X162375Y321917D01*
X162500D01*
Y326167D01*
D02*
G37*
G36*
X418624Y316001D02*
X411931D01*
Y314013D01*
X405476D01*
X404852Y314272D01*
X404148D01*
X403496Y314002D01*
X402998Y313504D01*
X402728Y312852D01*
Y312148D01*
X402998Y311496D01*
X403496Y310998D01*
X404148Y310728D01*
X404852D01*
X405476Y310987D01*
X411931D01*
Y308521D01*
X418624D01*
Y316001D01*
D02*
G37*
G36*
X188623Y315734D02*
X187377D01*
X186173Y315412D01*
X185093Y314788D01*
X184212Y313907D01*
X183588Y312827D01*
X183572Y312766D01*
X167428D01*
X167412Y312827D01*
X166788Y313907D01*
X165907Y314788D01*
X164827Y315412D01*
X163623Y315734D01*
X162377D01*
X161173Y315412D01*
X160093Y314788D01*
X159212Y313907D01*
X158588Y312827D01*
X158266Y311623D01*
Y310377D01*
X158588Y309173D01*
X159212Y308093D01*
X160093Y307212D01*
X161173Y306588D01*
X162377Y306266D01*
X163623D01*
X164827Y306588D01*
X165907Y307212D01*
X166788Y308093D01*
X167150Y308720D01*
X183850D01*
X184212Y308093D01*
X185093Y307212D01*
X186173Y306588D01*
X187377Y306266D01*
X188623D01*
X189827Y306588D01*
X190907Y307212D01*
X191788Y308093D01*
X192150Y308720D01*
X199931D01*
Y306747D01*
X201249D01*
Y306001D01*
X199920D01*
Y298520D01*
X201754D01*
Y289413D01*
X201728Y289352D01*
Y288648D01*
X201998Y287996D01*
X202496Y287498D01*
X203148Y287228D01*
X203852D01*
X204504Y287498D01*
X205002Y287996D01*
X205272Y288648D01*
Y289352D01*
X205002Y290004D01*
X204780Y290225D01*
Y298520D01*
X206613D01*
Y306001D01*
X205295D01*
Y306747D01*
X206624D01*
Y314227D01*
X199931D01*
Y312766D01*
X192428D01*
X192412Y312827D01*
X191788Y313907D01*
X190907Y314788D01*
X189827Y315412D01*
X188623Y315734D01*
D02*
G37*
G36*
X214120Y314243D02*
X211258D01*
Y310987D01*
X214120D01*
Y314243D01*
D02*
G37*
G36*
X210258D02*
X207395D01*
Y310987D01*
X210258D01*
Y314243D01*
D02*
G37*
G36*
X495500Y311654D02*
Y310000D01*
X497154D01*
X496849Y310736D01*
X496236Y311349D01*
X495500Y311654D01*
D02*
G37*
G36*
X494500D02*
X493764Y311349D01*
X493151Y310736D01*
X492846Y310000D01*
X494500D01*
Y311654D01*
D02*
G37*
G36*
X497154Y309000D02*
X495500D01*
Y307346D01*
X496236Y307651D01*
X496849Y308264D01*
X497154Y309000D01*
D02*
G37*
G36*
X494500D02*
X492846D01*
X493151Y308264D01*
X493764Y307651D01*
X494500Y307346D01*
Y309000D01*
D02*
G37*
G36*
X214120Y309987D02*
X211258D01*
Y306731D01*
X214120D01*
Y309987D01*
D02*
G37*
G36*
X210258D02*
X207395D01*
Y306731D01*
X210258D01*
Y309987D01*
D02*
G37*
G36*
X253000Y306228D02*
Y305000D01*
X254228D01*
X254015Y305512D01*
X253513Y306015D01*
X253000Y306228D01*
D02*
G37*
G36*
X252000D02*
X251487Y306015D01*
X250985Y305512D01*
X250772Y305000D01*
X252000D01*
Y306228D01*
D02*
G37*
G36*
X416793Y307283D02*
X414620D01*
Y304421D01*
X416793D01*
Y307283D01*
D02*
G37*
G36*
X413620D02*
X411447D01*
Y304421D01*
X413620D01*
Y307283D01*
D02*
G37*
G36*
X282269Y306120D02*
X279013D01*
Y303257D01*
X282269D01*
Y306120D01*
D02*
G37*
G36*
X278013D02*
X274758D01*
Y303257D01*
X278013D01*
Y306120D01*
D02*
G37*
G36*
X254228Y304000D02*
X253000D01*
Y302772D01*
X253513Y302985D01*
X254015Y303487D01*
X254228Y304000D01*
D02*
G37*
G36*
X252000D02*
X250772D01*
X250985Y303487D01*
X251487Y302985D01*
X252000Y302772D01*
Y304000D01*
D02*
G37*
G36*
X416793Y303421D02*
X414620D01*
Y300559D01*
X416793D01*
Y303421D01*
D02*
G37*
G36*
X413620D02*
X411447D01*
Y300559D01*
X413620D01*
Y303421D01*
D02*
G37*
G36*
X426104Y316001D02*
X419411D01*
Y308521D01*
X420206D01*
Y307246D01*
X419042D01*
Y300553D01*
X424358D01*
Y307246D01*
X424252D01*
Y308521D01*
X426104D01*
Y316001D01*
D02*
G37*
G36*
X282269Y302257D02*
X279013D01*
Y299395D01*
X282269D01*
Y302257D01*
D02*
G37*
G36*
X278013D02*
X274758D01*
Y299395D01*
X278013D01*
Y302257D01*
D02*
G37*
G36*
X342000Y297728D02*
Y296500D01*
X343228D01*
X343015Y297012D01*
X342512Y297515D01*
X342000Y297728D01*
D02*
G37*
G36*
X341000D02*
X340488Y297515D01*
X339985Y297012D01*
X339772Y296500D01*
X341000D01*
Y297728D01*
D02*
G37*
G36*
X343228Y295500D02*
X342000D01*
Y294272D01*
X342512Y294485D01*
X343015Y294988D01*
X343228Y295500D01*
D02*
G37*
G36*
X341000D02*
X339772D01*
X339985Y294988D01*
X340488Y294485D01*
X341000Y294272D01*
Y295500D01*
D02*
G37*
G36*
X188625Y295750D02*
X188500D01*
Y291500D01*
X192750D01*
Y291625D01*
X192426Y292833D01*
X191801Y293917D01*
X190917Y294801D01*
X189833Y295426D01*
X188625Y295750D01*
D02*
G37*
G36*
X187500D02*
X187375D01*
X186167Y295426D01*
X185083Y294801D01*
X184199Y293917D01*
X183574Y292833D01*
X183250Y291625D01*
Y291500D01*
X187500D01*
Y295750D01*
D02*
G37*
G36*
X163625D02*
X163500D01*
Y291500D01*
X167750D01*
Y291625D01*
X167426Y292833D01*
X166801Y293917D01*
X165917Y294801D01*
X164833Y295426D01*
X163625Y295750D01*
D02*
G37*
G36*
X162500D02*
X162375D01*
X161167Y295426D01*
X160083Y294801D01*
X159199Y293917D01*
X158574Y292833D01*
X158250Y291625D01*
Y291500D01*
X162500D01*
Y295750D01*
D02*
G37*
G36*
X420637Y297425D02*
X415322D01*
Y296102D01*
X411079D01*
X410304Y295948D01*
X409648Y295509D01*
X405569Y291431D01*
X405131Y290774D01*
X404977Y290000D01*
Y270000D01*
X405131Y269226D01*
X405569Y268569D01*
X409444Y264695D01*
X410100Y264257D01*
X410874Y264103D01*
X414169D01*
Y260221D01*
X422831D01*
Y264103D01*
X446626D01*
X447400Y264257D01*
X448057Y264695D01*
X453431Y270069D01*
X453869Y270726D01*
X454023Y271500D01*
Y279622D01*
X454417Y279850D01*
X455150Y280583D01*
X455669Y281480D01*
X455937Y282482D01*
Y283518D01*
X455669Y284520D01*
X455150Y285417D01*
X454417Y286150D01*
X453520Y286669D01*
X452518Y286937D01*
X451482D01*
X450480Y286669D01*
X449583Y286150D01*
X448850Y285417D01*
X448331Y284520D01*
X448063Y283518D01*
Y282482D01*
X448331Y281480D01*
X448850Y280583D01*
X449583Y279850D01*
X449977Y279622D01*
Y272338D01*
X445788Y268149D01*
X422831D01*
Y272031D01*
X414169D01*
Y268149D01*
X411712D01*
X409023Y270838D01*
Y289162D01*
X411917Y292056D01*
X415322D01*
Y290732D01*
X420637D01*
Y297425D01*
D02*
G37*
G36*
X192750Y290500D02*
X188500D01*
Y286250D01*
X188625D01*
X189833Y286574D01*
X190917Y287199D01*
X191801Y288083D01*
X192426Y289167D01*
X192750Y290375D01*
Y290500D01*
D02*
G37*
G36*
X187500D02*
X183250D01*
Y290375D01*
X183574Y289167D01*
X184199Y288083D01*
X185083Y287199D01*
X186167Y286574D01*
X187375Y286250D01*
X187500D01*
Y290500D01*
D02*
G37*
G36*
X167750D02*
X163500D01*
Y286250D01*
X163625D01*
X164833Y286574D01*
X165917Y287199D01*
X166801Y288083D01*
X167426Y289167D01*
X167750Y290375D01*
Y290500D01*
D02*
G37*
G36*
X162500D02*
X158250D01*
Y290375D01*
X158574Y289167D01*
X159199Y288083D01*
X160083Y287199D01*
X161167Y286574D01*
X162375Y286250D01*
X162500D01*
Y290500D01*
D02*
G37*
G36*
X220000Y284228D02*
Y283000D01*
X221228D01*
X221015Y283512D01*
X220513Y284015D01*
X220000Y284228D01*
D02*
G37*
G36*
X219000D02*
X218488Y284015D01*
X217985Y283512D01*
X217772Y283000D01*
X219000D01*
Y284228D01*
D02*
G37*
G36*
X221228Y282000D02*
X220000D01*
Y280772D01*
X220513Y280985D01*
X221015Y281487D01*
X221228Y282000D01*
D02*
G37*
G36*
X219000D02*
X217772D01*
X217985Y281487D01*
X218488Y280985D01*
X219000Y280772D01*
Y282000D01*
D02*
G37*
G36*
X373046Y284150D02*
X373000D01*
Y280500D01*
X376650D01*
Y280546D01*
X376367Y281602D01*
X375820Y282548D01*
X375048Y283320D01*
X374102Y283867D01*
X373046Y284150D01*
D02*
G37*
G36*
X372000D02*
X371954D01*
X370898Y283867D01*
X369952Y283320D01*
X369180Y282548D01*
X368633Y281602D01*
X368350Y280546D01*
Y280500D01*
X372000D01*
Y284150D01*
D02*
G37*
G36*
X337620Y282743D02*
X334757D01*
Y279487D01*
X337620D01*
Y282743D01*
D02*
G37*
G36*
X333757D02*
X330895D01*
Y279487D01*
X333757D01*
Y282743D01*
D02*
G37*
G36*
X185125Y283250D02*
X185000D01*
Y279000D01*
X189250D01*
Y279125D01*
X188926Y280333D01*
X188301Y281417D01*
X187417Y282301D01*
X186333Y282926D01*
X185125Y283250D01*
D02*
G37*
G36*
X184000D02*
X183875D01*
X182667Y282926D01*
X181583Y282301D01*
X180699Y281417D01*
X180074Y280333D01*
X179750Y279125D01*
Y279000D01*
X184000D01*
Y283250D01*
D02*
G37*
G36*
X520023Y285976D02*
X518976D01*
X517965Y285705D01*
X517058Y285182D01*
X516318Y284442D01*
X515795Y283535D01*
X515524Y282523D01*
Y281476D01*
X515795Y280465D01*
X516318Y279558D01*
X517058Y278818D01*
X517965Y278295D01*
X518976Y278024D01*
X520023D01*
X521035Y278295D01*
X521942Y278818D01*
X522682Y279558D01*
X523205Y280465D01*
X523476Y281476D01*
Y282523D01*
X523205Y283535D01*
X522682Y284442D01*
X521942Y285182D01*
X521035Y285705D01*
X520023Y285976D01*
D02*
G37*
G36*
X376650Y279500D02*
X373000D01*
Y275850D01*
X373046D01*
X374102Y276133D01*
X375048Y276679D01*
X375820Y277452D01*
X376367Y278398D01*
X376650Y279454D01*
Y279500D01*
D02*
G37*
G36*
X372000D02*
X368350D01*
Y279454D01*
X368633Y278398D01*
X369180Y277452D01*
X369952Y276679D01*
X370898Y276133D01*
X371954Y275850D01*
X372000D01*
Y279500D01*
D02*
G37*
G36*
X337620Y278487D02*
X334757D01*
Y275231D01*
X337620D01*
Y278487D01*
D02*
G37*
G36*
X333757D02*
X330895D01*
Y275231D01*
X333757D01*
Y278487D01*
D02*
G37*
G36*
X189250Y278000D02*
X185000D01*
Y273750D01*
X185125D01*
X186333Y274074D01*
X187417Y274699D01*
X188301Y275583D01*
X188926Y276667D01*
X189250Y277875D01*
Y278000D01*
D02*
G37*
G36*
X184000D02*
X179750D01*
Y277875D01*
X180074Y276667D01*
X180699Y275583D01*
X181583Y274699D01*
X182667Y274074D01*
X183875Y273750D01*
X184000D01*
Y278000D01*
D02*
G37*
G36*
X520023Y275976D02*
X518976D01*
X517965Y275705D01*
X517058Y275182D01*
X516318Y274442D01*
X515795Y273535D01*
X515524Y272523D01*
Y271477D01*
X515795Y270465D01*
X516318Y269558D01*
X517058Y268818D01*
X517965Y268295D01*
X518976Y268024D01*
X520023D01*
X521035Y268295D01*
X521942Y268818D01*
X522682Y269558D01*
X523205Y270465D01*
X523476Y271477D01*
Y272523D01*
X523205Y273535D01*
X522682Y274442D01*
X521942Y275182D01*
X521035Y275705D01*
X520023Y275976D01*
D02*
G37*
G36*
X398000Y266228D02*
Y265000D01*
X399228D01*
X399015Y265512D01*
X398513Y266015D01*
X398000Y266228D01*
D02*
G37*
G36*
X397000D02*
X396487Y266015D01*
X395985Y265512D01*
X395772Y265000D01*
X397000D01*
Y266228D01*
D02*
G37*
G36*
X399228Y264000D02*
X398000D01*
Y262772D01*
X398513Y262985D01*
X399015Y263488D01*
X399228Y264000D01*
D02*
G37*
G36*
X397000D02*
X395772D01*
X395985Y263488D01*
X396487Y262985D01*
X397000Y262772D01*
Y264000D01*
D02*
G37*
G36*
X520026Y265992D02*
X520000D01*
Y262500D01*
X523492D01*
Y262526D01*
X523220Y263541D01*
X522694Y264451D01*
X521951Y265195D01*
X521041Y265720D01*
X520026Y265992D01*
D02*
G37*
G36*
X519000D02*
X518974D01*
X517959Y265720D01*
X517049Y265195D01*
X516305Y264451D01*
X515780Y263541D01*
X515508Y262526D01*
Y262500D01*
X519000D01*
Y265992D01*
D02*
G37*
G36*
X523492Y261500D02*
X520000D01*
Y258008D01*
X520026D01*
X521041Y258280D01*
X521951Y258805D01*
X522694Y259549D01*
X523220Y260459D01*
X523492Y261474D01*
Y261500D01*
D02*
G37*
G36*
X519000D02*
X515508D01*
Y261474D01*
X515780Y260459D01*
X516305Y259549D01*
X517049Y258805D01*
X517959Y258280D01*
X518974Y258008D01*
X519000D01*
Y261500D01*
D02*
G37*
G36*
X170000Y253654D02*
Y252000D01*
X171654D01*
X171349Y252735D01*
X170736Y253349D01*
X170000Y253654D01*
D02*
G37*
G36*
X169000D02*
X168264Y253349D01*
X167651Y252735D01*
X167346Y252000D01*
X169000D01*
Y253654D01*
D02*
G37*
G36*
X171654Y251000D02*
X170000D01*
Y249346D01*
X170736Y249651D01*
X171349Y250265D01*
X171654Y251000D01*
D02*
G37*
G36*
X169000D02*
X167346D01*
X167651Y250265D01*
X168264Y249651D01*
X169000Y249346D01*
Y251000D01*
D02*
G37*
G36*
X326500Y246469D02*
Y241500D01*
X330135D01*
Y242400D01*
X329995Y243470D01*
X329581Y244468D01*
X328924Y245324D01*
X328068Y245981D01*
X327070Y246394D01*
X326500Y246469D01*
D02*
G37*
G36*
X325500D02*
X324930Y246394D01*
X323932Y245981D01*
X323076Y245324D01*
X322419Y244468D01*
X322006Y243470D01*
X321865Y242400D01*
Y241500D01*
X325500D01*
Y246469D01*
D02*
G37*
G36*
X180100Y246500D02*
X176500D01*
Y241500D01*
X180100D01*
Y246500D01*
D02*
G37*
G36*
X175500D02*
X171900D01*
Y241500D01*
X175500D01*
Y246500D01*
D02*
G37*
G36*
X330135Y240500D02*
X326500D01*
Y235530D01*
X327070Y235606D01*
X328068Y236019D01*
X328924Y236676D01*
X329581Y237532D01*
X329995Y238530D01*
X330135Y239600D01*
Y240500D01*
D02*
G37*
G36*
X325500D02*
X321865D01*
Y239600D01*
X322006Y238530D01*
X322419Y237532D01*
X323076Y236676D01*
X323932Y236019D01*
X324930Y235606D01*
X325500Y235530D01*
Y240500D01*
D02*
G37*
G36*
X180100D02*
X176500D01*
Y235500D01*
X180100D01*
Y240500D01*
D02*
G37*
G36*
X175500D02*
X171900D01*
Y235500D01*
X175500D01*
Y240500D01*
D02*
G37*
G36*
X266000Y246519D02*
X264934Y246379D01*
X263940Y245968D01*
X263087Y245313D01*
X262432Y244460D01*
X262021Y243466D01*
X261880Y242400D01*
Y239600D01*
X262021Y238534D01*
X262432Y237540D01*
X263087Y236687D01*
X263940Y236032D01*
X264934Y235621D01*
X266000Y235480D01*
X267066Y235621D01*
X268060Y236032D01*
X268913Y236687D01*
X269568Y237540D01*
X269979Y238534D01*
X270120Y239600D01*
Y242400D01*
X269979Y243466D01*
X269568Y244460D01*
X268913Y245313D01*
X268060Y245968D01*
X267066Y246379D01*
X266000Y246519D01*
D02*
G37*
G36*
X256000D02*
X254934Y246379D01*
X253940Y245968D01*
X253087Y245313D01*
X252432Y244460D01*
X252021Y243466D01*
X251881Y242400D01*
Y239600D01*
X252021Y238534D01*
X252432Y237540D01*
X253087Y236687D01*
X253940Y236032D01*
X254934Y235621D01*
X256000Y235480D01*
X257066Y235621D01*
X258060Y236032D01*
X258913Y236687D01*
X259568Y237540D01*
X259979Y238534D01*
X260120Y239600D01*
Y242400D01*
X259979Y243466D01*
X259568Y244460D01*
X258913Y245313D01*
X258060Y245968D01*
X257066Y246379D01*
X256000Y246519D01*
D02*
G37*
G36*
X246000D02*
X244934Y246379D01*
X243940Y245968D01*
X243087Y245313D01*
X242432Y244460D01*
X242021Y243466D01*
X241880Y242400D01*
Y239600D01*
X242021Y238534D01*
X242432Y237540D01*
X243087Y236687D01*
X243940Y236032D01*
X244934Y235621D01*
X246000Y235480D01*
X247066Y235621D01*
X248060Y236032D01*
X248913Y236687D01*
X249568Y237540D01*
X249979Y238534D01*
X250119Y239600D01*
Y242400D01*
X249979Y243466D01*
X249568Y244460D01*
X248913Y245313D01*
X248060Y245968D01*
X247066Y246379D01*
X246000Y246519D01*
D02*
G37*
G36*
X236000D02*
X234934Y246379D01*
X233940Y245968D01*
X233087Y245313D01*
X232432Y244460D01*
X232021Y243466D01*
X231880Y242400D01*
Y239600D01*
X232021Y238534D01*
X232432Y237540D01*
X233087Y236687D01*
X233940Y236032D01*
X234934Y235621D01*
X236000Y235480D01*
X237066Y235621D01*
X238060Y236032D01*
X238913Y236687D01*
X239568Y237540D01*
X239979Y238534D01*
X240120Y239600D01*
Y242400D01*
X239979Y243466D01*
X239568Y244460D01*
X238913Y245313D01*
X238060Y245968D01*
X237066Y246379D01*
X236000Y246519D01*
D02*
G37*
G36*
X185123Y263234D02*
X183877D01*
X182673Y262912D01*
X181593Y262288D01*
X180712Y261407D01*
X180088Y260327D01*
X179766Y259123D01*
Y257877D01*
X180088Y256673D01*
X180712Y255593D01*
X181593Y254712D01*
X182477Y254201D01*
Y251012D01*
X182631Y250237D01*
X183069Y249581D01*
X183977Y248674D01*
Y245983D01*
X183940Y245968D01*
X183087Y245313D01*
X182432Y244460D01*
X182021Y243466D01*
X181880Y242400D01*
Y239600D01*
X182021Y238534D01*
X182432Y237540D01*
X183087Y236687D01*
X183940Y236032D01*
X184934Y235621D01*
X186000Y235480D01*
X187066Y235621D01*
X188060Y236032D01*
X188913Y236687D01*
X189568Y237540D01*
X189979Y238534D01*
X190120Y239600D01*
Y242400D01*
X189979Y243466D01*
X189568Y244460D01*
X188913Y245313D01*
X188060Y245968D01*
X188023Y245983D01*
Y249512D01*
X187869Y250286D01*
X187431Y250942D01*
X186523Y251850D01*
Y254201D01*
X187407Y254712D01*
X188288Y255593D01*
X188912Y256673D01*
X189234Y257877D01*
Y259123D01*
X188912Y260327D01*
X188288Y261407D01*
X187407Y262288D01*
X186327Y262912D01*
X185123Y263234D01*
D02*
G37*
G36*
X165123Y273234D02*
X163877D01*
X162673Y272912D01*
X161593Y272288D01*
X160712Y271407D01*
X160088Y270327D01*
X159766Y269123D01*
Y267877D01*
X160088Y266673D01*
X160712Y265593D01*
X161593Y264712D01*
X161977Y264490D01*
Y219000D01*
X162131Y218226D01*
X162569Y217569D01*
X167069Y213069D01*
X167726Y212631D01*
X168500Y212477D01*
X190500D01*
X191274Y212631D01*
X191931Y213069D01*
X197431Y218569D01*
X197869Y219226D01*
X198023Y220000D01*
Y236017D01*
X198060Y236032D01*
X198913Y236687D01*
X199568Y237540D01*
X199979Y238534D01*
X200119Y239600D01*
Y242400D01*
X199979Y243466D01*
X199568Y244460D01*
X198913Y245313D01*
X198060Y245968D01*
X197066Y246379D01*
X196000Y246519D01*
X194934Y246379D01*
X193940Y245968D01*
X193087Y245313D01*
X192432Y244460D01*
X192021Y243466D01*
X191881Y242400D01*
Y239600D01*
X192021Y238534D01*
X192432Y237540D01*
X193087Y236687D01*
X193940Y236032D01*
X193977Y236017D01*
Y220838D01*
X189662Y216523D01*
X169338D01*
X166023Y219838D01*
Y264007D01*
X166327Y264088D01*
X167407Y264712D01*
X168288Y265593D01*
X168912Y266673D01*
X169234Y267877D01*
Y269123D01*
X168912Y270327D01*
X168288Y271407D01*
X167407Y272288D01*
X166327Y272912D01*
X165123Y273234D01*
D02*
G37*
G36*
X485852Y267272D02*
X485148D01*
X484496Y267002D01*
X483998Y266504D01*
X483728Y265852D01*
Y265148D01*
X483987Y264524D01*
Y215549D01*
X483664Y215227D01*
X483335Y214431D01*
Y213569D01*
X483664Y212773D01*
X484273Y212164D01*
X485069Y211835D01*
X485931D01*
X486727Y212164D01*
X487336Y212773D01*
X487665Y213569D01*
Y214431D01*
X487336Y215227D01*
X487013Y215549D01*
Y264524D01*
X487272Y265148D01*
Y265852D01*
X487002Y266504D01*
X486504Y267002D01*
X485852Y267272D01*
D02*
G37*
G36*
X518700Y193821D02*
X515300D01*
X514182Y193674D01*
X513139Y193242D01*
X512244Y192556D01*
X511558Y191661D01*
X511126Y190618D01*
X510979Y189500D01*
X511126Y188382D01*
X511558Y187339D01*
X512244Y186444D01*
X513139Y185758D01*
X514182Y185326D01*
X515300Y185179D01*
X518700D01*
X519818Y185326D01*
X520861Y185758D01*
X521756Y186444D01*
X522442Y187339D01*
X522874Y188382D01*
X523021Y189500D01*
X522874Y190618D01*
X522442Y191661D01*
X521756Y192556D01*
X520861Y193242D01*
X519818Y193674D01*
X518700Y193821D01*
D02*
G37*
G36*
Y183837D02*
X517500D01*
Y180000D01*
X522971D01*
X522889Y180622D01*
X522456Y181669D01*
X521767Y182567D01*
X520868Y183256D01*
X519823Y183689D01*
X518700Y183837D01*
D02*
G37*
G36*
X427000Y181654D02*
Y180000D01*
X428654D01*
X428349Y180736D01*
X427736Y181349D01*
X427000Y181654D01*
D02*
G37*
G36*
X426000D02*
X425265Y181349D01*
X424651Y180736D01*
X424346Y180000D01*
X426000D01*
Y181654D01*
D02*
G37*
G36*
X516500Y183837D02*
X515300D01*
X514178Y183689D01*
X513132Y183256D01*
X512233Y182567D01*
X511544Y181669D01*
X511111Y180622D01*
X511029Y180000D01*
X516500D01*
Y183837D01*
D02*
G37*
G36*
X428654Y179000D02*
X427000D01*
Y177346D01*
X427736Y177651D01*
X428349Y178264D01*
X428654Y179000D01*
D02*
G37*
G36*
X426000D02*
X424346D01*
X424651Y178264D01*
X425265Y177651D01*
X426000Y177346D01*
Y179000D01*
D02*
G37*
G36*
X522971D02*
X517500D01*
Y175163D01*
X518700D01*
X519823Y175311D01*
X520868Y175744D01*
X521767Y176433D01*
X522456Y177331D01*
X522889Y178377D01*
X522971Y179000D01*
D02*
G37*
G36*
X516500D02*
X511029D01*
X511111Y178377D01*
X511544Y177331D01*
X512233Y176433D01*
X513132Y175744D01*
X514178Y175311D01*
X515300Y175163D01*
X516500D01*
Y179000D01*
D02*
G37*
%LPD*%
G36*
X322275Y329387D02*
X322890Y329264D01*
X323504Y329387D01*
X323874Y329634D01*
X324244Y329387D01*
X324858Y329264D01*
X324927Y329278D01*
X325313Y328961D01*
Y327500D01*
X325313Y327500D01*
X325313Y327500D01*
Y317664D01*
X325313Y317664D01*
X325429Y317085D01*
X325487Y316998D01*
Y308976D01*
X325228Y308352D01*
Y307648D01*
X325247Y307602D01*
X324969Y307187D01*
X312592D01*
Y328945D01*
X312979Y329262D01*
X313047Y329248D01*
X313668Y329372D01*
X314046Y329624D01*
X314401Y329387D01*
X315016Y329264D01*
X315630Y329387D01*
X316000Y329634D01*
X316370Y329387D01*
X316984Y329264D01*
X317599Y329387D01*
X317969Y329634D01*
X318338Y329387D01*
X318953Y329264D01*
X319567Y329387D01*
X319937Y329634D01*
X320307Y329387D01*
X320921Y329264D01*
X321536Y329387D01*
X321905Y329634D01*
X322275Y329387D01*
D02*
G37*
G36*
X349240Y311120D02*
X349498Y310496D01*
X349981Y310013D01*
X349978Y309931D01*
X349860Y309513D01*
X345476D01*
X344852Y309772D01*
X344148D01*
X343496Y309502D01*
X342998Y309004D01*
X342728Y308352D01*
Y307648D01*
X342378Y307187D01*
X336807D01*
X336490Y307573D01*
X336503Y307642D01*
X336381Y308256D01*
X336134Y308626D01*
X336381Y308996D01*
X336503Y309610D01*
X336381Y310225D01*
X336134Y310595D01*
X336381Y310964D01*
X336503Y311579D01*
X336490Y311647D01*
X336807Y312034D01*
X348326D01*
X349240Y311120D01*
D02*
G37*
G36*
X304487Y324373D02*
Y311476D01*
X304228Y310852D01*
Y310148D01*
X304498Y309496D01*
X304996Y308998D01*
X305648Y308728D01*
X306352D01*
X307004Y308998D01*
X307502Y309496D01*
X307772Y310148D01*
Y310852D01*
X307513Y311476D01*
Y317541D01*
X307929Y317819D01*
X308148Y317728D01*
X308852D01*
X309065Y317817D01*
X309565Y317482D01*
Y307187D01*
X303555D01*
X303238Y307573D01*
X303252Y307642D01*
X303128Y308262D01*
X302876Y308640D01*
X303113Y308996D01*
X303236Y309610D01*
X303113Y310225D01*
X302866Y310595D01*
X303113Y310964D01*
X303236Y311579D01*
X303113Y312193D01*
X302866Y312563D01*
X303113Y312933D01*
X303236Y313547D01*
X303113Y314162D01*
X302866Y314531D01*
X303113Y314901D01*
X303236Y315516D01*
X303113Y316130D01*
X302866Y316500D01*
X303113Y316870D01*
X303236Y317484D01*
X303113Y318099D01*
X302866Y318468D01*
X303113Y318838D01*
X303236Y319453D01*
X303113Y320067D01*
X302866Y320437D01*
X303113Y320807D01*
X303236Y321421D01*
X303113Y322036D01*
X302866Y322406D01*
X303113Y322775D01*
X303236Y323390D01*
X303113Y324004D01*
X302866Y324374D01*
X303113Y324744D01*
X303162Y324990D01*
X303705Y325155D01*
X304487Y324373D01*
D02*
G37*
D15*
X276586Y382500D02*
X285500D01*
X275500Y381414D02*
X276586Y382500D01*
X278478Y295277D02*
X279384Y296183D01*
X297151Y305673D02*
X311500D01*
X326827Y283827D02*
Y302179D01*
X485500Y214000D02*
Y265500D01*
X276000Y241000D02*
Y244500D01*
X311079Y279579D01*
Y299866D01*
X286033Y241033D02*
Y247033D01*
X313047Y274047D01*
X324000Y287500D02*
X324858Y288358D01*
Y299866D01*
X334947Y325358D02*
X335088Y325500D01*
X345000D01*
X332634Y325358D02*
X334947D01*
X332634Y327327D02*
X343327D01*
X349500Y333500D02*
Y341264D01*
X343327Y327327D02*
X349500Y333500D01*
X327000Y327327D02*
X332634D01*
X313047Y333134D02*
Y350953D01*
X313000Y351000D02*
X313047Y350953D01*
Y274047D02*
Y299866D01*
X315016Y269016D02*
Y299866D01*
X296000Y250000D02*
X315016Y269016D01*
X296000Y241000D02*
Y250000D01*
X306000Y252500D02*
X316984Y263484D01*
X306000Y241500D02*
Y252500D01*
X316984Y263484D02*
Y299866D01*
X288000Y268000D02*
X307142Y287142D01*
Y299866D01*
X224500Y268000D02*
X288000D01*
X215000Y274000D02*
X287500D01*
X305173Y291673D02*
Y299866D01*
X287500Y274000D02*
X305173Y291673D01*
X344000Y270500D02*
Y286000D01*
X324000Y266500D02*
X340000D01*
X344000Y270500D01*
X348000Y290000D02*
X372500D01*
X344000Y286000D02*
X348000Y290000D01*
X320500Y270000D02*
Y287000D01*
Y270000D02*
X324000Y266500D01*
X203000Y399500D02*
Y408984D01*
X203287Y329213D02*
X206500Y326000D01*
X203287Y329213D02*
Y338627D01*
X206500Y326000D02*
X216500D01*
X206000Y359000D02*
X210000D01*
X203287Y361713D02*
Y373694D01*
Y361713D02*
X206000Y359000D01*
X297012Y305534D02*
X297151Y305673D01*
X287684Y296183D02*
X297012Y305512D01*
X279384Y296183D02*
X287684D01*
X297012Y305512D02*
Y305534D01*
X235000Y262500D02*
X288000D01*
X226000Y253500D02*
X235000Y262500D01*
X288000D02*
X309110Y283610D01*
X226000Y241000D02*
Y253500D01*
X216000Y259500D02*
X224500Y268000D01*
X216000Y241000D02*
Y259500D01*
X206000Y241000D02*
Y265000D01*
X215000Y274000D01*
X327000Y302352D02*
Y305588D01*
Y305673D02*
Y308000D01*
X326827Y302179D02*
X327000Y302352D01*
Y308000D02*
Y317491D01*
X311500Y305673D02*
X326914D01*
X327000Y305588D01*
X326827Y317664D02*
Y327500D01*
Y317664D02*
X327000Y317491D01*
X344500Y308000D02*
X358000D01*
X360000Y310000D01*
X307142Y328358D02*
X308500Y327000D01*
X307142Y328358D02*
Y333134D01*
X308500Y319500D02*
Y327000D01*
X306000Y310500D02*
Y325000D01*
X299366Y327327D02*
X303673D01*
X306000Y325000D01*
X278000Y319500D02*
X282000D01*
X270500Y327000D02*
X278000Y319500D01*
X270500Y327000D02*
Y347500D01*
X265000Y353000D02*
X270500Y347500D01*
X243500Y353000D02*
X265000D01*
X241139Y350639D02*
X243500Y353000D01*
X239500Y348517D02*
X241139D01*
Y350639D01*
X240495Y347521D02*
X241000D01*
X239500Y348517D02*
X240495Y347521D01*
X239739Y346261D02*
X241000Y347521D01*
X239277Y346261D02*
X239739D01*
X308500Y342500D02*
X309110Y341890D01*
Y333134D02*
Y341890D01*
X305173Y333134D02*
Y345671D01*
X305000Y345845D02*
X305173Y345671D01*
X305000Y345845D02*
Y346000D01*
X300500Y349000D02*
X308500D01*
X311079Y333134D02*
Y346421D01*
X308500Y349000D02*
X311079Y346421D01*
Y306095D02*
Y333134D01*
X297777Y351723D02*
Y355987D01*
Y351723D02*
X300500Y349000D01*
X203000Y408984D02*
X203277Y409261D01*
X291500Y385000D02*
X310000D01*
X315016Y379984D01*
Y333134D02*
Y379984D01*
X372500Y310000D02*
Y310500D01*
X396500Y398969D02*
Y399000D01*
X420500Y374500D02*
Y374750D01*
X418500Y376750D02*
X420500Y374750D01*
X418250Y376750D02*
X418500D01*
X413000Y382000D02*
X418250Y376750D01*
X404500Y382000D02*
X413000D01*
X275500Y326500D02*
Y381414D01*
Y326500D02*
X278610Y323390D01*
X299366D01*
X486500Y377500D02*
X488500Y375500D01*
X493000D01*
X279000Y329500D02*
Y377500D01*
Y329500D02*
X283142Y325358D01*
X299366D01*
X404500Y312500D02*
X415038D01*
X415277Y312261D01*
X348390Y323390D02*
X348500Y323500D01*
X332634Y323390D02*
X348390D01*
X311079Y306095D02*
X311500Y305673D01*
X326827Y327500D02*
Y332416D01*
Y327500D02*
X327000Y327327D01*
X326827Y332416D02*
X326910Y332500D01*
X326827Y332584D02*
Y333134D01*
Y332584D02*
X326910Y332500D01*
X332634Y317484D02*
X354484D01*
X357000Y320000D01*
X203267Y289389D02*
Y302261D01*
X203500Y289000D02*
Y289156D01*
X203267Y289389D02*
X203500Y289156D01*
X348953Y313547D02*
X351000Y311500D01*
X332634Y313547D02*
X348953D01*
X332634Y315516D02*
X332642Y315508D01*
X356992D01*
X357000Y315500D01*
X246758Y337742D02*
Y346261D01*
Y337742D02*
X247000Y337500D01*
X332634Y319453D02*
X349453D01*
X356983Y326983D01*
X357106Y341038D02*
X357500D01*
X356983Y340915D02*
X357106Y341038D01*
X356983Y326983D02*
Y340915D01*
X357500Y341038D02*
X359239Y342777D01*
X349500Y341264D02*
X351013Y342777D01*
X360000Y310000D02*
X372500D01*
X348500Y300000D02*
X372500D01*
X342827Y305673D02*
X348500Y300000D01*
X332634Y305673D02*
X342827D01*
X320500Y287000D02*
X322890Y289390D01*
Y299866D01*
X326777Y283777D02*
X326827Y283827D01*
X326777Y278987D02*
Y283777D01*
X309110Y283610D02*
Y299866D01*
D17*
X477000Y363000D02*
X480000Y360000D01*
X468268Y363000D02*
X477000D01*
X480000Y344018D02*
Y360000D01*
X479239Y343257D02*
X480000Y344018D01*
D19*
X224500Y456524D02*
X247008D01*
X224500Y457024D02*
Y460961D01*
Y456524D02*
Y457024D01*
Y456500D02*
Y456524D01*
X200000Y475500D02*
Y477500D01*
X202500Y471000D02*
Y473000D01*
Y471000D02*
X204500D01*
X212102Y463398D01*
X222063D01*
X224500Y460961D01*
X200000Y475500D02*
X202500Y473000D01*
X221626Y428874D02*
Y435000D01*
X224500Y426000D02*
X257000D01*
X221626Y428874D02*
X224500Y426000D01*
X262000Y431000D02*
Y444500D01*
X257000Y426000D02*
X262000Y431000D01*
X247008Y456524D02*
X255000Y448531D01*
Y444500D02*
Y448531D01*
D20*
X332634Y327327D02*
D03*
Y325358D02*
D03*
Y323390D02*
D03*
Y321421D02*
D03*
Y319453D02*
D03*
Y317484D02*
D03*
Y315516D02*
D03*
Y313547D02*
D03*
Y311579D02*
D03*
Y309610D02*
D03*
Y307642D02*
D03*
Y305673D02*
D03*
X299366D02*
D03*
Y307642D02*
D03*
Y309610D02*
D03*
Y311579D02*
D03*
Y313547D02*
D03*
Y315516D02*
D03*
Y317484D02*
D03*
Y319453D02*
D03*
Y321421D02*
D03*
Y323390D02*
D03*
Y325358D02*
D03*
Y327327D02*
D03*
D21*
X326827Y299866D02*
D03*
X324858D02*
D03*
X322890D02*
D03*
X320921D02*
D03*
X318953D02*
D03*
X316984D02*
D03*
X315016D02*
D03*
X313047D02*
D03*
X311079D02*
D03*
X309110D02*
D03*
X307142D02*
D03*
X305173D02*
D03*
Y333134D02*
D03*
X307142D02*
D03*
X309110D02*
D03*
X311079D02*
D03*
X313047D02*
D03*
X315016D02*
D03*
X316984D02*
D03*
X318953D02*
D03*
X320921D02*
D03*
X322890D02*
D03*
X324858D02*
D03*
X326827D02*
D03*
D22*
X447000Y351126D02*
D03*
Y366874D02*
D03*
X418500Y281874D02*
D03*
Y266126D02*
D03*
X519500Y350626D02*
D03*
Y366374D02*
D03*
D23*
X417980Y294079D02*
D03*
X421700Y303900D02*
D03*
X414120Y303921D02*
D03*
D24*
X326777Y278987D02*
D03*
X334258D02*
D03*
X297777Y355987D02*
D03*
X305258D02*
D03*
X472743Y373739D02*
D03*
X480223D02*
D03*
X402742Y374739D02*
D03*
X410223D02*
D03*
X210723Y418013D02*
D03*
X203242D02*
D03*
X210757Y409261D02*
D03*
X203277D02*
D03*
Y382387D02*
D03*
X210757D02*
D03*
X210768Y373694D02*
D03*
X203287D02*
D03*
X203277Y346787D02*
D03*
X210757D02*
D03*
X210768Y338627D02*
D03*
X203287D02*
D03*
X203277Y310487D02*
D03*
X210757D02*
D03*
X210747Y302261D02*
D03*
X203267D02*
D03*
X246758Y346261D02*
D03*
X239277D02*
D03*
X177258Y429261D02*
D03*
X169777D02*
D03*
X415277Y312261D02*
D03*
X422757D02*
D03*
D25*
X502000Y339500D02*
D03*
X492179Y343220D02*
D03*
X492157Y335640D02*
D03*
X429921Y339980D02*
D03*
X420100Y343700D02*
D03*
X420079Y336120D02*
D03*
D26*
X493000Y375500D02*
D03*
X502000D02*
D03*
X420500Y374500D02*
D03*
X429500D02*
D03*
X297500Y391500D02*
D03*
X288500D02*
D03*
X238000Y337500D02*
D03*
X247000D02*
D03*
X170000Y437500D02*
D03*
X179000D02*
D03*
D27*
X501732Y353000D02*
D03*
Y363000D02*
D03*
X468268D02*
D03*
Y353000D02*
D03*
X429732D02*
D03*
Y363000D02*
D03*
X396268D02*
D03*
Y353000D02*
D03*
D28*
X479239Y343257D02*
D03*
Y335777D02*
D03*
X407739Y343257D02*
D03*
Y335777D02*
D03*
X287987Y409723D02*
D03*
Y402243D02*
D03*
X238487Y410723D02*
D03*
Y403242D02*
D03*
X278513Y295277D02*
D03*
Y302758D02*
D03*
X297239Y402287D02*
D03*
Y409768D02*
D03*
X351013Y350257D02*
D03*
Y342777D02*
D03*
X359239D02*
D03*
Y350257D02*
D03*
D29*
X268500Y490500D02*
D03*
D30*
X283000Y444500D02*
D03*
X276000D02*
D03*
X269000D02*
D03*
X262000D02*
D03*
X255000D02*
D03*
D31*
X325500Y491000D02*
D03*
X325106Y449268D02*
D03*
D32*
X316024Y403500D02*
D03*
X343976D02*
D03*
D33*
X264000Y386583D02*
D03*
D34*
X254945Y409417D02*
D03*
X264000D02*
D03*
X273055D02*
D03*
D35*
X221626Y435000D02*
D03*
X237374D02*
D03*
D36*
X224500Y484976D02*
D03*
Y457024D02*
D03*
D68*
X255000Y400000D02*
Y411109D01*
X255500Y411609D01*
X238880Y410723D02*
X240657Y412500D01*
X254685D01*
X238487Y410723D02*
X238880D01*
X264000Y386583D02*
Y409417D01*
Y418000D01*
X269500Y423500D02*
X292500D01*
X264000Y418000D02*
X269500Y423500D01*
X259500Y386583D02*
X260276D01*
X264000Y382858D01*
Y372000D02*
Y382858D01*
X292500Y423500D02*
X297500Y418500D01*
X296500D02*
X296739Y418261D01*
X297239D01*
X338976Y403500D02*
X340000Y404524D01*
X329189Y449268D02*
X340000Y438457D01*
X325106Y449268D02*
X329189D01*
X340000Y404524D02*
Y438457D01*
X338976Y403500D02*
X341476Y401000D01*
X199000Y477500D02*
X200000D01*
X385587Y374739D02*
X402742D01*
X381500Y370653D02*
X385587Y374739D01*
X381500Y370500D02*
Y370653D01*
X307000Y470000D02*
X311861Y474860D01*
X269000Y470000D02*
X307000D01*
X311861Y474860D02*
Y480189D01*
X322672Y491000D01*
X325500D01*
X316000Y220000D02*
Y240840D01*
Y215000D02*
Y220000D01*
X289000Y370000D02*
X297777Y361223D01*
Y355987D02*
Y361223D01*
X516500Y190000D02*
X517000Y189500D01*
X331500Y199500D02*
X508500D01*
X316000Y215000D02*
X331500Y199500D01*
X508500D02*
X517000D01*
X508500D02*
Y252000D01*
X196000Y220000D02*
Y241905D01*
X467000Y397500D02*
Y400500D01*
X468000Y332000D02*
Y353000D01*
X276000Y444000D02*
X277000Y445000D01*
X177258Y429742D02*
X177739Y429261D01*
X238080Y410736D02*
X238500D01*
X186000Y241000D02*
Y249512D01*
Y240000D02*
Y241000D01*
X184500Y258500D02*
Y259063D01*
Y251012D02*
Y258500D01*
Y251012D02*
X186000Y249512D01*
X164000Y219000D02*
Y268890D01*
X362500Y400500D02*
X363000Y401000D01*
X362476Y379024D02*
Y399828D01*
X362824Y400176D01*
X341476Y401000D02*
X363000D01*
X394587Y400882D02*
X396500Y398969D01*
X390328Y401000D02*
X390446Y400882D01*
X394587D01*
X363000Y401000D02*
X390328D01*
X276000Y444500D02*
Y454000D01*
Y444000D02*
Y444500D01*
Y434000D02*
Y444000D01*
X220500Y419000D02*
X229816D01*
X238080Y410736D01*
X238487Y410723D02*
X238500Y410736D01*
X210239Y429261D02*
X220277Y419223D01*
X501732Y375232D02*
X502000Y375500D01*
X501732Y363000D02*
Y375232D01*
X480401Y336939D02*
X483439D01*
X489047Y342547D01*
X491505D02*
X492179Y343220D01*
X479239Y335777D02*
X480401Y336939D01*
X489047Y342547D02*
X491505D01*
X210757Y409261D02*
X219239D01*
X224783Y373000D02*
Y403717D01*
X219239Y409261D02*
X224783Y403717D01*
X168500Y214500D02*
X190500D01*
X196000Y220000D01*
X443744Y383027D02*
X447000Y379771D01*
Y365299D02*
Y379771D01*
X448000Y333727D02*
Y350126D01*
Y333727D02*
X451950Y329777D01*
X447000Y351126D02*
X448000Y350126D01*
X447000Y351126D02*
Y352000D01*
X451950Y293950D02*
Y313000D01*
X420847Y285795D02*
X443795D01*
X451950Y293950D01*
X517154Y362453D02*
X519500Y364799D01*
X510500Y348000D02*
Y357374D01*
X519500Y364799D02*
Y366374D01*
X515579Y362453D02*
X517154D01*
X510500Y357374D02*
X515579Y362453D01*
X519500Y366374D02*
Y381151D01*
X411000Y363500D02*
X420677Y353823D01*
X411000Y363500D02*
Y373962D01*
X410223Y374739D02*
X411000Y373962D01*
X420677Y353823D02*
X428910D01*
X480223Y373346D02*
Y373739D01*
Y373346D02*
X481585Y371984D01*
X501616Y353000D02*
X501732D01*
X498744Y355872D02*
Y355988D01*
X481585Y371984D02*
X482749D01*
X498744Y355872D02*
X501616Y353000D01*
X482749Y371984D02*
X498744Y355988D01*
X471380Y371984D02*
X472743Y373346D01*
X469648Y370645D02*
X470987Y371984D01*
X465645Y370645D02*
X469648D01*
X472743Y373346D02*
Y373739D01*
X470987Y371984D02*
X471380D01*
X388500Y353000D02*
X396268D01*
X362476Y379024D02*
X388500Y353000D01*
X465500Y370500D02*
X465645Y370645D01*
X280500Y458500D02*
X315874D01*
X276000Y454000D02*
X280500Y458500D01*
X224000Y295277D02*
X278478D01*
X446626Y266126D02*
X452000Y271500D01*
Y283000D01*
X418500Y266126D02*
X446626D01*
X407000Y290000D02*
X411079Y294079D01*
X407000Y270000D02*
Y290000D01*
X411079Y294079D02*
X417980D01*
X410874Y266126D02*
X418500D01*
X407000Y270000D02*
X410874Y266126D01*
X468000Y399500D02*
Y401500D01*
Y398969D02*
Y399500D01*
X396500Y399000D02*
Y407000D01*
X503362Y340862D02*
X510500Y348000D01*
X503362Y340173D02*
Y340862D01*
X502000Y339500D02*
X502689D01*
X503362Y340173D01*
X164000Y219000D02*
X168500Y214500D01*
X163027Y382360D02*
X203251D01*
X451950Y313000D02*
Y329777D01*
X515244Y385407D02*
X519500Y381151D01*
X515244Y385407D02*
Y398969D01*
X443744Y383027D02*
Y398969D01*
X372500Y310500D02*
Y362000D01*
X403000Y413500D02*
X456000D01*
X468000Y401500D01*
X396500Y407000D02*
X403000Y413500D01*
X519500Y324000D02*
Y350626D01*
Y302500D02*
Y324000D01*
X468000Y353000D02*
X468268D01*
X459000D02*
X468000D01*
X476000Y324000D02*
X519500D01*
X468000Y332000D02*
X476000Y324000D01*
X459000Y353000D02*
Y389968D01*
X448000Y353000D02*
X459000D01*
X447000Y352000D02*
X448000Y353000D01*
X459000Y389968D02*
X466532Y397500D01*
X467000D01*
Y400500D02*
X468000Y399500D01*
X508500Y252000D02*
X519500D01*
X508500Y291500D02*
X519500Y302500D01*
X508500Y252000D02*
Y291500D01*
X428910Y353823D02*
X429732Y353000D01*
X407739Y335777D02*
X408545Y336583D01*
X412294D02*
X419411Y343700D01*
X408545Y336583D02*
X412294D01*
X438000Y356299D02*
X447000Y365299D01*
X438000Y348059D02*
Y356299D01*
X430630Y340000D02*
X431284Y340653D01*
Y341342D01*
X429941Y340000D02*
X430630D01*
X431284Y341342D02*
X438000Y348059D01*
X429921Y339980D02*
X429941Y340000D01*
X419411Y343700D02*
X420100D01*
X429000Y374500D02*
X429616Y373884D01*
Y363116D02*
Y373884D01*
Y363116D02*
X429732Y363000D01*
X429000Y374500D02*
X429500D01*
X407739Y343257D02*
Y361761D01*
X406500Y363000D02*
X407739Y361761D01*
X396268Y363000D02*
X406500D01*
X163257Y310743D02*
X203021D01*
X224783Y338064D02*
Y373000D01*
X210768Y373694D02*
X211462Y373000D01*
X224783D01*
X217731Y295277D02*
X224000D01*
X224783Y296060D02*
Y338064D01*
X224000Y295277D02*
X224783Y296060D01*
Y338064D02*
X237436D01*
X212130D02*
X224783D01*
X237436D02*
X238000Y337500D01*
X211895D02*
Y337829D01*
X212130Y338064D01*
X210768Y338627D02*
X211895Y337500D01*
X212503Y300505D02*
X217731Y295277D01*
X210747Y301867D02*
Y302261D01*
Y301867D02*
X212109Y300505D01*
X212503D01*
X418500Y283449D02*
X420847Y285795D01*
X418500Y281874D02*
Y283449D01*
X421700Y303900D02*
X422229Y304429D01*
Y311732D01*
X422757Y312261D01*
X297239Y409768D02*
Y418261D01*
X203272Y302266D02*
Y310482D01*
X203267Y302261D02*
X203272Y302266D01*
Y310482D02*
X203277Y310487D01*
X163000Y311000D02*
X163257Y310743D01*
X203021D02*
X203277Y310487D01*
X163060Y346727D02*
X203217D01*
X203282Y340282D02*
Y346781D01*
X203277Y346787D02*
X203282Y346781D01*
X203000Y340000D02*
X203282Y340282D01*
X203000Y340000D02*
X203287Y339713D01*
Y338627D02*
Y339713D01*
X203217Y346727D02*
X203277Y346787D01*
X163000Y346667D02*
X163060Y346727D01*
X203287Y373694D02*
Y382376D01*
X203277Y382387D02*
X203287Y382376D01*
X163000Y382333D02*
X163027Y382360D01*
X203251D02*
X203277Y382387D01*
X163000Y418000D02*
X188000D01*
X188007Y418007D02*
X203236D01*
X203242Y418013D01*
X188000Y418000D02*
X188007Y418007D01*
X203242Y418013D02*
X203260Y417996D01*
Y409278D02*
Y417996D01*
Y409278D02*
X203277Y409261D01*
X177739Y429261D02*
X210239D01*
X177258D02*
Y429742D01*
X169889Y437389D02*
X170000Y437500D01*
X169889Y429372D02*
Y437389D01*
X169777Y429261D02*
X169889Y429372D01*
X288009Y409745D02*
X297217D01*
X287987Y409723D02*
X288009Y409745D01*
X297217D02*
X297239Y409768D01*
X297370Y391630D02*
Y402157D01*
Y391630D02*
X297500Y391500D01*
X297239Y402287D02*
X297370Y402157D01*
X262000Y463000D02*
X269000Y470000D01*
X262000Y444500D02*
Y463000D01*
X315874Y458500D02*
X325106Y449268D01*
D69*
X463900Y488600D02*
X491622Y460878D01*
Y391094D02*
Y460878D01*
X461750Y491000D02*
X463900Y488850D01*
Y488600D02*
Y488850D01*
X461500Y491000D02*
X461750D01*
X452414Y501500D02*
X485328D01*
X419500D02*
X452414D01*
X451750Y491000D02*
Y500836D01*
X452414Y501500D01*
X486500Y491000D02*
Y500328D01*
X485328Y501500D02*
X486500Y500328D01*
X417000Y499000D02*
X419500Y501500D01*
X417000Y491000D02*
Y499000D01*
X496500Y491000D02*
Y491500D01*
Y491000D02*
X516000Y471500D01*
Y447000D02*
Y471500D01*
X427000Y490000D02*
X428000D01*
X444500Y447000D02*
Y472500D01*
X428000Y490000D02*
X429150Y488850D01*
Y487850D02*
Y488850D01*
Y487850D02*
X444500Y472500D01*
X427000Y490000D02*
Y491000D01*
D70*
X517000Y199500D02*
D03*
Y189500D02*
D03*
Y179500D02*
D03*
D71*
X519500Y282000D02*
D03*
Y272000D02*
D03*
Y262000D02*
D03*
D72*
Y252000D02*
D03*
D73*
X372500Y280000D02*
D03*
Y300000D02*
D03*
Y290000D02*
D03*
X486500Y491000D02*
D03*
X451750D02*
D03*
X417000D02*
D03*
D74*
X372500Y310000D02*
D03*
D75*
X452000Y283000D02*
D03*
D76*
X451950Y313000D02*
D03*
D77*
X496500Y491000D02*
D03*
X461750D02*
D03*
X427000D02*
D03*
D78*
X443744Y398969D02*
D03*
X396500D02*
D03*
X444500Y447000D02*
D03*
X396500D02*
D03*
X420122Y391094D02*
D03*
X515244Y398969D02*
D03*
X468000D02*
D03*
X516000Y447000D02*
D03*
X468000D02*
D03*
X491622Y391094D02*
D03*
D79*
X176000Y241000D02*
D03*
D80*
X186000D02*
D03*
X196000D02*
D03*
X206000D02*
D03*
X216000D02*
D03*
X226000D02*
D03*
X236000D02*
D03*
X246000D02*
D03*
X256000D02*
D03*
X266000D02*
D03*
X276000D02*
D03*
X286000D02*
D03*
X296000D02*
D03*
X306000D02*
D03*
X316000D02*
D03*
X326000D02*
D03*
D81*
X184500Y278500D02*
D03*
X164500Y268500D02*
D03*
X184500Y258500D02*
D03*
X163000Y311000D02*
D03*
X188000Y291000D02*
D03*
Y311000D02*
D03*
X163000Y291000D02*
D03*
Y346667D02*
D03*
X188000Y326667D02*
D03*
Y346667D02*
D03*
X163000Y326667D02*
D03*
Y382333D02*
D03*
X188000Y362333D02*
D03*
Y382333D02*
D03*
X163000Y362333D02*
D03*
X188000Y398000D02*
D03*
X163000Y418000D02*
D03*
Y398000D02*
D03*
X188000Y418000D02*
D03*
D82*
X199000Y477500D02*
D03*
X174000D02*
D03*
D83*
X189000Y457500D02*
D03*
D84*
X372500Y362000D02*
D03*
X381500Y370500D02*
D03*
D85*
X216500Y326000D02*
D03*
X210000Y359000D02*
D03*
X291500Y385000D02*
D03*
X305000Y346000D02*
D03*
X308500Y342500D02*
D03*
X485500Y265500D02*
D03*
X282000Y319500D02*
D03*
X306000Y310500D02*
D03*
X308500Y319500D02*
D03*
X344500Y308000D02*
D03*
X327000D02*
D03*
X351500Y368500D02*
D03*
X219500Y282500D02*
D03*
X252500Y304500D02*
D03*
X203000Y399500D02*
D03*
X341500Y296000D02*
D03*
X487000Y355500D02*
D03*
X397500Y264500D02*
D03*
X237500Y357000D02*
D03*
X289000Y345500D02*
D03*
X357000Y315500D02*
D03*
X351000Y311500D02*
D03*
X203500Y289000D02*
D03*
X357000Y320000D02*
D03*
X348500Y323500D02*
D03*
X404500Y312500D02*
D03*
X279000Y377500D02*
D03*
X486500D02*
D03*
X404500Y382000D02*
D03*
X285500Y382500D02*
D03*
D86*
X465500Y370500D02*
D03*
D87*
X169500Y251500D02*
D03*
X426500Y179500D02*
D03*
X294500Y463500D02*
D03*
X289000Y370000D02*
D03*
X485500Y214000D02*
D03*
X233000Y395500D02*
D03*
X495000Y309500D02*
D03*
X264000Y372000D02*
D03*
D88*
X316000Y220000D02*
D03*
D89*
X276000Y434000D02*
D03*
X255000Y400000D02*
D03*
M02*
