M48
;Layer_Color=9474304
;FILE_FORMAT=2:4
INCH,TZ
;TYPE=PLATED
T1F00S00C0.0098
T2F00S00C0.0118
T3F00S00C0.0157
T4F00S00C0.0158
T5F00S00C0.0200
T6F00S00C0.0208
T7F00S00C0.0315
T8F00S00C0.0320
T9F00S00C0.0370
T10F00S00C0.0380
T11F00S00C0.0390
T12F00S00C0.0402
T13F00S00C0.0450
%
T01
X48550Y26550
X39750Y26450
X34150Y29600
X34450Y30800
X35100Y31150
X32700Y30800
X30600Y31050
X25250Y30450
X21950Y28250
X20350Y28900
X21650Y32600
X21000Y35900
X23750Y35700
X27900Y37750
X28550Y38250
X29150Y38500
X28900Y34550
X30500Y34600
X30850Y34250
Y31950
X28200
X20300Y39950
X35150Y36850
X34850Y32350
X35700Y32000
Y31550
X40450Y31250
Y38200
X48650Y37750
X48700Y35550
T02
X48550Y21400
X49500Y30950
X42650Y17950
X16950Y25150
X23300Y39550
X25500Y40000
X26400Y37200
X28900Y37000
X27600Y43400
X29450Y46350
T03
X46550Y37050
T04
X31600Y22000
T05
X37250Y36200
T06
X38150Y37050
T07
X37250Y28000
Y29000
Y30000
Y31000
X45200Y28300
X45195Y31300
X48650Y49100
X49650
X46175
X45175
X42700
X41700
T08
X51700Y17950
Y18950
Y19950
T09
X16300Y29100
Y31100
X18800
Y29100
Y32667
Y34667
Y36233
Y38233
Y39800
Y41800
X16300
Y39800
Y38233
Y36233
Y34667
Y32667
T10
X16450Y26850
X18450Y27850
Y25850
T11
X31600Y24100
X32600
X30600
X29600
X28600
X27600
X26600
X25600
X24600
X23600
X22600
X21600
X20600
X19600
X18600
X17600
T12
X51950Y25200
Y26200
Y27200
Y28200
T13
X39650Y39897
X42012Y39109
X44374Y39897
X46800
Y44700
X44450
X39650
X51600
X51524Y39897
X49162Y39109
M30
