G04*
G04 #@! TF.GenerationSoftware,Altium Limited,Altium Designer,21.9.2 (33)*
G04*
G04 Layer_Color=16711935*
%FSLAX25Y25*%
%MOIN*%
G70*
G04*
G04 #@! TF.SameCoordinates,16876C39-77F7-4B8B-AB46-175668DC8D83*
G04*
G04*
G04 #@! TF.FilePolarity,Negative*
G04*
G01*
G75*
%ADD54O,0.10800X0.07400*%
%ADD55C,0.06784*%
%ADD56R,0.06784X0.06784*%
%ADD57C,0.07099*%
%ADD58R,0.07099X0.07099*%
%ADD59C,0.06706*%
%ADD60R,0.06706X0.06706*%
%ADD61R,0.07099X0.07099*%
%ADD62C,0.12800*%
%ADD63R,0.07000X0.09800*%
%ADD64O,0.07000X0.09800*%
%ADD65C,0.08300*%
%ADD66R,0.10800X0.16800*%
%ADD67R,0.16800X0.10800*%
%ADD90C,0.04575*%
%ADD91C,0.02375*%
%ADD92C,0.03556*%
%ADD93C,0.03162*%
%ADD94C,0.03375*%
%ADD95C,0.02769*%
D54*
X517000Y199500D02*
D03*
Y189500D02*
D03*
Y179500D02*
D03*
D55*
X519500Y282000D02*
D03*
Y272000D02*
D03*
Y262000D02*
D03*
D56*
Y252000D02*
D03*
D57*
X372500Y280000D02*
D03*
Y300000D02*
D03*
Y290000D02*
D03*
X486500Y491000D02*
D03*
X451750D02*
D03*
X417000D02*
D03*
D58*
X372500Y310000D02*
D03*
D59*
X452000Y283000D02*
D03*
D60*
X451950Y313000D02*
D03*
D61*
X496500Y491000D02*
D03*
X461750D02*
D03*
X427000D02*
D03*
D62*
X443744Y398969D02*
D03*
X396500D02*
D03*
X444500Y447000D02*
D03*
X396500D02*
D03*
X420122Y391094D02*
D03*
X515244Y398969D02*
D03*
X468000D02*
D03*
X516000Y447000D02*
D03*
X468000D02*
D03*
X491622Y391094D02*
D03*
D63*
X176000Y241000D02*
D03*
D64*
X186000D02*
D03*
X196000D02*
D03*
X206000D02*
D03*
X216000D02*
D03*
X226000D02*
D03*
X236000D02*
D03*
X246000D02*
D03*
X256000D02*
D03*
X266000D02*
D03*
X276000D02*
D03*
X286000D02*
D03*
X296000D02*
D03*
X306000D02*
D03*
X316000D02*
D03*
X326000D02*
D03*
D65*
X184500Y278500D02*
D03*
X164500Y268500D02*
D03*
X184500Y258500D02*
D03*
X163000Y311000D02*
D03*
X188000Y291000D02*
D03*
Y311000D02*
D03*
X163000Y291000D02*
D03*
Y346667D02*
D03*
X188000Y326667D02*
D03*
Y346667D02*
D03*
X163000Y326667D02*
D03*
Y382333D02*
D03*
X188000Y362333D02*
D03*
Y382333D02*
D03*
X163000Y362333D02*
D03*
X188000Y398000D02*
D03*
X163000Y418000D02*
D03*
Y398000D02*
D03*
X188000Y418000D02*
D03*
D66*
X199000Y477500D02*
D03*
X174000D02*
D03*
D67*
X189000Y457500D02*
D03*
D90*
X372500Y362000D02*
D03*
X381500Y370500D02*
D03*
D91*
X216500Y326000D02*
D03*
X210000Y359000D02*
D03*
X291500Y385000D02*
D03*
X305000Y346000D02*
D03*
X308500Y342500D02*
D03*
X485500Y265500D02*
D03*
X282000Y319500D02*
D03*
X306000Y310500D02*
D03*
X308500Y319500D02*
D03*
X344500Y308000D02*
D03*
X327000D02*
D03*
X351500Y368500D02*
D03*
X219500Y282500D02*
D03*
X252500Y304500D02*
D03*
X203000Y399500D02*
D03*
X341500Y296000D02*
D03*
X487000Y355500D02*
D03*
X397500Y264500D02*
D03*
X237500Y357000D02*
D03*
X289000Y345500D02*
D03*
X357000Y315500D02*
D03*
X351000Y311500D02*
D03*
X203500Y289000D02*
D03*
X357000Y320000D02*
D03*
X348500Y323500D02*
D03*
X404500Y312500D02*
D03*
X279000Y377500D02*
D03*
X486500D02*
D03*
X404500Y382000D02*
D03*
X285500Y382500D02*
D03*
D92*
X465500Y370500D02*
D03*
D93*
X169500Y251500D02*
D03*
X426500Y179500D02*
D03*
X294500Y463500D02*
D03*
X289000Y370000D02*
D03*
X485500Y214000D02*
D03*
X233000Y395500D02*
D03*
X495000Y309500D02*
D03*
X264000Y372000D02*
D03*
D94*
X316000Y220000D02*
D03*
D95*
X276000Y434000D02*
D03*
X255000Y400000D02*
D03*
M02*
